%FSLAX34Y34*%
%MOMM*%
%LNCOPPER_TOP*%
G71*
G01*
%ADD10C, 2.600*%
%ADD11C, 2.600*%
%ADD12C, 0.318*%
%ADD13C, 2.600*%
%ADD14C, 1.100*%
%ADD15R, 1.700X1.200*%
%ADD16R, 2.200X1.900*%
%ADD17R, 1.900X2.200*%
%ADD18C, 2.400*%
%ADD19C, 0.667*%
%ADD20C, 0.600*%
%ADD21C, 0.433*%
%ADD22C, 1.488*%
%ADD23C, 2.000*%
%ADD24C, 2.000*%
%ADD25C, 2.000*%
%ADD26C, 0.500*%
%ADD27R, 1.100X0.600*%
%ADD28R, 1.600X1.300*%
%ADD29R, 1.300X1.600*%
%ADD30C, 1.800*%
%LPD*%
G36*
X0Y0D02*
X470000Y0D01*
X470000Y-280000D01*
X0Y-280000D01*
X0Y0D01*
G37*
%LPC*%
G54D10*
X71756Y-70644D02*
X91756Y-70644D01*
G54D10*
X147956Y-70644D02*
X167956Y-70644D01*
G54D10*
X71756Y-121444D02*
X91756Y-121444D01*
G54D10*
X147956Y-121444D02*
X167956Y-121444D01*
G54D10*
X147956Y-96044D02*
X167956Y-96044D01*
G36*
X13988Y-83838D02*
X39988Y-83838D01*
X39988Y-109838D01*
X13988Y-109838D01*
X13988Y-83838D01*
G37*
X26988Y-71438D02*
G54D11*
D03*
G54D12*
X23590Y-24449D02*
X27590Y-26671D01*
X28923Y-28893D01*
X28923Y-33338D01*
G54D12*
X18256Y-33338D02*
X18256Y-15560D01*
X24923Y-15560D01*
X27590Y-16671D01*
X28923Y-18893D01*
X28923Y-21115D01*
X27590Y-23338D01*
X24923Y-24449D01*
X18256Y-24449D01*
G54D12*
X35145Y-33338D02*
X35145Y-15560D01*
X44479Y-15560D01*
G54D12*
X35145Y-24449D02*
X44479Y-24449D01*
G54D12*
X57189Y-33338D02*
X57189Y-23338D01*
G54D12*
X57189Y-20004D02*
X57189Y-20004D01*
G54D12*
X63411Y-33338D02*
X63411Y-23338D01*
G54D12*
X63411Y-25560D02*
X64745Y-24004D01*
X67411Y-23338D01*
X70078Y-24004D01*
X71411Y-25560D01*
X71411Y-33338D01*
X234156Y-70644D02*
G54D13*
D03*
G54D10*
X300356Y-70644D02*
X320356Y-70644D01*
G36*
X221156Y-108444D02*
X247156Y-108444D01*
X247156Y-134444D01*
X221156Y-134444D01*
X221156Y-108444D01*
G37*
G54D10*
X300356Y-121444D02*
X320356Y-121444D01*
G54D10*
X300356Y-96044D02*
X320356Y-96044D01*
G54D14*
X26988Y-71438D02*
X81756Y-70644D01*
G54D14*
X157956Y-70644D02*
X310356Y-70644D01*
G54D14*
X157956Y-121444D02*
X310356Y-121444D01*
X359569Y-88106D02*
G54D15*
D03*
X386569Y-88106D02*
G54D15*
D03*
X359568Y-97106D02*
G54D15*
D03*
X386569Y-97106D02*
G54D15*
D03*
X359569Y-106106D02*
G54D15*
D03*
X386569Y-106106D02*
G54D15*
D03*
X359569Y-82153D02*
G54D15*
D03*
G54D14*
X310356Y-70644D02*
X342106Y-70644D01*
X359569Y-88106D01*
G54D14*
X310356Y-121444D02*
X343694Y-121444D01*
X357981Y-107156D01*
X383381Y-51594D02*
G54D16*
D03*
X383381Y-32594D02*
G54D16*
D03*
X445294Y-105569D02*
G54D17*
D03*
X426294Y-105569D02*
G54D17*
D03*
X407194Y-51594D02*
G54D17*
D03*
X426194Y-51594D02*
G54D17*
D03*
X407194Y-134144D02*
G54D17*
D03*
X426194Y-134144D02*
G54D17*
D03*
G54D14*
X407194Y-51594D02*
X388143Y-86519D01*
X445294Y-76994D02*
G54D17*
D03*
X426294Y-76994D02*
G54D17*
D03*
G54D14*
X426244Y-51594D02*
X426294Y-105568D01*
X361156Y-134144D02*
G54D17*
D03*
X380156Y-134144D02*
G54D17*
D03*
G54D14*
X426244Y-134144D02*
X426319Y-105543D01*
G54D14*
X386556Y-105569D02*
X426194Y-105340D01*
G54D14*
X380206Y-134144D02*
X407194Y-134144D01*
G36*
X341012Y-33038D02*
X367012Y-33038D01*
X367012Y-59038D01*
X341012Y-59038D01*
X341012Y-33038D01*
G37*
X354012Y-20638D02*
G54D11*
D03*
G54D14*
X383381Y-32544D02*
X353948Y-20948D01*
G36*
X389431Y-179688D02*
X389431Y-153688D01*
X415431Y-153688D01*
X415431Y-179688D01*
X389431Y-179688D01*
G37*
X377031Y-166688D02*
G54D11*
D03*
G54D14*
X386556Y-96838D02*
X375434Y-96838D01*
X375444Y-123825D01*
X380182Y-134169D01*
G54D14*
X383381Y-51594D02*
X407194Y-51594D01*
X407220Y-51619D01*
G54D14*
X377031Y-166688D02*
X376786Y-137739D01*
X379960Y-134564D01*
G54D10*
X301150Y-184944D02*
X321150Y-184944D01*
X176082Y-193785D02*
G54D18*
D03*
X197907Y-240609D02*
G54D18*
D03*
X176082Y-240610D02*
G54D18*
D03*
X219732Y-240610D02*
G54D18*
D03*
X219732Y-193785D02*
G54D18*
D03*
X136401Y-203329D02*
G54D16*
D03*
X136401Y-184329D02*
G54D16*
D03*
X136401Y-249366D02*
G54D16*
D03*
X136401Y-230367D02*
G54D16*
D03*
X260226Y-203329D02*
G54D16*
D03*
X260226Y-184329D02*
G54D16*
D03*
X260226Y-249366D02*
G54D16*
D03*
X260226Y-230367D02*
G54D16*
D03*
G54D14*
X260226Y-203329D02*
X260226Y-230367D01*
X296683Y-230367D01*
X311150Y-215900D01*
X311150Y-184944D01*
G54D12*
X279400Y-10797D02*
X286067Y-28575D01*
X292733Y-10797D01*
G54D12*
X298955Y-28575D02*
X298955Y-10797D01*
X308288Y-10797D01*
G54D12*
X298955Y-19686D02*
X308288Y-19686D01*
G54D12*
X325177Y-14131D02*
X325177Y-25242D01*
X323843Y-27464D01*
X321177Y-28575D01*
X318510Y-28575D01*
X315843Y-27464D01*
X314510Y-25242D01*
X314510Y-14131D01*
X315843Y-11908D01*
X318510Y-10797D01*
X321177Y-10797D01*
X323843Y-11908D01*
X325177Y-14131D01*
G54D12*
X363538Y-206535D02*
X374204Y-206535D01*
G54D12*
X368871Y-202090D02*
X368871Y-210979D01*
G54D12*
X391093Y-196535D02*
X380426Y-196535D01*
X380426Y-204312D01*
X381760Y-204312D01*
X384426Y-203201D01*
X387093Y-203201D01*
X389760Y-204312D01*
X391093Y-206535D01*
X391093Y-210979D01*
X389760Y-213201D01*
X387093Y-214312D01*
X384426Y-214312D01*
X381760Y-213201D01*
X380426Y-210979D01*
G54D12*
X397316Y-204312D02*
X402649Y-214312D01*
X407982Y-204312D01*
G36*
X62547Y-217492D02*
X88547Y-217492D01*
X88547Y-243492D01*
X62547Y-243492D01*
X62547Y-217492D01*
G37*
X75547Y-205092D02*
G54D11*
D03*
G54D12*
X15847Y-178532D02*
X26514Y-178532D01*
G54D12*
X21181Y-178532D02*
X21181Y-160754D01*
G54D12*
X15847Y-160754D02*
X26514Y-160754D01*
G54D12*
X32736Y-178532D02*
X32736Y-160754D01*
X42070Y-160754D01*
G54D12*
X32736Y-169643D02*
X42070Y-169643D01*
G54D12*
X62780Y-175865D02*
X62780Y-171421D01*
X61447Y-169198D01*
X58780Y-168532D01*
X56114Y-169198D01*
X54780Y-171421D01*
X54780Y-175865D01*
X56114Y-178087D01*
X58780Y-178532D01*
X61447Y-178087D01*
X62780Y-175865D01*
G54D12*
X77002Y-168532D02*
X77002Y-178532D01*
G54D12*
X77002Y-176310D02*
X75669Y-178087D01*
X73002Y-178532D01*
X70336Y-178087D01*
X69002Y-176310D01*
X69002Y-168532D01*
G54D12*
X85891Y-160754D02*
X85891Y-177421D01*
X87224Y-178532D01*
X88558Y-178087D01*
G54D12*
X83224Y-168532D02*
X88558Y-168532D01*
G54D14*
X75547Y-205092D02*
X134638Y-205092D01*
X136401Y-203329D01*
X136401Y-230367D01*
G54D14*
X136401Y-184329D02*
X166627Y-184329D01*
X176082Y-193785D01*
X219732Y-193785D01*
G54D14*
X260226Y-184329D02*
X229188Y-184329D01*
X219732Y-193785D01*
%LPD*%
G54D19*
G36*
X78423Y-121444D02*
X78423Y-107944D01*
X85090Y-107944D01*
X85090Y-121444D01*
X78423Y-121444D01*
G37*
G36*
X81756Y-118110D02*
X105256Y-118110D01*
X105256Y-124777D01*
X81756Y-124777D01*
X81756Y-118110D01*
G37*
G36*
X85090Y-121444D02*
X85090Y-134944D01*
X78423Y-134944D01*
X78423Y-121444D01*
X85090Y-121444D01*
G37*
G36*
X81756Y-124777D02*
X58256Y-124777D01*
X58256Y-118110D01*
X81756Y-118110D01*
X81756Y-124777D01*
G37*
G54D19*
G36*
X26988Y-93504D02*
X40488Y-93504D01*
X40488Y-100171D01*
X26988Y-100171D01*
X26988Y-93504D01*
G37*
G36*
X30321Y-96838D02*
X30321Y-110338D01*
X23654Y-110338D01*
X23654Y-96838D01*
X30321Y-96838D01*
G37*
G36*
X26988Y-100171D02*
X13488Y-100171D01*
X13488Y-93504D01*
X26988Y-93504D01*
X26988Y-100171D01*
G37*
G54D20*
G36*
X359568Y-94106D02*
X368568Y-94106D01*
X368568Y-100106D01*
X359568Y-100106D01*
X359568Y-94106D01*
G37*
G36*
X359568Y-100106D02*
X350568Y-100106D01*
X350568Y-94106D01*
X359568Y-94106D01*
X359568Y-100106D01*
G37*
G54D21*
G36*
X447460Y-105569D02*
X447460Y-117069D01*
X443127Y-117069D01*
X443127Y-105569D01*
X447460Y-105569D01*
G37*
G36*
X443127Y-105569D02*
X443127Y-94069D01*
X447460Y-94069D01*
X447460Y-105569D01*
X443127Y-105569D01*
G37*
G36*
X445294Y-103402D02*
X455294Y-103402D01*
X455294Y-107735D01*
X445294Y-107735D01*
X445294Y-103402D01*
G37*
G54D21*
G36*
X447460Y-76994D02*
X447460Y-88494D01*
X443127Y-88494D01*
X443127Y-76994D01*
X447460Y-76994D01*
G37*
G36*
X443127Y-76994D02*
X443127Y-65494D01*
X447460Y-65494D01*
X447460Y-76994D01*
X443127Y-76994D01*
G37*
G36*
X445294Y-74827D02*
X455294Y-74827D01*
X455294Y-79160D01*
X445294Y-79160D01*
X445294Y-74827D01*
G37*
G54D21*
G36*
X358990Y-134144D02*
X358990Y-122644D01*
X363323Y-122644D01*
X363323Y-134144D01*
X358990Y-134144D01*
G37*
G36*
X363323Y-134144D02*
X363323Y-145644D01*
X358990Y-145644D01*
X358990Y-134144D01*
X363323Y-134144D01*
G37*
G36*
X361156Y-136310D02*
X351156Y-136310D01*
X351156Y-131977D01*
X361156Y-131977D01*
X361156Y-136310D01*
G37*
G54D19*
G36*
X354012Y-42704D02*
X367512Y-42704D01*
X367512Y-49371D01*
X354012Y-49371D01*
X354012Y-42704D01*
G37*
G36*
X357346Y-46038D02*
X357346Y-59538D01*
X350679Y-59538D01*
X350679Y-46038D01*
X357346Y-46038D01*
G37*
G36*
X354012Y-49371D02*
X340512Y-49371D01*
X340512Y-42704D01*
X354012Y-42704D01*
X354012Y-49371D01*
G37*
G54D19*
G36*
X399098Y-166688D02*
X399098Y-153188D01*
X405765Y-153188D01*
X405765Y-166688D01*
X399098Y-166688D01*
G37*
G36*
X402431Y-163354D02*
X415931Y-163354D01*
X415931Y-170021D01*
X402431Y-170021D01*
X402431Y-163354D01*
G37*
G36*
X405765Y-166688D02*
X405765Y-180188D01*
X399098Y-180188D01*
X399098Y-166688D01*
X405765Y-166688D01*
G37*
G54D22*
G36*
X190467Y-240609D02*
X190467Y-228109D01*
X205347Y-228109D01*
X205347Y-240609D01*
X190467Y-240609D01*
G37*
G36*
X205347Y-240609D02*
X205347Y-253110D01*
X190467Y-253110D01*
X190467Y-240609D01*
X205347Y-240609D01*
G37*
G54D21*
G36*
X136401Y-251533D02*
X124901Y-251533D01*
X124901Y-247200D01*
X136401Y-247200D01*
X136401Y-251533D01*
G37*
G36*
X136401Y-247200D02*
X147901Y-247200D01*
X147901Y-251533D01*
X136401Y-251533D01*
X136401Y-247200D01*
G37*
G36*
X138568Y-249366D02*
X138568Y-259366D01*
X134235Y-259366D01*
X134235Y-249366D01*
X138568Y-249366D01*
G37*
G54D21*
G36*
X260226Y-251533D02*
X248726Y-251533D01*
X248726Y-247200D01*
X260226Y-247200D01*
X260226Y-251533D01*
G37*
G36*
X260226Y-247200D02*
X271726Y-247200D01*
X271726Y-251533D01*
X260226Y-251533D01*
X260226Y-247200D01*
G37*
G36*
X262393Y-249366D02*
X262393Y-259366D01*
X258060Y-259366D01*
X258060Y-249366D01*
X262393Y-249366D01*
G37*
G54D19*
G36*
X75547Y-227158D02*
X89047Y-227158D01*
X89047Y-233825D01*
X75547Y-233825D01*
X75547Y-227158D01*
G37*
G36*
X78880Y-230492D02*
X78880Y-243992D01*
X72214Y-243992D01*
X72214Y-230492D01*
X78880Y-230492D01*
G37*
G36*
X75547Y-233825D02*
X62047Y-233825D01*
X62047Y-227158D01*
X75547Y-227158D01*
X75547Y-233825D01*
G37*
G54D23*
X71756Y-70644D02*
X91756Y-70644D01*
G54D23*
X147956Y-70644D02*
X167956Y-70644D01*
G54D23*
X71756Y-121444D02*
X91756Y-121444D01*
G54D23*
X147956Y-121444D02*
X167956Y-121444D01*
G54D23*
X147956Y-96044D02*
X167956Y-96044D01*
G36*
X16988Y-86838D02*
X36988Y-86838D01*
X36988Y-106838D01*
X16988Y-106838D01*
X16988Y-86838D01*
G37*
X26988Y-71438D02*
G54D24*
D03*
X234156Y-70644D02*
G54D25*
D03*
G54D23*
X300356Y-70644D02*
X320356Y-70644D01*
G36*
X224156Y-111444D02*
X244156Y-111444D01*
X244156Y-131444D01*
X224156Y-131444D01*
X224156Y-111444D01*
G37*
G54D23*
X300356Y-121444D02*
X320356Y-121444D01*
G54D23*
X300356Y-96044D02*
X320356Y-96044D01*
G54D26*
X26988Y-71438D02*
X81756Y-70644D01*
G54D26*
X157956Y-70644D02*
X310356Y-70644D01*
G54D26*
X157956Y-121444D02*
X310356Y-121444D01*
X359569Y-88106D02*
G54D27*
D03*
X386569Y-88106D02*
G54D27*
D03*
X359568Y-97106D02*
G54D27*
D03*
X386569Y-97106D02*
G54D27*
D03*
X359569Y-106106D02*
G54D27*
D03*
X386569Y-106106D02*
G54D27*
D03*
X359569Y-82153D02*
G54D27*
D03*
G54D26*
X310356Y-70644D02*
X342106Y-70644D01*
X359569Y-88106D01*
G54D26*
X310356Y-121444D02*
X343694Y-121444D01*
X357981Y-107156D01*
X383381Y-51594D02*
G54D28*
D03*
X383381Y-32594D02*
G54D28*
D03*
X445294Y-105569D02*
G54D29*
D03*
X426294Y-105569D02*
G54D29*
D03*
X407194Y-51594D02*
G54D29*
D03*
X426194Y-51594D02*
G54D29*
D03*
X407194Y-134144D02*
G54D29*
D03*
X426194Y-134144D02*
G54D29*
D03*
G54D26*
X407194Y-51594D02*
X388143Y-86519D01*
X445294Y-76994D02*
G54D29*
D03*
X426294Y-76994D02*
G54D29*
D03*
G54D26*
X426244Y-51594D02*
X426294Y-105568D01*
X361156Y-134144D02*
G54D29*
D03*
X380156Y-134144D02*
G54D29*
D03*
G54D26*
X426244Y-134144D02*
X426319Y-105543D01*
G54D26*
X386556Y-105569D02*
X426194Y-105340D01*
G54D26*
X380206Y-134144D02*
X407194Y-134144D01*
G36*
X344012Y-36038D02*
X364012Y-36038D01*
X364012Y-56038D01*
X344012Y-56038D01*
X344012Y-36038D01*
G37*
X354012Y-20638D02*
G54D24*
D03*
G54D26*
X383381Y-32544D02*
X353948Y-20948D01*
G36*
X392431Y-176688D02*
X392431Y-156688D01*
X412431Y-156688D01*
X412431Y-176688D01*
X392431Y-176688D01*
G37*
X377031Y-166688D02*
G54D24*
D03*
G54D26*
X386556Y-96838D02*
X375434Y-96838D01*
X375444Y-123825D01*
X380182Y-134169D01*
G54D26*
X383381Y-51594D02*
X407194Y-51594D01*
X407220Y-51619D01*
G54D26*
X377031Y-166688D02*
X376786Y-137739D01*
X379960Y-134564D01*
G54D23*
X301150Y-184944D02*
X321150Y-184944D01*
X176082Y-193785D02*
G54D30*
D03*
X197907Y-240609D02*
G54D30*
D03*
X176082Y-240610D02*
G54D30*
D03*
X219732Y-240610D02*
G54D30*
D03*
X219732Y-193785D02*
G54D30*
D03*
X136401Y-203329D02*
G54D28*
D03*
X136401Y-184329D02*
G54D28*
D03*
X136401Y-249366D02*
G54D28*
D03*
X136401Y-230367D02*
G54D28*
D03*
X260226Y-203329D02*
G54D28*
D03*
X260226Y-184329D02*
G54D28*
D03*
X260226Y-249366D02*
G54D28*
D03*
X260226Y-230367D02*
G54D28*
D03*
G54D26*
X260226Y-203329D02*
X260226Y-230367D01*
X296683Y-230367D01*
X311150Y-215900D01*
X311150Y-184944D01*
G36*
X65547Y-220492D02*
X85547Y-220492D01*
X85547Y-240492D01*
X65547Y-240492D01*
X65547Y-220492D01*
G37*
X75547Y-205092D02*
G54D24*
D03*
G54D26*
X75547Y-205092D02*
X134638Y-205092D01*
X136401Y-203329D01*
X136401Y-230367D01*
G54D26*
X136401Y-184329D02*
X166627Y-184329D01*
X176082Y-193785D01*
X219732Y-193785D01*
G54D26*
X260226Y-184329D02*
X229188Y-184329D01*
X219732Y-193785D01*
M02*
