%FSLAX34Y34*%
%MOMM*%
%LNCOPPER_BOTTOM*%
G71*
G01*
%ADD10C, 2.600*%
%ADD11C, 1.100*%
%ADD12C, 2.600*%
%ADD13C, 2.400*%
%ADD14C, 1.653*%
%ADD15C, 0.600*%
%ADD16C, 2.000*%
%ADD17C, 0.500*%
%ADD18C, 2.000*%
%ADD19C, 1.800*%
%LPD*%
G36*
X0Y0D02*
X400000Y0D01*
X400000Y-100000D01*
X0Y-100000D01*
X0Y0D01*
G37*
%LPC*%
X74600Y-24600D02*
G54D10*
D03*
X99600Y-74600D02*
G54D10*
D03*
X74600Y-74600D02*
G54D10*
D03*
X124600Y-74600D02*
G54D10*
D03*
X124600Y-24600D02*
G54D10*
D03*
X174600Y-24600D02*
G54D10*
D03*
X199600Y-74600D02*
G54D10*
D03*
X174600Y-74600D02*
G54D10*
D03*
X224600Y-74600D02*
G54D10*
D03*
X224600Y-24600D02*
G54D10*
D03*
X274600Y-24600D02*
G54D10*
D03*
X299600Y-74600D02*
G54D10*
D03*
X274600Y-74600D02*
G54D10*
D03*
X324600Y-74600D02*
G54D10*
D03*
X324600Y-24600D02*
G54D10*
D03*
G54D11*
X124600Y-24600D02*
X124600Y-74600D01*
G54D11*
X174600Y-24600D02*
X174600Y-74600D01*
G54D11*
X224600Y-24600D02*
X224600Y-74600D01*
G54D11*
X274600Y-24600D02*
X274600Y-74600D01*
G54D11*
X324600Y-24600D02*
X324600Y-74600D01*
G54D11*
X74600Y-24600D02*
X74600Y-74600D01*
G54D12*
X124600Y-24600D02*
X174600Y-24600D01*
G54D12*
X224600Y-24600D02*
X274600Y-24600D01*
G36*
X360600Y-47600D02*
X384600Y-47600D01*
X384600Y-71600D01*
X360600Y-71600D01*
X360600Y-47600D01*
G37*
X372600Y-34200D02*
G54D13*
D03*
G36*
X14600Y-47600D02*
X38600Y-47600D01*
X38600Y-71600D01*
X14600Y-71600D01*
X14600Y-47600D01*
G37*
X26600Y-34200D02*
G54D13*
D03*
G54D12*
X74600Y-24600D02*
X36200Y-24600D01*
X26600Y-34200D01*
G54D12*
X324600Y-24600D02*
X363000Y-24600D01*
X372600Y-34200D01*
%LPD*%
G54D14*
G36*
X91333Y-74600D02*
X91333Y-61100D01*
X107867Y-61100D01*
X107867Y-74600D01*
X91333Y-74600D01*
G37*
G36*
X107867Y-74600D02*
X107867Y-88100D01*
X91333Y-88100D01*
X91333Y-74600D01*
X107867Y-74600D01*
G37*
G54D14*
G36*
X191333Y-74600D02*
X191333Y-61100D01*
X207867Y-61100D01*
X207867Y-74600D01*
X191333Y-74600D01*
G37*
G36*
X207867Y-74600D02*
X207867Y-88100D01*
X191333Y-88100D01*
X191333Y-74600D01*
X207867Y-74600D01*
G37*
G54D14*
G36*
X291333Y-74600D02*
X291333Y-61100D01*
X307867Y-61100D01*
X307867Y-74600D01*
X291333Y-74600D01*
G37*
G36*
X307867Y-74600D02*
X307867Y-88100D01*
X291333Y-88100D01*
X291333Y-74600D01*
X307867Y-74600D01*
G37*
G54D15*
G36*
X369600Y-59600D02*
X369600Y-47100D01*
X375600Y-47100D01*
X375600Y-59600D01*
X369600Y-59600D01*
G37*
G36*
X372600Y-56600D02*
X385100Y-56600D01*
X385100Y-62600D01*
X372600Y-62600D01*
X372600Y-56600D01*
G37*
G36*
X375600Y-59600D02*
X375600Y-72100D01*
X369600Y-72100D01*
X369600Y-59600D01*
X375600Y-59600D01*
G37*
G36*
X372600Y-62600D02*
X360100Y-62600D01*
X360100Y-56600D01*
X372600Y-56600D01*
X372600Y-62600D01*
G37*
G54D15*
G36*
X23600Y-59600D02*
X23600Y-47100D01*
X29600Y-47100D01*
X29600Y-59600D01*
X23600Y-59600D01*
G37*
G36*
X26600Y-56600D02*
X39100Y-56600D01*
X39100Y-62600D01*
X26600Y-62600D01*
X26600Y-56600D01*
G37*
G36*
X29600Y-59600D02*
X29600Y-72100D01*
X23600Y-72100D01*
X23600Y-59600D01*
X29600Y-59600D01*
G37*
G36*
X26600Y-62600D02*
X14100Y-62600D01*
X14100Y-56600D01*
X26600Y-56600D01*
X26600Y-62600D01*
G37*
X74600Y-24600D02*
G54D16*
D03*
X99600Y-74600D02*
G54D16*
D03*
X74600Y-74600D02*
G54D16*
D03*
X124600Y-74600D02*
G54D16*
D03*
X124600Y-24600D02*
G54D16*
D03*
X174600Y-24600D02*
G54D16*
D03*
X199600Y-74600D02*
G54D16*
D03*
X174600Y-74600D02*
G54D16*
D03*
X224600Y-74600D02*
G54D16*
D03*
X224600Y-24600D02*
G54D16*
D03*
X274600Y-24600D02*
G54D16*
D03*
X299600Y-74600D02*
G54D16*
D03*
X274600Y-74600D02*
G54D16*
D03*
X324600Y-74600D02*
G54D16*
D03*
X324600Y-24600D02*
G54D16*
D03*
G54D17*
X124600Y-24600D02*
X124600Y-74600D01*
G54D17*
X174600Y-24600D02*
X174600Y-74600D01*
G54D17*
X224600Y-24600D02*
X224600Y-74600D01*
G54D17*
X274600Y-24600D02*
X274600Y-74600D01*
G54D17*
X324600Y-24600D02*
X324600Y-74600D01*
G54D17*
X74600Y-24600D02*
X74600Y-74600D01*
G54D18*
X124600Y-24600D02*
X174600Y-24600D01*
G54D18*
X224600Y-24600D02*
X274600Y-24600D01*
G36*
X363600Y-50600D02*
X381600Y-50600D01*
X381600Y-68600D01*
X363600Y-68600D01*
X363600Y-50600D01*
G37*
X372600Y-34200D02*
G54D19*
D03*
G36*
X17600Y-50600D02*
X35600Y-50600D01*
X35600Y-68600D01*
X17600Y-68600D01*
X17600Y-50600D01*
G37*
X26600Y-34200D02*
G54D19*
D03*
G54D18*
X74600Y-24600D02*
X36200Y-24600D01*
X26600Y-34200D01*
G54D18*
X324600Y-24600D02*
X363000Y-24600D01*
X372600Y-34200D01*
M02*
