M48
M71
T01C0.5
T02C0.6
T03C0.8
T04C0.9
T05C2.0
T06C3.0
%
G05
T01
X021390Y-023450
X023930Y-023450
X026470Y-023450
X026470Y-018370
X023930Y-018370
X021390Y-018370
X039650Y-013140
X042190Y-013140
X044730Y-013140
X044730Y-008060
X042190Y-008060
X039650Y-008060
X065210Y-010990
X070290Y-010990
X070290Y-016070
X065210Y-016070
X062820Y-033220
X057740Y-033220
X057740Y-038300
X062820Y-038300
X062860Y-044450
X057780Y-044450
X057780Y-049530
X062860Y-049530
T02
X024450Y-050490
X024450Y-042390
X036670Y-037460
X039130Y-035400
X035400Y-030160
X023970Y-025560
X028810Y-018810
X028840Y-014840
X028100Y-006030
X033490Y-003010
X038180Y-001820
X045400Y-003890
X049130Y-004280
X047940Y-016590
X044610Y-018100
X048260Y-020560
X055240Y-023650
X057740Y-023650
X060240Y-023650
X061360Y-018890
X058860Y-018890
X056360Y-018890
X056120Y-015790
X062540Y-016190
X070320Y-008730
X070000Y-002000
X057390Y-029840
X053970Y-041990
X063020Y-041270
X072700Y-038890
X062360Y-055220
X062360Y-057720
X062360Y-060220
X058020Y-059770
X058020Y-055400
X053340Y-055400
X053340Y-057580
X053340Y-059770
X072230Y-072310
X039530Y-018250
X021670Y-005720
X018730Y-005720
X018730Y-003810
X015710Y-005710
X012540Y-006430
X008730Y-005160
X005400Y-007380
X006190Y-010000
X008250Y-012060
X006660Y-022220
X015560Y-023410
X018730Y-007620
X002000Y-002000
T03
X036200Y-049050
X033030Y-040300
X028030Y-040300
X027070Y-031240
X024530Y-031240
X010400Y-032150
X004850Y-032430
X002310Y-032430
X003250Y-023730
X003390Y-019740
X003390Y-004700
X024680Y-005260
X024680Y-013020
X048340Y-010240
X052060Y-009620
X052060Y-017370
X048340Y-025280
X050010Y-033260
X050010Y-035800
X052550Y-035800
X052550Y-033260
X046150Y-041940
X042610Y-038400
X053340Y-065330
X059690Y-076840
X066420Y-063490
X071990Y-059290
X066420Y-055740
T04
X070740Y-054990
X070740Y-052450
X070740Y-049910
X070740Y-030860
X070740Y-028320
X070740Y-025780
T05
X015080Y-032110
X004920Y-027340
X037460Y-041950
X055090Y-069250
T06
X066360Y-075800
X066360Y-004480
M30
