%FSLAX34Y34*%
%MOMM*%
%LNCOPPER_BOTTOM*%
G71*
G01*
%ADD10C, 2.400*%
%ADD11C, 6.000*%
%ADD12C, 0.100*%
%ADD13C, 2.700*%
%ADD14C, 2.800*%
%ADD15C, 0.238*%
%ADD16C, 2.600*%
%ADD17R, 1.900X1.400*%
%ADD18C, 1.400*%
%ADD19C, 2.600*%
%ADD20C, 1.800*%
%ADD21R, 2.100X2.400*%
%ADD22R, 1.300X1.600*%
%ADD23C, 1.800*%
%ADD24R, 2.400X2.400*%
%ADD25R, 2.200X2.100*%
%ADD26R, 1.400X1.300*%
%ADD27C, 0.800*%
%ADD28C, 1.600*%
%ADD29C, 0.600*%
%ADD30R, 2.400X2.100*%
%ADD31R, 1.600X1.300*%
%ADD32R, 2.400X2.800*%
%ADD33C, 2.800*%
%ADD34R, 2.020X1.820*%
%ADD35R, 2.100X2.200*%
%ADD36C, 1.200*%
%ADD37C, 3.600*%
%ADD38C, 3.100*%
%ADD39C, 0.300*%
%ADD40C, 1.488*%
%ADD41C, 0.667*%
%ADD42C, 0.533*%
%ADD43C, 0.340*%
%ADD44C, 2.000*%
%ADD45C, 1.900*%
%ADD46C, 1.800*%
%ADD47R, 1.100X0.600*%
%ADD48C, 1.000*%
%ADD49R, 1.600X1.600*%
%ADD50R, 1.600X2.000*%
%ADD51C, 2.000*%
%ADD52R, 1.220X1.020*%
%ADD53R, 1.300X1.400*%
%ADD54C, 0.400*%
%ADD55C, 2.300*%
%LPD*%
G36*
X0Y0D02*
X750000Y0D01*
X750000Y-630000D01*
X0Y-630000D01*
X0Y0D01*
G37*
%LPC*%
X139290Y-471886D02*
G54D10*
D03*
X161115Y-518710D02*
G54D10*
D03*
X139290Y-518710D02*
G54D10*
D03*
X182940Y-518710D02*
G54D10*
D03*
X182940Y-471886D02*
G54D10*
D03*
X42465Y-589756D02*
G54D11*
D03*
X64690Y-40481D02*
G54D11*
D03*
G36*
X29766Y-69453D02*
X-397Y-69453D01*
X-397Y397D01*
X29766Y397D01*
X29766Y-69453D01*
G37*
G54D12*
X29766Y-69453D02*
X-397Y-69453D01*
X-397Y397D01*
X29766Y397D01*
X29766Y-69453D01*
X186127Y-363930D02*
G54D10*
D03*
X139302Y-385755D02*
G54D10*
D03*
X139302Y-363930D02*
G54D10*
D03*
X139302Y-407580D02*
G54D10*
D03*
X186128Y-407580D02*
G54D10*
D03*
X31351Y-471886D02*
G54D10*
D03*
X53176Y-518711D02*
G54D10*
D03*
X31351Y-518711D02*
G54D10*
D03*
X75001Y-518711D02*
G54D10*
D03*
X75001Y-471886D02*
G54D10*
D03*
X31354Y-365125D02*
G54D13*
D03*
X31354Y-415925D02*
G54D13*
D03*
G54D14*
X31354Y-415925D02*
X31351Y-471886D01*
G54D14*
X75001Y-471886D02*
X139290Y-471886D01*
G54D14*
X182940Y-471886D02*
X186128Y-407580D01*
G54D12*
G75*
G01X209866Y-84137D02*
G03X209866Y-84137I-15000J0D01*
G01*
G36*
G75*
G01X209866Y-84137D02*
G03X209866Y-84137I-15000J0D01*
G01*
G37*
X209866Y-84137D01*
G54D12*
G75*
G01X500378Y-84137D02*
G03X500378Y-84137I-15000J0D01*
G01*
G36*
G75*
G01X500378Y-84137D02*
G03X500378Y-84137I-15000J0D01*
G01*
G37*
X500378Y-84137D01*
G54D12*
G75*
G01X94613Y-409972D02*
G03X94613Y-409972I-20000J0D01*
G01*
G36*
G75*
G01X94613Y-409972D02*
G03X94613Y-409972I-20000J0D01*
G01*
G37*
X94613Y-409972D01*
G54D15*
X233293Y-36791D02*
X225293Y-36791D01*
G54D15*
X229293Y-33457D02*
X229293Y-40124D01*
G54D15*
X220626Y-34291D02*
X215626Y-29291D01*
X215626Y-42624D01*
G54D15*
X202959Y-42624D02*
X210959Y-42624D01*
X210959Y-41791D01*
X209959Y-40124D01*
X203959Y-35124D01*
X202959Y-33457D01*
X202959Y-31791D01*
X203959Y-30124D01*
X205959Y-29291D01*
X207959Y-29291D01*
X209959Y-30124D01*
X210959Y-31791D01*
G54D15*
X198292Y-35124D02*
X194292Y-42624D01*
X190292Y-35124D01*
G54D15*
X185625Y-42624D02*
X175625Y-42624D01*
G54D15*
X166958Y-35957D02*
X163958Y-37624D01*
X162958Y-39291D01*
X162958Y-42624D01*
G54D15*
X170958Y-42624D02*
X170958Y-29291D01*
X165958Y-29291D01*
X163958Y-30124D01*
X162958Y-31791D01*
X162958Y-33457D01*
X163958Y-35124D01*
X165958Y-35957D01*
X170958Y-35957D01*
G54D15*
X158291Y-29291D02*
X148291Y-42624D01*
G54D15*
X158291Y-42624D02*
X148291Y-29291D01*
G54D15*
X579188Y-72390D02*
X571188Y-72390D01*
G54D15*
X575188Y-72390D02*
X575188Y-59056D01*
G54D15*
X579188Y-59056D02*
X571188Y-59056D01*
G54D15*
X564521Y-72390D02*
X564521Y-59890D01*
X563521Y-59056D01*
X562521Y-59556D01*
G54D15*
X566521Y-64890D02*
X562521Y-64890D01*
G54D15*
X557854Y-72390D02*
X547854Y-72390D01*
G54D15*
X537187Y-70390D02*
X537187Y-67056D01*
X538187Y-65390D01*
X540187Y-64890D01*
X542187Y-65390D01*
X543187Y-67056D01*
X543187Y-70390D01*
X542187Y-72056D01*
X540187Y-72390D01*
X538187Y-72056D01*
X537187Y-70390D01*
G54D15*
X526520Y-64890D02*
X526520Y-72390D01*
G54D15*
X526520Y-70723D02*
X527520Y-72056D01*
X529520Y-72390D01*
X531520Y-72056D01*
X532520Y-70723D01*
X532520Y-64890D01*
G54D15*
X519853Y-59056D02*
X519853Y-71556D01*
X518853Y-72390D01*
X517853Y-72056D01*
G54D15*
X521853Y-64890D02*
X517853Y-64890D01*
G54D15*
X94577Y-376793D02*
X89577Y-363459D01*
X84577Y-376793D01*
G54D15*
X92577Y-371793D02*
X86577Y-371793D01*
G54D15*
X79910Y-376793D02*
X79910Y-363459D01*
X71910Y-376793D01*
X71910Y-363459D01*
G54D15*
X63243Y-376793D02*
X63243Y-363459D01*
G54D15*
X67243Y-363459D02*
X59243Y-363459D01*
G54D14*
X186134Y-363934D02*
X230584Y-358775D01*
X281384Y-409575D02*
G54D16*
D03*
X230584Y-358775D02*
G54D16*
D03*
X281384Y-358775D02*
G54D16*
D03*
X230584Y-409575D02*
G54D16*
D03*
X355600Y-350044D02*
G54D17*
D03*
X328600Y-350044D02*
G54D17*
D03*
X355600Y-359837D02*
G54D17*
D03*
X328600Y-359838D02*
G54D17*
D03*
X355600Y-369631D02*
G54D17*
D03*
X328600Y-369631D02*
G54D17*
D03*
X355600Y-344884D02*
G54D17*
D03*
G54D12*
G75*
G01X474978Y-524668D02*
G03X474978Y-524668I-15000J0D01*
G01*
G36*
G75*
G01X474978Y-524668D02*
G03X474978Y-524668I-15000J0D01*
G01*
G37*
X474978Y-524668D01*
G54D15*
X529385Y-532884D02*
X521385Y-532884D01*
G54D15*
X525385Y-529551D02*
X525385Y-536218D01*
G54D15*
X516718Y-530384D02*
X511718Y-525384D01*
X511718Y-538718D01*
G54D15*
X499051Y-538718D02*
X507051Y-538718D01*
X507051Y-537884D01*
X506051Y-536218D01*
X500051Y-531218D01*
X499051Y-529551D01*
X499051Y-527884D01*
X500051Y-526218D01*
X502051Y-525384D01*
X504051Y-525384D01*
X506051Y-526218D01*
X507051Y-527884D01*
G54D15*
X494384Y-531218D02*
X490384Y-538718D01*
X486384Y-531218D01*
G54D12*
G75*
G01X423385Y-598487D02*
G03X423385Y-598487I-15000J0D01*
G01*
G36*
G75*
G01X423385Y-598487D02*
G03X423385Y-598487I-15000J0D01*
G01*
G37*
X423385Y-598487D01*
G54D15*
X396496Y-565785D02*
X398496Y-565785D01*
X400496Y-564952D01*
X401496Y-563285D01*
X401496Y-561618D01*
X400496Y-559952D01*
X398496Y-559118D01*
X396496Y-559118D01*
X394496Y-559952D01*
X393496Y-561618D01*
X393496Y-563285D01*
X394496Y-564952D01*
X396496Y-565785D01*
X394496Y-566618D01*
X393496Y-568285D01*
X393496Y-569952D01*
X394496Y-571618D01*
X396496Y-572452D01*
X398496Y-572452D01*
X400496Y-571618D01*
X401496Y-569952D01*
X401496Y-568285D01*
X400496Y-566618D01*
X398496Y-565785D01*
G54D12*
G75*
G01X371791Y-598487D02*
G03X371791Y-598487I-15000J0D01*
G01*
G36*
G75*
G01X371791Y-598487D02*
G03X371791Y-598487I-15000J0D01*
G01*
G37*
X371791Y-598487D01*
G54D15*
X351093Y-570745D02*
X350093Y-572412D01*
X348093Y-573245D01*
X346093Y-573245D01*
X344093Y-572412D01*
X343093Y-570745D01*
X343093Y-566578D01*
X343093Y-565745D01*
X346093Y-567412D01*
X348093Y-567412D01*
X350093Y-566578D01*
X351093Y-564912D01*
X351093Y-562412D01*
X350093Y-560745D01*
X348093Y-559912D01*
X346093Y-559912D01*
X344093Y-560745D01*
X343093Y-562412D01*
X343093Y-566578D01*
X428202Y-358392D02*
G54D16*
D03*
X402802Y-358392D02*
G54D16*
D03*
X453602Y-409192D02*
G54D16*
D03*
X428202Y-409192D02*
G54D16*
D03*
X402802Y-409192D02*
G54D16*
D03*
X453602Y-358392D02*
G54D16*
D03*
G54D18*
X428202Y-358392D02*
X402802Y-409192D01*
X355613Y-400703D02*
G54D17*
D03*
X328613Y-400703D02*
G54D17*
D03*
X355613Y-410497D02*
G54D17*
D03*
X328613Y-410497D02*
G54D17*
D03*
X355613Y-420291D02*
G54D17*
D03*
X328612Y-420291D02*
G54D17*
D03*
X355613Y-395544D02*
G54D17*
D03*
G54D18*
X355600Y-395684D02*
X355600Y-369888D01*
X382191Y-369888D01*
X402828Y-358378D01*
G54D18*
X428202Y-409192D02*
X428202Y-419523D01*
X415528Y-432197D01*
X367366Y-432197D01*
X355600Y-420431D01*
X359172Y-431006D02*
G54D19*
D03*
X359172Y-334962D02*
G54D19*
D03*
X376634Y-386160D02*
G54D20*
D03*
G54D18*
X281384Y-409575D02*
X293688Y-420291D01*
X328612Y-420291D01*
G54D18*
X328600Y-369631D02*
X292241Y-369631D01*
X281384Y-358775D01*
X309115Y-388936D02*
G54D21*
D03*
X290115Y-388936D02*
G54D22*
D03*
X311547Y-404813D02*
G54D19*
D03*
X303505Y-331505D02*
G54D21*
D03*
X284505Y-331505D02*
G54D22*
D03*
X311547Y-353616D02*
G54D19*
D03*
G54D23*
X311547Y-353616D02*
X303450Y-331619D01*
X327819Y-385366D02*
G54D19*
D03*
X327819Y-330994D02*
G54D19*
D03*
X327928Y-284846D02*
G54D24*
D03*
X327928Y-312846D02*
G54D24*
D03*
X300013Y-303980D02*
G54D25*
D03*
X300013Y-284980D02*
G54D25*
D03*
X383382Y-310703D02*
G54D26*
D03*
X383381Y-291703D02*
G54D25*
D03*
G54D27*
X328600Y-400844D02*
X328600Y-386147D01*
G54D28*
X327819Y-330994D02*
X327819Y-349262D01*
G54D29*
X327819Y-410369D02*
X317103Y-410369D01*
X311547Y-404812D01*
G54D29*
X328600Y-359838D02*
X318165Y-359838D01*
X311547Y-353616D01*
G54D23*
X303505Y-331505D02*
X300117Y-304084D01*
X300013Y-303980D01*
G54D18*
X300013Y-284930D02*
X327819Y-284956D01*
X356791Y-284956D01*
X401638Y-293291D01*
X428228Y-319881D01*
X428202Y-358392D01*
X356791Y-284956D02*
G54D30*
D03*
X356791Y-303956D02*
G54D31*
D03*
G54D18*
X327819Y-333772D02*
X327928Y-312846D01*
X327819Y-452835D02*
G54D19*
D03*
X380156Y-502046D02*
G54D21*
D03*
X361156Y-502046D02*
G54D21*
D03*
G54D18*
X311547Y-404813D02*
X309115Y-388936D01*
X244872Y-267493D02*
G54D24*
D03*
X272872Y-267493D02*
G54D24*
D03*
X245666Y-298450D02*
G54D32*
D03*
X273666Y-298450D02*
G54D32*
D03*
X245666Y-298450D02*
G54D21*
D03*
X264666Y-298450D02*
G54D21*
D03*
G54D23*
X300013Y-303980D02*
X279196Y-303980D01*
X273666Y-298450D01*
G36*
X445505Y-611043D02*
X445505Y-583043D01*
X473505Y-583043D01*
X473505Y-611043D01*
X445505Y-611043D01*
G37*
X484904Y-597043D02*
G54D33*
D03*
G54D18*
X484904Y-597043D02*
X484904Y-574201D01*
X475853Y-565150D01*
X443260Y-565150D01*
X380156Y-502046D01*
G54D18*
X327819Y-452835D02*
X327819Y-468709D01*
X361156Y-502046D01*
G54D23*
X273666Y-298450D02*
X273378Y-266987D01*
X272872Y-267493D01*
X230187Y-267494D02*
G54D19*
D03*
X229790Y-448866D02*
G54D20*
D03*
X162719Y-552053D02*
G54D20*
D03*
X106362Y-386556D02*
G54D20*
D03*
G36*
X604538Y-259857D02*
X604538Y-233857D01*
X630538Y-233857D01*
X630538Y-259857D01*
X604538Y-259857D01*
G37*
X617538Y-221457D02*
G54D19*
D03*
X617538Y-196057D02*
G54D19*
D03*
X617538Y-170656D02*
G54D19*
D03*
X617538Y-145257D02*
G54D19*
D03*
X617538Y-119857D02*
G54D19*
D03*
X617538Y-94457D02*
G54D19*
D03*
X617538Y-69057D02*
G54D19*
D03*
X617538Y-43657D02*
G54D19*
D03*
X500862Y-439335D02*
G54D10*
D03*
X454037Y-461160D02*
G54D10*
D03*
X454037Y-439335D02*
G54D10*
D03*
X454037Y-482986D02*
G54D10*
D03*
X500862Y-482986D02*
G54D10*
D03*
X482709Y-359678D02*
G54D24*
D03*
X482709Y-331678D02*
G54D24*
D03*
X482575Y-382216D02*
G54D25*
D03*
X482575Y-401216D02*
G54D25*
D03*
X509960Y-411534D02*
G54D30*
D03*
X509960Y-392534D02*
G54D30*
D03*
X529829Y-436562D02*
G54D21*
D03*
X548829Y-436562D02*
G54D21*
D03*
G54D18*
X453602Y-409192D02*
X480949Y-402842D01*
X482575Y-401216D01*
G54D18*
X509960Y-392534D02*
X497210Y-392534D01*
X482575Y-401216D01*
G54D18*
X482575Y-382216D02*
X482575Y-359812D01*
X482709Y-359678D01*
G54D18*
X500862Y-439335D02*
X500862Y-420631D01*
X509960Y-411534D01*
G54D18*
X500862Y-439335D02*
X527055Y-439335D01*
X529829Y-436562D01*
X500856Y-451247D02*
G54D30*
D03*
X500856Y-470247D02*
G54D31*
D03*
X408781Y-309166D02*
G54D30*
D03*
X408781Y-328166D02*
G54D31*
D03*
X574278Y-402034D02*
G54D34*
D03*
X551378Y-391834D02*
G54D34*
D03*
X551378Y-412234D02*
G54D34*
D03*
X453628Y-327422D02*
G54D20*
D03*
X543937Y-357188D02*
G54D24*
D03*
X515937Y-357187D02*
G54D24*
D03*
X598487Y-362744D02*
G54D34*
D03*
X575588Y-352543D02*
G54D34*
D03*
X575587Y-372944D02*
G54D34*
D03*
G54D18*
X543937Y-357188D02*
X543937Y-384394D01*
X551378Y-391834D01*
G54D18*
X551378Y-412234D02*
X551378Y-434013D01*
X548829Y-436562D01*
G54D18*
X574794Y-372944D02*
X570268Y-372944D01*
X551378Y-391834D01*
X601638Y-393725D02*
G54D25*
D03*
X601638Y-412725D02*
G54D25*
D03*
G54D18*
X597669Y-411534D02*
X583778Y-411534D01*
X574278Y-402034D01*
G54D18*
X597669Y-392534D02*
X597669Y-362768D01*
X597694Y-362744D01*
X591194Y-437562D02*
G54D35*
D03*
X572194Y-437562D02*
G54D35*
D03*
X623622Y-411534D02*
G54D25*
D03*
X623622Y-392534D02*
G54D25*
D03*
X619522Y-438150D02*
G54D30*
D03*
X619522Y-457150D02*
G54D31*
D03*
G54D18*
X572194Y-437562D02*
X549829Y-437562D01*
X548829Y-436562D01*
G54D18*
X591194Y-437562D02*
X618934Y-437562D01*
X619522Y-438150D01*
G54D18*
X623622Y-411534D02*
X623622Y-434050D01*
X619522Y-438150D01*
G54D18*
X623622Y-392534D02*
X597669Y-392534D01*
G54D36*
X574278Y-402034D02*
X574278Y-394891D01*
X587375Y-381794D01*
X587375Y-329406D01*
G54D14*
X653731Y-303213D02*
X633731Y-303213D01*
G54D14*
X653731Y-328613D02*
X633731Y-328613D01*
G54D14*
X653731Y-354013D02*
X633731Y-354013D01*
G36*
X577693Y-316985D02*
X598693Y-316985D01*
X598693Y-340985D01*
X577693Y-340985D01*
X577693Y-316985D01*
G37*
X607193Y-328985D02*
G54D22*
D03*
G54D18*
X597694Y-362744D02*
X643731Y-354013D01*
X555228Y-299243D02*
G54D24*
D03*
X583228Y-299243D02*
G54D24*
D03*
X540544Y-299244D02*
G54D19*
D03*
G54D18*
X588193Y-328985D02*
X588193Y-304208D01*
X583228Y-299243D01*
X643841Y-275540D02*
G54D24*
D03*
X615841Y-275540D02*
G54D24*
D03*
G36*
X669715Y-290581D02*
X690715Y-290581D01*
X690715Y-314581D01*
X669715Y-314581D01*
X669715Y-290581D01*
G37*
X699215Y-302581D02*
G54D22*
D03*
G54D18*
X643841Y-275540D02*
X643841Y-303103D01*
X643731Y-303213D01*
X679583Y-303213D01*
X680215Y-302581D01*
G54D18*
X617538Y-246857D02*
X617538Y-273843D01*
X615841Y-275540D01*
G36*
X634446Y-209432D02*
X655446Y-209432D01*
X655446Y-233432D01*
X634446Y-233432D01*
X634446Y-209432D01*
G37*
X663946Y-221432D02*
G54D22*
D03*
G54D18*
X617538Y-221457D02*
X644921Y-221457D01*
X644946Y-221432D01*
X648071Y-192459D02*
G54D30*
D03*
X648072Y-173459D02*
G54D30*
D03*
X568481Y-196056D02*
G54D35*
D03*
G36*
X576981Y-185056D02*
X597981Y-185056D01*
X597982Y-207056D01*
X576982Y-207056D01*
X576981Y-185056D01*
G37*
G54D18*
X587481Y-196056D02*
X617538Y-196057D01*
X648071Y-192459D01*
G54D18*
X617538Y-170656D02*
X648072Y-173459D01*
X541049Y-270778D02*
G54D24*
D03*
X541049Y-242778D02*
G54D24*
D03*
G54D18*
X540544Y-299244D02*
X540544Y-271283D01*
X541049Y-270778D01*
G54D18*
X573484Y-253603D02*
X541049Y-242778D01*
X541049Y-215104D01*
X536972Y-202406D01*
G54D18*
X617538Y-119857D02*
X573484Y-101203D01*
X536972Y-151606D01*
X538930Y-222225D02*
G54D21*
D03*
X519930Y-222225D02*
G54D22*
D03*
G54D18*
X536972Y-151606D02*
X485775Y-127794D01*
X485775Y-127794D02*
G54D19*
D03*
G36*
X710617Y-610249D02*
X710617Y-582249D01*
X738617Y-582249D01*
X738617Y-610249D01*
X710617Y-610249D01*
G37*
X699217Y-596249D02*
G54D33*
D03*
X699665Y-486146D02*
G54D30*
D03*
X699665Y-467146D02*
G54D30*
D03*
G36*
X688765Y-508862D02*
X709765Y-508862D01*
X709765Y-532862D01*
X688765Y-532862D01*
X688765Y-508862D01*
G37*
X718265Y-520862D02*
G54D22*
D03*
G54D18*
X699665Y-486146D02*
X700197Y-540831D01*
G54D18*
X699665Y-467146D02*
X699665Y-420316D01*
X725884Y-394097D01*
X725884Y-129778D01*
X690562Y-94456D01*
X642937Y-94456D01*
X617538Y-69057D01*
X573484Y-101203D02*
G54D37*
D03*
X573484Y-253603D02*
G54D37*
D03*
X536972Y-151606D02*
G54D13*
D03*
X536972Y-202406D02*
G54D13*
D03*
G54D18*
X568481Y-196056D02*
X543323Y-196056D01*
X536972Y-202406D01*
X619919Y-329406D02*
G54D20*
D03*
X561975Y-470297D02*
G54D20*
D03*
G54D18*
X617538Y-43657D02*
X687785Y-43657D01*
X687785Y-43657D02*
G54D19*
D03*
G54D38*
X221330Y-167385D02*
X244330Y-167385D01*
G54D38*
X221330Y-192785D02*
X244330Y-192785D01*
G54D38*
X221330Y-218185D02*
X244330Y-218185D01*
G54D39*
G75*
G01X653731Y-303213D02*
G03X653731Y-303213I-10000J0D01*
G01*
G36*
G75*
G01X653731Y-303213D02*
G03X653731Y-303213I-10000J0D01*
G01*
G37*
X653731Y-303213D01*
X700197Y-540831D02*
G54D24*
D03*
X700197Y-568831D02*
G54D24*
D03*
G54D18*
X699217Y-596249D02*
X700197Y-568831D01*
X129778Y-75803D02*
G54D20*
D03*
X129778Y-302816D02*
G54D20*
D03*
X298053Y-261144D02*
G54D20*
D03*
G54D15*
X417840Y-131525D02*
X412840Y-126525D01*
X412840Y-139858D01*
G54D15*
X408173Y-129025D02*
X407173Y-127358D01*
X405173Y-126525D01*
X403173Y-126525D01*
X401173Y-127358D01*
X400173Y-129025D01*
X400173Y-130692D01*
X401173Y-132358D01*
X403173Y-133192D01*
X401173Y-134025D01*
X400173Y-135692D01*
X400173Y-137358D01*
X401173Y-139025D01*
X403173Y-139858D01*
X405173Y-139858D01*
X407173Y-139025D01*
X408173Y-137358D01*
G54D15*
X389506Y-139858D02*
X389506Y-126525D01*
X395506Y-134858D01*
X395506Y-136525D01*
X387506Y-136525D01*
G54D15*
X382839Y-139858D02*
X382839Y-126525D01*
G54D15*
X379839Y-134858D02*
X376839Y-139858D01*
G54D15*
X382839Y-136525D02*
X376839Y-132358D01*
G54D15*
X364172Y-129025D02*
X364172Y-137358D01*
X365172Y-139025D01*
X367172Y-139858D01*
X369172Y-139858D01*
X371172Y-139025D01*
X372172Y-137358D01*
X372172Y-129025D01*
X371172Y-127358D01*
X369172Y-126525D01*
X367172Y-126525D01*
X365172Y-127358D01*
X364172Y-129025D01*
G54D15*
X359505Y-129025D02*
X358505Y-127358D01*
X356505Y-126525D01*
X354505Y-126525D01*
X352505Y-127358D01*
X351505Y-129025D01*
X351505Y-130692D01*
X352505Y-132358D01*
X354505Y-133192D01*
X352505Y-134025D01*
X351505Y-135692D01*
X351505Y-137358D01*
X352505Y-139025D01*
X354505Y-139858D01*
X356505Y-139858D01*
X358505Y-139025D01*
X359505Y-137358D01*
G54D15*
X444034Y-93981D02*
X444034Y-104814D01*
X443034Y-106481D01*
X441034Y-107314D01*
X439034Y-107314D01*
X437034Y-106481D01*
X436034Y-104814D01*
X436034Y-93981D01*
G54D15*
X431367Y-107314D02*
X431367Y-93981D01*
X426367Y-93981D01*
X424367Y-94814D01*
X423367Y-96481D01*
X423367Y-104814D01*
X424367Y-106481D01*
X426367Y-107314D01*
X431367Y-107314D01*
G54D15*
X410700Y-96481D02*
X410700Y-104814D01*
X411700Y-106481D01*
X413700Y-107314D01*
X415700Y-107314D01*
X417700Y-106481D01*
X418700Y-104814D01*
X418700Y-96481D01*
X417700Y-94814D01*
X415700Y-93981D01*
X413700Y-93981D01*
X411700Y-94814D01*
X410700Y-96481D01*
G54D15*
X398033Y-104814D02*
X399033Y-106481D01*
X401033Y-107314D01*
X403033Y-107314D01*
X405033Y-106481D01*
X406033Y-104814D01*
X406033Y-96481D01*
X405033Y-94814D01*
X403033Y-93981D01*
X401033Y-93981D01*
X399033Y-94814D01*
X398033Y-96481D01*
G54D15*
X393366Y-107314D02*
X388366Y-93981D01*
X383366Y-107314D01*
G54D15*
X391366Y-102314D02*
X385366Y-102314D01*
G54D15*
X370699Y-93981D02*
X370699Y-104814D01*
X371699Y-106481D01*
X373699Y-107314D01*
X375699Y-107314D01*
X377699Y-106481D01*
X378699Y-104814D01*
G54D15*
X366032Y-107314D02*
X356032Y-107314D01*
G54D15*
X349365Y-93981D02*
X349365Y-106481D01*
X348365Y-107314D01*
X347365Y-106981D01*
G54D15*
X351365Y-99814D02*
X347365Y-99814D01*
G54D15*
X336698Y-106481D02*
X338298Y-107314D01*
X340298Y-107314D01*
X342298Y-106481D01*
X342698Y-104814D01*
X342698Y-101981D01*
X341698Y-100314D01*
X339698Y-99814D01*
X337698Y-100314D01*
X336698Y-101481D01*
X336698Y-103148D01*
X342698Y-103148D01*
G54D15*
X332031Y-106481D02*
X330031Y-107314D01*
X328031Y-107314D01*
X326031Y-106481D01*
X326031Y-104814D01*
X327031Y-103981D01*
X331031Y-103148D01*
X332031Y-102314D01*
X332031Y-100648D01*
X330031Y-99814D01*
X328031Y-99814D01*
X326031Y-100648D01*
G54D15*
X319364Y-93981D02*
X319364Y-106481D01*
X318364Y-107314D01*
X317364Y-106981D01*
G54D15*
X321364Y-99814D02*
X317364Y-99814D01*
G54D15*
X430937Y-170418D02*
X430937Y-157084D01*
X425937Y-157084D01*
X423937Y-157918D01*
X422937Y-159584D01*
X422937Y-161251D01*
X423937Y-162918D01*
X425937Y-163751D01*
X423937Y-164584D01*
X422937Y-166251D01*
X422937Y-167918D01*
X423937Y-169584D01*
X425937Y-170418D01*
X430937Y-170418D01*
G54D15*
X430937Y-163751D02*
X425937Y-163751D01*
G54D15*
X410270Y-159584D02*
X410270Y-167918D01*
X411270Y-169584D01*
X413270Y-170418D01*
X415270Y-170418D01*
X417270Y-169584D01*
X418270Y-167918D01*
X418270Y-159584D01*
X417270Y-157918D01*
X415270Y-157084D01*
X413270Y-157084D01*
X411270Y-157918D01*
X410270Y-159584D01*
G54D15*
X401603Y-170418D02*
X401603Y-157084D01*
G54D15*
X405603Y-157084D02*
X397603Y-157084D01*
G54D15*
X388936Y-170418D02*
X388936Y-157084D01*
G54D15*
X392936Y-157084D02*
X384936Y-157084D01*
G54D15*
X372269Y-159584D02*
X372269Y-167918D01*
X373269Y-169584D01*
X375269Y-170418D01*
X377269Y-170418D01*
X379269Y-169584D01*
X380269Y-167918D01*
X380269Y-159584D01*
X379269Y-157918D01*
X377269Y-157084D01*
X375269Y-157084D01*
X373269Y-157918D01*
X372269Y-159584D01*
G54D15*
X367602Y-170418D02*
X367602Y-157084D01*
X362602Y-165418D01*
X357602Y-157084D01*
X357602Y-170418D01*
%LPD*%
G54D40*
G36*
X153675Y-518710D02*
X153675Y-506210D01*
X168555Y-506210D01*
X168555Y-518710D01*
X153675Y-518710D01*
G37*
G36*
X168555Y-518710D02*
X168555Y-531210D01*
X153675Y-531210D01*
X153675Y-518710D01*
X168555Y-518710D01*
G37*
G54D40*
G36*
X139302Y-378315D02*
X151802Y-378315D01*
X151802Y-393195D01*
X139302Y-393195D01*
X139302Y-378315D01*
G37*
G36*
X139302Y-393195D02*
X126802Y-393195D01*
X126802Y-378315D01*
X139302Y-378315D01*
X139302Y-393195D01*
G37*
G54D40*
G36*
X45736Y-518711D02*
X45736Y-506211D01*
X60616Y-506211D01*
X60616Y-518711D01*
X45736Y-518711D01*
G37*
G36*
X60616Y-518711D02*
X60616Y-531211D01*
X45736Y-531211D01*
X45736Y-518711D01*
X60616Y-518711D01*
G37*
G54D29*
G36*
X228463Y-407454D02*
X238009Y-397908D01*
X242252Y-402150D01*
X232706Y-411696D01*
X228463Y-407454D01*
G37*
G36*
X232706Y-407454D02*
X242252Y-417000D01*
X238009Y-421242D01*
X228463Y-411696D01*
X232706Y-407454D01*
G37*
G36*
X232706Y-411696D02*
X223160Y-421242D01*
X218917Y-417000D01*
X228463Y-407454D01*
X232706Y-411696D01*
G37*
G36*
X228463Y-411696D02*
X218917Y-402150D01*
X223160Y-397908D01*
X232706Y-407454D01*
X228463Y-411696D01*
G37*
G54D29*
G36*
X355600Y-356837D02*
X365600Y-356837D01*
X365600Y-362837D01*
X355600Y-362837D01*
X355600Y-356837D01*
G37*
G36*
X355600Y-362837D02*
X345600Y-362837D01*
X345600Y-356837D01*
X355600Y-356837D01*
X355600Y-362837D01*
G37*
G54D29*
G36*
X455723Y-360513D02*
X446177Y-370059D01*
X441934Y-365817D01*
X451480Y-356271D01*
X455723Y-360513D01*
G37*
G36*
X451480Y-360513D02*
X441934Y-350968D01*
X446177Y-346725D01*
X455723Y-356271D01*
X451480Y-360513D01*
G37*
G36*
X451480Y-356271D02*
X461026Y-346725D01*
X465269Y-350968D01*
X455723Y-360513D01*
X451480Y-356271D01*
G37*
G36*
X455723Y-356271D02*
X465269Y-365817D01*
X461026Y-370059D01*
X451480Y-360513D01*
X455723Y-356271D01*
G37*
G54D29*
G36*
X355613Y-407497D02*
X365613Y-407497D01*
X365613Y-413497D01*
X355613Y-413497D01*
X355613Y-407497D01*
G37*
G36*
X355613Y-413497D02*
X345613Y-413497D01*
X345613Y-407497D01*
X355613Y-407497D01*
X355613Y-413497D01*
G37*
G54D41*
G36*
X459505Y-600376D02*
X445005Y-600376D01*
X445005Y-593710D01*
X459505Y-593710D01*
X459505Y-600376D01*
G37*
G36*
X456171Y-597043D02*
X456171Y-582543D01*
X462838Y-582543D01*
X462838Y-597043D01*
X456171Y-597043D01*
G37*
G36*
X462838Y-597043D02*
X462838Y-611543D01*
X456171Y-611543D01*
X456171Y-597043D01*
X462838Y-597043D01*
G37*
G54D29*
G36*
X615417Y-147378D02*
X605871Y-137832D01*
X610113Y-133590D01*
X619659Y-143136D01*
X615417Y-147378D01*
G37*
G36*
X615417Y-143136D02*
X624963Y-133590D01*
X629205Y-137832D01*
X619659Y-147378D01*
X615417Y-143136D01*
G37*
G36*
X619659Y-143136D02*
X629205Y-152682D01*
X624963Y-156924D01*
X615417Y-147378D01*
X619659Y-143136D01*
G37*
G36*
X619659Y-147378D02*
X610113Y-156924D01*
X605871Y-152682D01*
X615417Y-143136D01*
X619659Y-147378D01*
G37*
G54D40*
G36*
X454037Y-453720D02*
X466537Y-453720D01*
X466537Y-468600D01*
X454037Y-468600D01*
X454037Y-453720D01*
G37*
G36*
X454037Y-468600D02*
X441537Y-468600D01*
X441537Y-453720D01*
X454037Y-453720D01*
X454037Y-468600D01*
G37*
G54D29*
G36*
X500862Y-479986D02*
X513362Y-479986D01*
X513362Y-485986D01*
X500862Y-485986D01*
X500862Y-479986D01*
G37*
G36*
X503862Y-482986D02*
X503862Y-495486D01*
X497862Y-495486D01*
X497862Y-482986D01*
X503862Y-482986D01*
G37*
G36*
X500862Y-485986D02*
X488362Y-485986D01*
X488362Y-479986D01*
X500862Y-479986D01*
X500862Y-485986D01*
G37*
G36*
X497862Y-482986D02*
X497862Y-470486D01*
X503862Y-470486D01*
X503862Y-482986D01*
X497862Y-482986D01*
G37*
G54D42*
G36*
X482709Y-334345D02*
X470209Y-334345D01*
X470209Y-329012D01*
X482709Y-329012D01*
X482709Y-334345D01*
G37*
G36*
X480043Y-331678D02*
X480043Y-319178D01*
X485376Y-319178D01*
X485376Y-331678D01*
X480043Y-331678D01*
G37*
G36*
X482709Y-329012D02*
X495209Y-329012D01*
X495209Y-334345D01*
X482709Y-334345D01*
X482709Y-329012D01*
G37*
G36*
X485376Y-331678D02*
X485376Y-344178D01*
X480043Y-344178D01*
X480043Y-331678D01*
X485376Y-331678D01*
G37*
G54D42*
G36*
X518604Y-357187D02*
X518604Y-369687D01*
X513271Y-369687D01*
X513271Y-357187D01*
X518604Y-357187D01*
G37*
G36*
X515937Y-359854D02*
X503437Y-359854D01*
X503437Y-354521D01*
X515937Y-354521D01*
X515937Y-359854D01*
G37*
G36*
X513271Y-357187D02*
X513271Y-344687D01*
X518604Y-344687D01*
X518604Y-357187D01*
X513271Y-357187D01*
G37*
G36*
X515937Y-354521D02*
X528437Y-354521D01*
X528437Y-359854D01*
X515937Y-359854D01*
X515937Y-354521D01*
G37*
G54D43*
G36*
X577288Y-352543D02*
X577288Y-362143D01*
X573888Y-362143D01*
X573888Y-352543D01*
X577288Y-352543D01*
G37*
G36*
X575588Y-354243D02*
X564988Y-354243D01*
X564988Y-350843D01*
X575588Y-350843D01*
X575588Y-354243D01*
G37*
G36*
X573888Y-352543D02*
X573888Y-342943D01*
X577288Y-342943D01*
X577288Y-352543D01*
X573888Y-352543D01*
G37*
G54D44*
G36*
X643731Y-318613D02*
X668231Y-318613D01*
X668231Y-338613D01*
X643731Y-338613D01*
X643731Y-318613D01*
G37*
G36*
X643731Y-338613D02*
X619231Y-338613D01*
X619231Y-318613D01*
X643731Y-318613D01*
X643731Y-338613D01*
G37*
G54D41*
G36*
X721284Y-596249D02*
X721284Y-581749D01*
X727950Y-581749D01*
X727950Y-596249D01*
X721284Y-596249D01*
G37*
G36*
X724617Y-592916D02*
X739117Y-592916D01*
X739117Y-599582D01*
X724617Y-599582D01*
X724617Y-592916D01*
G37*
G36*
X727950Y-596249D02*
X727950Y-610749D01*
X721284Y-610749D01*
X721284Y-596249D01*
X727950Y-596249D01*
G37*
X139290Y-471886D02*
G54D20*
D03*
X161115Y-518710D02*
G54D20*
D03*
X139290Y-518710D02*
G54D20*
D03*
X182940Y-518710D02*
G54D20*
D03*
X182940Y-471886D02*
G54D20*
D03*
X42465Y-589756D02*
G54D11*
D03*
X64690Y-40481D02*
G54D11*
D03*
X186127Y-363930D02*
G54D20*
D03*
X139302Y-385755D02*
G54D20*
D03*
X139302Y-363930D02*
G54D20*
D03*
X139302Y-407580D02*
G54D20*
D03*
X186128Y-407580D02*
G54D20*
D03*
X31351Y-471886D02*
G54D20*
D03*
X53176Y-518711D02*
G54D20*
D03*
X31351Y-518711D02*
G54D20*
D03*
X75001Y-518711D02*
G54D20*
D03*
X75001Y-471886D02*
G54D20*
D03*
X31354Y-365125D02*
G54D45*
D03*
X31354Y-415925D02*
G54D45*
D03*
G54D44*
X31354Y-415925D02*
X31351Y-471886D01*
G54D44*
X75001Y-471886D02*
X139290Y-471886D01*
G54D44*
X182940Y-471886D02*
X186128Y-407580D01*
G54D44*
X186134Y-363934D02*
X230584Y-358775D01*
X281384Y-409575D02*
G54D46*
D03*
X230584Y-358775D02*
G54D46*
D03*
X281384Y-358775D02*
G54D46*
D03*
X230584Y-409575D02*
G54D46*
D03*
X355600Y-350044D02*
G54D47*
D03*
X328600Y-350044D02*
G54D47*
D03*
X355600Y-359837D02*
G54D47*
D03*
X328600Y-359838D02*
G54D47*
D03*
X355600Y-369631D02*
G54D47*
D03*
X328600Y-369631D02*
G54D47*
D03*
X355600Y-344884D02*
G54D47*
D03*
X428202Y-358392D02*
G54D46*
D03*
X402802Y-358392D02*
G54D46*
D03*
X453602Y-409192D02*
G54D46*
D03*
X428202Y-409192D02*
G54D46*
D03*
X402802Y-409192D02*
G54D46*
D03*
X453602Y-358392D02*
G54D46*
D03*
G54D29*
X428202Y-358392D02*
X402802Y-409192D01*
X355613Y-400703D02*
G54D47*
D03*
X328613Y-400703D02*
G54D47*
D03*
X355613Y-410497D02*
G54D47*
D03*
X328613Y-410497D02*
G54D47*
D03*
X355613Y-420291D02*
G54D47*
D03*
X328612Y-420291D02*
G54D47*
D03*
X355613Y-395544D02*
G54D47*
D03*
G54D29*
X355600Y-395684D02*
X355600Y-369888D01*
X382191Y-369888D01*
X402828Y-358378D01*
G54D29*
X428202Y-409192D02*
X428202Y-419523D01*
X415528Y-432197D01*
X367366Y-432197D01*
X355600Y-420431D01*
X359172Y-431006D02*
G54D20*
D03*
X359172Y-334962D02*
G54D20*
D03*
X376634Y-386160D02*
G54D20*
D03*
G54D29*
X281384Y-409575D02*
X293688Y-420291D01*
X328612Y-420291D01*
G54D29*
X328600Y-369631D02*
X292241Y-369631D01*
X281384Y-358775D01*
X309115Y-388936D02*
G54D22*
D03*
X290115Y-388936D02*
G54D22*
D03*
X311547Y-404813D02*
G54D20*
D03*
X303505Y-331505D02*
G54D22*
D03*
X284505Y-331505D02*
G54D22*
D03*
X311547Y-353616D02*
G54D20*
D03*
G54D48*
X311547Y-353616D02*
X303450Y-331619D01*
X327819Y-385366D02*
G54D20*
D03*
X327819Y-330994D02*
G54D20*
D03*
X327928Y-284846D02*
G54D49*
D03*
X327928Y-312846D02*
G54D49*
D03*
X300013Y-303980D02*
G54D26*
D03*
X300013Y-284980D02*
G54D26*
D03*
X383382Y-310703D02*
G54D26*
D03*
X383381Y-291703D02*
G54D26*
D03*
G54D27*
X328600Y-400844D02*
X328600Y-386147D01*
G54D27*
X327819Y-330994D02*
X327819Y-349262D01*
G54D29*
X327819Y-410369D02*
X317103Y-410369D01*
X311547Y-404812D01*
G54D29*
X328600Y-359838D02*
X318165Y-359838D01*
X311547Y-353616D01*
G54D48*
X303505Y-331505D02*
X300117Y-304084D01*
X300013Y-303980D01*
G54D29*
X300013Y-284930D02*
X327819Y-284956D01*
X356791Y-284956D01*
X401638Y-293291D01*
X428228Y-319881D01*
X428202Y-358392D01*
X356791Y-284956D02*
G54D31*
D03*
X356791Y-303956D02*
G54D31*
D03*
G54D29*
X327819Y-333772D02*
X327928Y-312846D01*
X327819Y-452835D02*
G54D20*
D03*
X380156Y-502046D02*
G54D22*
D03*
X361156Y-502046D02*
G54D22*
D03*
G54D29*
X311547Y-404813D02*
X309115Y-388936D01*
X244872Y-267493D02*
G54D49*
D03*
X272872Y-267493D02*
G54D49*
D03*
X245666Y-298450D02*
G54D50*
D03*
X273666Y-298450D02*
G54D50*
D03*
X245666Y-298450D02*
G54D22*
D03*
X264666Y-298450D02*
G54D22*
D03*
G54D48*
X300013Y-303980D02*
X279196Y-303980D01*
X273666Y-298450D01*
G36*
X449505Y-607043D02*
X449505Y-587043D01*
X469505Y-587043D01*
X469505Y-607043D01*
X449505Y-607043D01*
G37*
X484904Y-597043D02*
G54D51*
D03*
G54D29*
X484904Y-597043D02*
X484904Y-574201D01*
X475853Y-565150D01*
X443260Y-565150D01*
X380156Y-502046D01*
G54D29*
X327819Y-452835D02*
X327819Y-468709D01*
X361156Y-502046D01*
G54D48*
X273666Y-298450D02*
X273378Y-266987D01*
X272872Y-267493D01*
X230187Y-267494D02*
G54D20*
D03*
X229790Y-448866D02*
G54D20*
D03*
X162719Y-552053D02*
G54D20*
D03*
X106362Y-386556D02*
G54D20*
D03*
G36*
X608538Y-255857D02*
X608538Y-237857D01*
X626538Y-237857D01*
X626538Y-255857D01*
X608538Y-255857D01*
G37*
X617538Y-221457D02*
G54D20*
D03*
X617538Y-196057D02*
G54D20*
D03*
X617538Y-170656D02*
G54D20*
D03*
X617538Y-145257D02*
G54D20*
D03*
X617538Y-119857D02*
G54D20*
D03*
X617538Y-94457D02*
G54D20*
D03*
X617538Y-69057D02*
G54D20*
D03*
X617538Y-43657D02*
G54D20*
D03*
X500862Y-439335D02*
G54D20*
D03*
X454037Y-461160D02*
G54D20*
D03*
X454037Y-439335D02*
G54D20*
D03*
X454037Y-482986D02*
G54D20*
D03*
X500862Y-482986D02*
G54D20*
D03*
X482709Y-359678D02*
G54D49*
D03*
X482709Y-331678D02*
G54D49*
D03*
X482575Y-382216D02*
G54D26*
D03*
X482575Y-401216D02*
G54D26*
D03*
X509960Y-411534D02*
G54D31*
D03*
X509960Y-392534D02*
G54D31*
D03*
X529829Y-436562D02*
G54D22*
D03*
X548829Y-436562D02*
G54D22*
D03*
G54D29*
X453602Y-409192D02*
X480949Y-402842D01*
X482575Y-401216D01*
G54D29*
X509960Y-392534D02*
X497210Y-392534D01*
X482575Y-401216D01*
G54D29*
X482575Y-382216D02*
X482575Y-359812D01*
X482709Y-359678D01*
G54D29*
X500862Y-439335D02*
X500862Y-420631D01*
X509960Y-411534D01*
G54D29*
X500862Y-439335D02*
X527055Y-439335D01*
X529829Y-436562D01*
X500856Y-451247D02*
G54D31*
D03*
X500856Y-470247D02*
G54D31*
D03*
X408781Y-309166D02*
G54D31*
D03*
X408781Y-328166D02*
G54D31*
D03*
X574278Y-402034D02*
G54D52*
D03*
X551378Y-391834D02*
G54D52*
D03*
X551378Y-412234D02*
G54D52*
D03*
X453628Y-327422D02*
G54D20*
D03*
X543937Y-357188D02*
G54D49*
D03*
X515937Y-357187D02*
G54D49*
D03*
X598487Y-362744D02*
G54D52*
D03*
X575588Y-352543D02*
G54D52*
D03*
X575587Y-372944D02*
G54D52*
D03*
G54D29*
X543937Y-357188D02*
X543937Y-384394D01*
X551378Y-391834D01*
G54D29*
X551378Y-412234D02*
X551378Y-434013D01*
X548829Y-436562D01*
G54D29*
X574794Y-372944D02*
X570268Y-372944D01*
X551378Y-391834D01*
X601638Y-393725D02*
G54D26*
D03*
X601638Y-412725D02*
G54D26*
D03*
G54D29*
X597669Y-411534D02*
X583778Y-411534D01*
X574278Y-402034D01*
G54D29*
X597669Y-392534D02*
X597669Y-362768D01*
X597694Y-362744D01*
X591194Y-437562D02*
G54D53*
D03*
X572194Y-437562D02*
G54D53*
D03*
X623622Y-411534D02*
G54D26*
D03*
X623622Y-392534D02*
G54D26*
D03*
X619522Y-438150D02*
G54D31*
D03*
X619522Y-457150D02*
G54D31*
D03*
G54D29*
X572194Y-437562D02*
X549829Y-437562D01*
X548829Y-436562D01*
G54D29*
X591194Y-437562D02*
X618934Y-437562D01*
X619522Y-438150D01*
G54D29*
X623622Y-411534D02*
X623622Y-434050D01*
X619522Y-438150D01*
G54D29*
X623622Y-392534D02*
X597669Y-392534D01*
G54D54*
X574278Y-402034D02*
X574278Y-394891D01*
X587375Y-381794D01*
X587375Y-329406D01*
G54D44*
X653731Y-303213D02*
X633731Y-303213D01*
G54D44*
X653731Y-328613D02*
X633731Y-328613D01*
G54D44*
X653731Y-354013D02*
X633731Y-354013D01*
G36*
X581693Y-320985D02*
X594693Y-320985D01*
X594693Y-336985D01*
X581693Y-336985D01*
X581693Y-320985D01*
G37*
X607193Y-328985D02*
G54D22*
D03*
G54D29*
X597694Y-362744D02*
X643731Y-354013D01*
X555228Y-299243D02*
G54D49*
D03*
X583228Y-299243D02*
G54D49*
D03*
X540544Y-299244D02*
G54D20*
D03*
G54D29*
X588193Y-328985D02*
X588193Y-304208D01*
X583228Y-299243D01*
X643841Y-275540D02*
G54D49*
D03*
X615841Y-275540D02*
G54D49*
D03*
G36*
X673715Y-294581D02*
X686715Y-294581D01*
X686715Y-310581D01*
X673715Y-310581D01*
X673715Y-294581D01*
G37*
X699215Y-302581D02*
G54D22*
D03*
G54D29*
X643841Y-275540D02*
X643841Y-303103D01*
X643731Y-303213D01*
X679583Y-303213D01*
X680215Y-302581D01*
G54D29*
X617538Y-246857D02*
X617538Y-273843D01*
X615841Y-275540D01*
G36*
X638446Y-213432D02*
X651446Y-213432D01*
X651446Y-229432D01*
X638446Y-229432D01*
X638446Y-213432D01*
G37*
X663946Y-221432D02*
G54D22*
D03*
G54D29*
X617538Y-221457D02*
X644921Y-221457D01*
X644946Y-221432D01*
X648071Y-192459D02*
G54D31*
D03*
X648072Y-173459D02*
G54D31*
D03*
X568481Y-196056D02*
G54D53*
D03*
G36*
X580981Y-189056D02*
X593981Y-189056D01*
X593982Y-203056D01*
X580982Y-203056D01*
X580981Y-189056D01*
G37*
G54D29*
X587481Y-196056D02*
X617538Y-196057D01*
X648071Y-192459D01*
G54D29*
X617538Y-170656D02*
X648072Y-173459D01*
X541049Y-270778D02*
G54D49*
D03*
X541049Y-242778D02*
G54D49*
D03*
G54D29*
X540544Y-299244D02*
X540544Y-271283D01*
X541049Y-270778D01*
G54D29*
X573484Y-253603D02*
X541049Y-242778D01*
X541049Y-215104D01*
X536972Y-202406D01*
G54D29*
X617538Y-119857D02*
X573484Y-101203D01*
X536972Y-151606D01*
X538930Y-222225D02*
G54D22*
D03*
X519930Y-222225D02*
G54D22*
D03*
G54D29*
X536972Y-151606D02*
X485775Y-127794D01*
X485775Y-127794D02*
G54D20*
D03*
G36*
X714617Y-606249D02*
X714617Y-586249D01*
X734617Y-586249D01*
X734617Y-606249D01*
X714617Y-606249D01*
G37*
X699217Y-596249D02*
G54D51*
D03*
X699665Y-486146D02*
G54D31*
D03*
X699665Y-467146D02*
G54D31*
D03*
G36*
X692765Y-512862D02*
X705765Y-512862D01*
X705765Y-528862D01*
X692765Y-528862D01*
X692765Y-512862D01*
G37*
X718265Y-520862D02*
G54D22*
D03*
G54D29*
X699665Y-486146D02*
X700197Y-540831D01*
G54D29*
X699665Y-467146D02*
X699665Y-420316D01*
X725884Y-394097D01*
X725884Y-129778D01*
X690562Y-94456D01*
X642937Y-94456D01*
X617538Y-69057D01*
X573484Y-101203D02*
G54D33*
D03*
X573484Y-253603D02*
G54D33*
D03*
X536972Y-151606D02*
G54D45*
D03*
X536972Y-202406D02*
G54D45*
D03*
G54D29*
X568481Y-196056D02*
X543323Y-196056D01*
X536972Y-202406D01*
X619919Y-329406D02*
G54D20*
D03*
X561975Y-470297D02*
G54D20*
D03*
G54D29*
X617538Y-43657D02*
X687785Y-43657D01*
X687785Y-43657D02*
G54D20*
D03*
G54D55*
X221330Y-167385D02*
X244330Y-167385D01*
G54D55*
X221330Y-192785D02*
X244330Y-192785D01*
G54D55*
X221330Y-218185D02*
X244330Y-218185D01*
X700197Y-540831D02*
G54D49*
D03*
X700197Y-568831D02*
G54D49*
D03*
G54D29*
X699217Y-596249D02*
X700197Y-568831D01*
X129778Y-75803D02*
G54D20*
D03*
X129778Y-302816D02*
G54D20*
D03*
X298053Y-261144D02*
G54D20*
D03*
M02*
