%FSLAX34Y34*%
%MOMM*%
%LNCOPPER_TOP*%
G71*
G01*
%ADD10C, 6.000*%
%ADD11C, 0.222*%
%ADD12C, 4.000*%
%ADD13C, 3.800*%
%ADD14C, 0.500*%
%ADD15C, 0.600*%
%ADD16C, 0.167*%
%ADD17C, 0.700*%
%ADD18C, 2.700*%
%ADD19C, 2.600*%
%ADD20C, 2.400*%
%ADD21C, 1.400*%
%ADD22C, 1.800*%
%ADD23C, 0.300*%
%ADD24R, 2.800X2.400*%
%ADD25R, 2.100X2.400*%
%ADD26R, 2.400X2.100*%
%ADD27C, 1.000*%
%ADD28C, 2.800*%
%ADD29C, 2.400*%
%ADD30R, 2.070X1.450*%
%ADD31R, 2.100X2.200*%
%ADD32R, 2.400X2.400*%
%ADD33R, 2.400X2.800*%
%ADD34C, 3.600*%
%ADD35C, 0.433*%
%ADD36C, 0.667*%
%ADD37C, 1.488*%
%ADD38C, 0.650*%
%ADD39C, 0.533*%
%ADD40C, 3.000*%
%ADD41C, 1.900*%
%ADD42R, 2.000X1.600*%
%ADD43R, 1.300X1.600*%
%ADD44R, 1.600X1.300*%
%ADD45C, 2.000*%
%ADD46R, 1.270X0.650*%
%ADD47R, 1.300X1.400*%
%ADD48R, 1.600X1.600*%
%ADD49R, 1.600X2.000*%
%ADD50C, 3.000*%
%ADD51C, 0.800*%
%LPD*%
G36*
X0Y0D02*
X745000Y0D01*
X745000Y-806000D01*
X0Y-806000D01*
X0Y0D01*
G37*
%LPC*%
X663575Y-44847D02*
G54D10*
D03*
X663575Y-758031D02*
G54D10*
D03*
G54D11*
X424900Y-289087D02*
X424900Y-271309D01*
G54D11*
X419567Y-271309D02*
X430233Y-271309D01*
G54D11*
X443123Y-286420D02*
X443123Y-281976D01*
X441789Y-279754D01*
X439123Y-279087D01*
X436456Y-279754D01*
X435123Y-281976D01*
X435123Y-286420D01*
X436456Y-288642D01*
X439123Y-289087D01*
X441789Y-288642D01*
X443123Y-286420D01*
G54D11*
X448012Y-279087D02*
X448012Y-293531D01*
G54D11*
X448012Y-285754D02*
X449345Y-288642D01*
X452012Y-289087D01*
X454678Y-288642D01*
X456012Y-286420D01*
X456012Y-281976D01*
X454678Y-279754D01*
X452012Y-279087D01*
X449345Y-279754D01*
X448012Y-282420D01*
G54D11*
X471390Y-289087D02*
X471390Y-271309D01*
G54D11*
X466057Y-271309D02*
X476723Y-271309D01*
G54D11*
X481613Y-271309D02*
X494946Y-289087D01*
G54D11*
X481613Y-289087D02*
X494946Y-271309D01*
X550863Y-692547D02*
G54D12*
D03*
X527050Y-727075D02*
G54D13*
D03*
G54D11*
X526033Y-648336D02*
X530033Y-650558D01*
X531367Y-652780D01*
X531367Y-657225D01*
G54D11*
X520700Y-657225D02*
X520700Y-639447D01*
X527367Y-639447D01*
X530033Y-640558D01*
X531367Y-642780D01*
X531367Y-645003D01*
X530033Y-647225D01*
X527367Y-648336D01*
X520700Y-648336D01*
G54D11*
X536256Y-657225D02*
X536256Y-639447D01*
X545589Y-639447D01*
G54D11*
X536256Y-648336D02*
X545589Y-648336D01*
G54D11*
X558478Y-654558D02*
X558478Y-650114D01*
X557145Y-647892D01*
X554478Y-647225D01*
X551811Y-647892D01*
X550478Y-650114D01*
X550478Y-654558D01*
X551811Y-656780D01*
X554478Y-657225D01*
X557145Y-656780D01*
X558478Y-654558D01*
G54D11*
X571367Y-647225D02*
X571367Y-657225D01*
G54D11*
X571367Y-655003D02*
X570034Y-656780D01*
X567367Y-657225D01*
X564700Y-656780D01*
X563367Y-655003D01*
X563367Y-647225D01*
G54D11*
X578923Y-639447D02*
X578923Y-656114D01*
X580256Y-657225D01*
X581589Y-656780D01*
G54D11*
X576256Y-647225D02*
X581589Y-647225D01*
G36*
X0Y-351631D02*
X-794Y-806450D01*
X505619Y-806847D01*
X505619Y-526653D01*
X225425Y-526653D01*
X225425Y-351631D01*
X0Y-351631D01*
G37*
G54D14*
X0Y-351631D02*
X-794Y-806450D01*
X505619Y-806847D01*
X505619Y-526653D01*
X225425Y-526653D01*
X225425Y-351631D01*
X0Y-351631D01*
G36*
X696119Y-807641D02*
X746125Y-807641D01*
X746125Y-756841D01*
X696119Y-807641D01*
G37*
G54D15*
X696119Y-807641D02*
X746125Y-807641D01*
X746125Y-756841D01*
X696119Y-807641D01*
G36*
X699640Y380D02*
X745678Y-44864D01*
X745678Y380D01*
X699640Y380D01*
G37*
G54D15*
X699640Y380D02*
X745678Y-44864D01*
X745678Y380D01*
X699640Y380D01*
X374650Y-419497D02*
G54D12*
D03*
X359569Y-481806D02*
G54D13*
D03*
G54D16*
X344272Y-453907D02*
X352272Y-453907D01*
G54D16*
X348272Y-450573D02*
X348272Y-457240D01*
G54D16*
X355938Y-451407D02*
X360938Y-446407D01*
X360938Y-459740D01*
G54D16*
X372606Y-459740D02*
X364606Y-459740D01*
X364606Y-458907D01*
X365606Y-457240D01*
X371606Y-452240D01*
X372606Y-450573D01*
X372606Y-448907D01*
X371606Y-447240D01*
X369606Y-446407D01*
X367606Y-446407D01*
X365606Y-447240D01*
X364606Y-448907D01*
G54D16*
X376272Y-452240D02*
X380272Y-459740D01*
X384272Y-452240D01*
G54D16*
X391940Y-459740D02*
X391940Y-446407D01*
G54D16*
X387940Y-446407D02*
X395940Y-446407D01*
G54D16*
X399606Y-446407D02*
X409606Y-459740D01*
G54D16*
X399606Y-459740D02*
X409606Y-446407D01*
X150813Y-321072D02*
G54D12*
D03*
X49213Y-273447D02*
G54D12*
D03*
X196056Y-321468D02*
G54D13*
D03*
G54D16*
X99710Y-307024D02*
X103710Y-307024D01*
X103710Y-311190D01*
X102710Y-312857D01*
X100710Y-313690D01*
X98710Y-313690D01*
X96710Y-312857D01*
X95710Y-311190D01*
X95710Y-302857D01*
X96710Y-301190D01*
X98710Y-300357D01*
X100710Y-300357D01*
X102710Y-301190D01*
X103710Y-302857D01*
G54D16*
X107377Y-313690D02*
X107377Y-300357D01*
X115377Y-313690D01*
X115377Y-300357D01*
G54D16*
X119044Y-313690D02*
X119044Y-300357D01*
X124044Y-300357D01*
X126044Y-301190D01*
X127044Y-302857D01*
X127044Y-311190D01*
X126044Y-312857D01*
X124044Y-313690D01*
X119044Y-313690D01*
X26194Y-208756D02*
G54D13*
D03*
G54D11*
X12700Y-239712D02*
X23367Y-239712D01*
G54D11*
X18033Y-239712D02*
X18033Y-221935D01*
G54D11*
X12700Y-221935D02*
X23367Y-221935D01*
G54D11*
X28256Y-239712D02*
X28256Y-221935D01*
X37589Y-221935D01*
G54D11*
X28256Y-230824D02*
X37589Y-230824D01*
G54D11*
X47634Y-239712D02*
X47634Y-229712D01*
G54D11*
X47634Y-226379D02*
X47634Y-226379D01*
G54D11*
X52523Y-239712D02*
X52523Y-229712D01*
G54D11*
X52523Y-231935D02*
X53856Y-230379D01*
X56523Y-229712D01*
X59190Y-230379D01*
X60523Y-231935D01*
X60523Y-239712D01*
G36*
X89680Y-109529D02*
X16655Y-109529D01*
X16655Y-33329D01*
X89680Y-33329D01*
X89680Y-109529D01*
G37*
G54D17*
X89680Y-109529D02*
X16655Y-109529D01*
X16655Y-33329D01*
X89680Y-33329D01*
X89680Y-109529D01*
X72629Y-141287D02*
G54D18*
D03*
X21828Y-141287D02*
G54D18*
D03*
X69825Y-222225D02*
G54D19*
D03*
X449262Y-441325D02*
G54D20*
D03*
X484618Y-476680D02*
G54D20*
D03*
G54D21*
X244471Y-423941D02*
X244475Y-309562D01*
X180950Y-277788D01*
X128562Y-271438D01*
X101575Y-282550D02*
G54D19*
D03*
X147612Y-93638D02*
G54D22*
D03*
X47600Y-144438D02*
G54D22*
D03*
X19025Y-293662D02*
G54D22*
D03*
G54D23*
G75*
G01X198119Y-36512D02*
G03X198119Y-36512I-10000J0D01*
G01*
G36*
G75*
G01X198119Y-36512D02*
G03X198119Y-36512I-10000J0D01*
G01*
G37*
X198119Y-36512D01*
G54D23*
G75*
G01X198119Y-87312D02*
G03X198119Y-87312I-10000J0D01*
G01*
G36*
G75*
G01X198119Y-87312D02*
G03X198119Y-87312I-10000J0D01*
G01*
G37*
X198119Y-87312D01*
X227012Y-41275D02*
G54D22*
D03*
G36*
X202392Y-171442D02*
X275417Y-171442D01*
X275417Y-247642D01*
X202392Y-247642D01*
X202392Y-171442D01*
G37*
G54D17*
X202392Y-171442D02*
X275417Y-171442D01*
X275417Y-247642D01*
X202392Y-247642D01*
X202392Y-171442D01*
X157138Y-226988D02*
G54D22*
D03*
X239688Y-255562D02*
G54D19*
D03*
G54D21*
X239712Y-255588D02*
X312572Y-276669D01*
X312738Y-301050D01*
X311150Y-249238D02*
G54D24*
D03*
X311150Y-277238D02*
G54D24*
D03*
X311150Y-176212D02*
G54D24*
D03*
X311150Y-204212D02*
G54D24*
D03*
X311150Y-103188D02*
G54D24*
D03*
X311150Y-131188D02*
G54D24*
D03*
X311150Y-30162D02*
G54D24*
D03*
X311150Y-58162D02*
G54D24*
D03*
G36*
X302072Y-288482D02*
X323072Y-288481D01*
X323072Y-312481D01*
X302072Y-312482D01*
X302072Y-288482D01*
G37*
X331572Y-300482D02*
G54D25*
D03*
X312738Y-227012D02*
G54D25*
D03*
X331738Y-227012D02*
G54D25*
D03*
X314325Y-153988D02*
G54D25*
D03*
X333325Y-153988D02*
G54D25*
D03*
X314325Y-80962D02*
G54D25*
D03*
X333325Y-80962D02*
G54D25*
D03*
G54D21*
X311150Y-249238D02*
X311150Y-204212D01*
G54D21*
X311150Y-176212D02*
X311150Y-131188D01*
G54D21*
X311150Y-103188D02*
X311150Y-58162D01*
X366998Y-30585D02*
G54D26*
D03*
X366998Y-49585D02*
G54D26*
D03*
X331762Y-30138D02*
G54D19*
D03*
G54D21*
X368972Y-30218D02*
X311150Y-30162D01*
G36*
X0Y-351631D02*
X-794Y-806450D01*
X505619Y-806847D01*
X505619Y-526653D01*
X225425Y-526653D01*
X225425Y-351631D01*
X0Y-351631D01*
G37*
G54D14*
X0Y-351631D02*
X-794Y-806450D01*
X505619Y-806847D01*
X505619Y-526653D01*
X225425Y-526653D01*
X225425Y-351631D01*
X0Y-351631D01*
G54D27*
X366712Y-79375D02*
X366712Y-314325D01*
X336550Y-327025D01*
X180950Y-277788D02*
G54D19*
D03*
X128562Y-271438D02*
G54D19*
D03*
X244471Y-423941D02*
G54D19*
D03*
G36*
X252699Y-343188D02*
X280699Y-343188D01*
X280699Y-371188D01*
X252699Y-371188D01*
X252699Y-343188D01*
G37*
X266699Y-331787D02*
G54D28*
D03*
G36*
X37058Y-310309D02*
X37058Y-338309D01*
X9058Y-338309D01*
X9058Y-310309D01*
X37058Y-310309D01*
G37*
X48458Y-324309D02*
G54D28*
D03*
G54D21*
X101575Y-282550D02*
X90216Y-282550D01*
X48458Y-324309D01*
X603250Y-776288D02*
G54D29*
D03*
X581425Y-729462D02*
G54D29*
D03*
X603250Y-729462D02*
G54D29*
D03*
X559600Y-729462D02*
G54D29*
D03*
X559600Y-776288D02*
G54D29*
D03*
X653250Y-600849D02*
G54D29*
D03*
X606425Y-622674D02*
G54D29*
D03*
X606425Y-600849D02*
G54D29*
D03*
X606425Y-644499D02*
G54D29*
D03*
X653250Y-644499D02*
G54D29*
D03*
X707400Y-549900D02*
G54D28*
D03*
X707400Y-524500D02*
G54D28*
D03*
X707400Y-499100D02*
G54D28*
D03*
X707400Y-308600D02*
G54D28*
D03*
X707400Y-283200D02*
G54D28*
D03*
X707400Y-257800D02*
G54D28*
D03*
G36*
X565929Y-336542D02*
X638954Y-336542D01*
X638954Y-412742D01*
X565929Y-412742D01*
X565929Y-336542D01*
G37*
G54D17*
X565929Y-336542D02*
X638954Y-336542D01*
X638954Y-412742D01*
X565929Y-412742D01*
X565929Y-336542D01*
G36*
X566354Y-462367D02*
X639378Y-462367D01*
X639378Y-538567D01*
X566353Y-538566D01*
X566354Y-462367D01*
G37*
G54D17*
X566354Y-462367D02*
X639378Y-462367D01*
X639378Y-538567D01*
X566353Y-538566D01*
X566354Y-462367D01*
G36*
X640542Y-96829D02*
X713567Y-96829D01*
X713567Y-173029D01*
X640542Y-173029D01*
X640542Y-96829D01*
G37*
G54D17*
X640542Y-96829D02*
X713567Y-96829D01*
X713567Y-173029D01*
X640542Y-173029D01*
X640542Y-96829D01*
X492125Y-92075D02*
G54D30*
D03*
X492125Y-79375D02*
G54D30*
D03*
X492125Y-66675D02*
G54D30*
D03*
X492125Y-53975D02*
G54D30*
D03*
X542925Y-53975D02*
G54D30*
D03*
X542925Y-66675D02*
G54D30*
D03*
X542925Y-79375D02*
G54D30*
D03*
X542925Y-92075D02*
G54D30*
D03*
G36*
X514063Y-335250D02*
X514063Y-363250D01*
X486063Y-363250D01*
X486063Y-335250D01*
X514063Y-335250D01*
G37*
X525462Y-349250D02*
G54D28*
D03*
G36*
X514063Y-360650D02*
X514063Y-388650D01*
X486063Y-388650D01*
X486063Y-360650D01*
X514063Y-360650D01*
G37*
X525463Y-374650D02*
G54D28*
D03*
X628625Y-438125D02*
G54D22*
D03*
X552425Y-623862D02*
G54D22*
D03*
X547662Y-436538D02*
G54D22*
D03*
X547662Y-288900D02*
G54D22*
D03*
G36*
X562587Y-67374D02*
X583587Y-67374D01*
X583588Y-91374D01*
X562588Y-91374D01*
X562587Y-67374D01*
G37*
X592088Y-79374D02*
G54D25*
D03*
X620688Y-109512D02*
G54D19*
D03*
G54D21*
X542925Y-79375D02*
X573088Y-79375D01*
G54D21*
X592138Y-79375D02*
X620712Y-109538D01*
G54D21*
X544512Y-66675D02*
X558800Y-66675D01*
X574675Y-53975D01*
X601662Y-53975D01*
X575175Y-55336D02*
G54D26*
D03*
X575176Y-36336D02*
G54D26*
D03*
X602108Y-52833D02*
G54D24*
D03*
X602108Y-24833D02*
G54D24*
D03*
G36*
X416537Y-24512D02*
X437537Y-24511D01*
X437538Y-48511D01*
X416538Y-48512D01*
X416537Y-24512D01*
G37*
X446038Y-36512D02*
G54D25*
D03*
G54D21*
X366712Y-30162D02*
X417512Y-30162D01*
X425450Y-38100D01*
G54D21*
X492125Y-66675D02*
X474662Y-66675D01*
X446088Y-38100D01*
X499461Y-116874D02*
G54D31*
D03*
G36*
X507961Y-105874D02*
X528961Y-105874D01*
X528962Y-127874D01*
X507962Y-127874D01*
X507961Y-105874D01*
G37*
G54D21*
X519112Y-117475D02*
X557212Y-117475D01*
X571500Y-103188D01*
X571500Y-80962D01*
G54D21*
X500062Y-117475D02*
X481012Y-117475D01*
X463550Y-100012D01*
X463550Y-84138D01*
X511150Y-142850D02*
G54D22*
D03*
X517500Y-28550D02*
G54D22*
D03*
X464345Y-142826D02*
G54D31*
D03*
X483345Y-142826D02*
G54D31*
D03*
G54D21*
X492125Y-79375D02*
X468312Y-79375D01*
X463550Y-84138D01*
G36*
X483300Y-105477D02*
X507300Y-105477D01*
X507300Y-129477D01*
X483300Y-129477D01*
X483300Y-105477D01*
G37*
X523300Y-117477D02*
G54D32*
D03*
X443899Y-58136D02*
G54D31*
D03*
G36*
X452399Y-47137D02*
X473399Y-47136D01*
X473399Y-69136D01*
X452399Y-69137D01*
X452399Y-47137D01*
G37*
X416092Y-114210D02*
G54D31*
D03*
X397092Y-114210D02*
G54D31*
D03*
X396875Y-138112D02*
G54D31*
D03*
X415875Y-138112D02*
G54D31*
D03*
X420317Y-59919D02*
G54D25*
D03*
X401317Y-59919D02*
G54D25*
D03*
X417670Y-86458D02*
G54D33*
D03*
X389670Y-86458D02*
G54D33*
D03*
G54D21*
X415925Y-136525D02*
X415925Y-90488D01*
X419100Y-87312D01*
X419100Y-61912D01*
X420688Y-60325D01*
X442912Y-60325D01*
X396850Y-158725D02*
G54D19*
D03*
X614338Y-63475D02*
G54D19*
D03*
X463525Y-104799D02*
G54D26*
D03*
X463525Y-123799D02*
G54D26*
D03*
G54D21*
X463550Y-142875D02*
X463550Y-123825D01*
X560362Y-142850D02*
G54D22*
D03*
X441300Y-87288D02*
G54D22*
D03*
G54D21*
X396875Y-158750D02*
X396875Y-138112D01*
X625450Y-155550D02*
G54D22*
D03*
X727050Y-388912D02*
G54D22*
D03*
X419075Y-363512D02*
G54D19*
D03*
G54D21*
X419100Y-363538D02*
X377825Y-363538D01*
X357188Y-384175D01*
X317500Y-384175D01*
X290512Y-411162D01*
X257175Y-411162D01*
X244475Y-423862D01*
X244471Y-504903D02*
G54D19*
D03*
G54D21*
X244475Y-504825D02*
X244475Y-423862D01*
X395875Y-159750D02*
G54D34*
D03*
X395875Y-310150D02*
G54D34*
D03*
X282550Y-23788D02*
G54D22*
D03*
X285725Y-141262D02*
G54D22*
D03*
X19025Y-17438D02*
G54D22*
D03*
G54D21*
X69850Y-222250D02*
X104775Y-222250D01*
X131762Y-249238D01*
X171450Y-249238D01*
X276225Y-303212D01*
X317500Y-352425D01*
X354012Y-352425D01*
X396875Y-309562D01*
X352400Y-304775D02*
G54D22*
D03*
%LPD*%
G54D27*
G36*
X192521Y-317933D02*
X206309Y-304144D01*
X213380Y-311215D01*
X199592Y-325004D01*
X192521Y-317933D01*
G37*
G36*
X199592Y-317933D02*
X213380Y-331721D01*
X206309Y-338792D01*
X192521Y-325004D01*
X199592Y-317933D01*
G37*
G36*
X199592Y-325004D02*
X185803Y-338792D01*
X178732Y-331721D01*
X192521Y-317933D01*
X199592Y-325004D01*
G37*
G36*
X192521Y-325004D02*
X178732Y-311215D01*
X185803Y-304144D01*
X199592Y-317933D01*
X192521Y-325004D01*
G37*
G54D35*
G36*
X329405Y-300482D02*
X329406Y-287982D01*
X333739Y-287982D01*
X333738Y-300482D01*
X329405Y-300482D01*
G37*
G36*
X331572Y-298315D02*
X342572Y-298315D01*
X342572Y-302648D01*
X331572Y-302648D01*
X331572Y-298315D01*
G37*
G36*
X333738Y-300482D02*
X333738Y-312982D01*
X329405Y-312982D01*
X329405Y-300482D01*
X333738Y-300482D01*
G37*
G54D35*
G36*
X329571Y-227012D02*
X329571Y-214512D01*
X333904Y-214512D01*
X333904Y-227012D01*
X329571Y-227012D01*
G37*
G36*
X331738Y-224846D02*
X342738Y-224846D01*
X342738Y-229179D01*
X331738Y-229179D01*
X331738Y-224846D01*
G37*
G36*
X333904Y-227012D02*
X333904Y-239512D01*
X329571Y-239512D01*
X329571Y-227012D01*
X333904Y-227012D01*
G37*
G54D35*
G36*
X331158Y-153988D02*
X331158Y-141488D01*
X335492Y-141488D01*
X335492Y-153988D01*
X331158Y-153988D01*
G37*
G36*
X333325Y-151821D02*
X344325Y-151821D01*
X344325Y-156154D01*
X333325Y-156154D01*
X333325Y-151821D01*
G37*
G36*
X335492Y-153988D02*
X335492Y-166488D01*
X331158Y-166488D01*
X331158Y-153988D01*
X335492Y-153988D01*
G37*
G54D35*
G36*
X331158Y-80962D02*
X331158Y-68462D01*
X335492Y-68462D01*
X335492Y-80962D01*
X331158Y-80962D01*
G37*
G36*
X333325Y-78796D02*
X344325Y-78796D01*
X344325Y-83129D01*
X333325Y-83129D01*
X333325Y-78796D01*
G37*
G36*
X335492Y-80962D02*
X335492Y-93462D01*
X331158Y-93462D01*
X331158Y-80962D01*
X335492Y-80962D01*
G37*
G54D35*
G36*
X366998Y-47419D02*
X379498Y-47419D01*
X379498Y-51752D01*
X366998Y-51752D01*
X366998Y-47419D01*
G37*
G36*
X369165Y-49585D02*
X369165Y-60585D01*
X364832Y-60585D01*
X364832Y-49585D01*
X369165Y-49585D01*
G37*
G36*
X366998Y-51752D02*
X354498Y-51752D01*
X354498Y-47419D01*
X366998Y-47419D01*
X366998Y-51752D01*
G37*
G54D36*
G36*
X266699Y-353854D02*
X281199Y-353854D01*
X281199Y-360521D01*
X266699Y-360521D01*
X266699Y-353854D01*
G37*
G36*
X270033Y-357188D02*
X270033Y-371688D01*
X263366Y-371688D01*
X263366Y-357188D01*
X270033Y-357188D01*
G37*
G36*
X266699Y-360521D02*
X252199Y-360521D01*
X252199Y-353854D01*
X266699Y-353854D01*
X266699Y-360521D01*
G37*
G54D36*
G36*
X26391Y-324309D02*
X26391Y-338809D01*
X19724Y-338809D01*
X19724Y-324309D01*
X26391Y-324309D01*
G37*
G36*
X23058Y-327642D02*
X8558Y-327642D01*
X8558Y-320975D01*
X23058Y-320975D01*
X23058Y-327642D01*
G37*
G36*
X19724Y-324309D02*
X19724Y-309809D01*
X26391Y-309809D01*
X26391Y-324309D01*
X19724Y-324309D01*
G37*
G54D37*
G36*
X588865Y-729462D02*
X588865Y-741962D01*
X573985Y-741962D01*
X573985Y-729462D01*
X588865Y-729462D01*
G37*
G36*
X573985Y-729462D02*
X573985Y-716962D01*
X588865Y-716962D01*
X588865Y-729462D01*
X573985Y-729462D01*
G37*
G54D37*
G36*
X606425Y-615234D02*
X618925Y-615234D01*
X618925Y-630114D01*
X606425Y-630114D01*
X606425Y-615234D01*
G37*
G36*
X606425Y-630114D02*
X593925Y-630114D01*
X593925Y-615234D01*
X606425Y-615234D01*
X606425Y-630114D01*
G37*
G54D36*
G36*
X707400Y-553234D02*
X692900Y-553234D01*
X692900Y-546567D01*
X707400Y-546567D01*
X707400Y-553234D01*
G37*
G36*
X707400Y-546567D02*
X721900Y-546567D01*
X721900Y-553234D01*
X707400Y-553234D01*
X707400Y-546567D01*
G37*
G36*
X710733Y-549900D02*
X710733Y-564400D01*
X704066Y-564400D01*
X704066Y-549900D01*
X710733Y-549900D01*
G37*
G54D36*
G36*
X707400Y-311934D02*
X692900Y-311934D01*
X692900Y-305267D01*
X707400Y-305267D01*
X707400Y-311934D01*
G37*
G36*
X707400Y-305267D02*
X721900Y-305267D01*
X721900Y-311934D01*
X707400Y-311934D01*
X707400Y-305267D01*
G37*
G36*
X710733Y-308600D02*
X710733Y-323100D01*
X704066Y-323100D01*
X704066Y-308600D01*
X710733Y-308600D01*
G37*
G54D38*
G36*
X492125Y-88825D02*
X502975Y-88825D01*
X502975Y-95325D01*
X492125Y-95325D01*
X492125Y-88825D01*
G37*
G36*
X495375Y-92075D02*
X495375Y-99825D01*
X488875Y-99825D01*
X488875Y-92075D01*
X495375Y-92075D01*
G37*
G36*
X492125Y-95325D02*
X481275Y-95325D01*
X481275Y-88825D01*
X492125Y-88825D01*
X492125Y-95325D01*
G37*
G54D35*
G36*
X575176Y-38502D02*
X562676Y-38502D01*
X562676Y-34169D01*
X575176Y-34169D01*
X575176Y-38502D01*
G37*
G36*
X573009Y-36336D02*
X573009Y-25336D01*
X577342Y-25336D01*
X577342Y-36336D01*
X573009Y-36336D01*
G37*
G36*
X575176Y-34169D02*
X587676Y-34169D01*
X587676Y-38502D01*
X575176Y-38502D01*
X575176Y-34169D01*
G37*
G54D39*
G36*
X602108Y-27500D02*
X587608Y-27499D01*
X587608Y-22166D01*
X602108Y-22166D01*
X602108Y-27500D01*
G37*
G36*
X599441Y-24833D02*
X599441Y-12333D01*
X604774Y-12333D01*
X604774Y-24833D01*
X599441Y-24833D01*
G37*
G36*
X602108Y-22166D02*
X616608Y-22167D01*
X616608Y-27500D01*
X602108Y-27500D01*
X602108Y-22166D01*
G37*
G36*
X604774Y-24833D02*
X604774Y-37333D01*
X599441Y-37333D01*
X599441Y-24833D01*
X604774Y-24833D01*
G37*
G54D35*
G36*
X481179Y-142826D02*
X481179Y-131326D01*
X485512Y-131326D01*
X485512Y-142826D01*
X481179Y-142826D01*
G37*
G36*
X483345Y-140659D02*
X494345Y-140660D01*
X494345Y-144993D01*
X483345Y-144992D01*
X483345Y-140659D01*
G37*
G36*
X485512Y-142826D02*
X485512Y-154326D01*
X481178Y-154326D01*
X481179Y-142826D01*
X485512Y-142826D01*
G37*
G54D35*
G36*
X399259Y-114210D02*
X399259Y-125710D01*
X394926Y-125710D01*
X394926Y-114210D01*
X399259Y-114210D01*
G37*
G36*
X397092Y-116377D02*
X386092Y-116377D01*
X386092Y-112044D01*
X397092Y-112044D01*
X397092Y-116377D01*
G37*
G36*
X394926Y-114210D02*
X394925Y-102710D01*
X399258Y-102710D01*
X399259Y-114210D01*
X394926Y-114210D01*
G37*
G54D35*
G36*
X403484Y-59919D02*
X403484Y-72419D01*
X399151Y-72419D01*
X399151Y-59919D01*
X403484Y-59919D01*
G37*
G36*
X401317Y-62086D02*
X390317Y-62086D01*
X390317Y-57753D01*
X401317Y-57753D01*
X401317Y-62086D01*
G37*
G36*
X399151Y-59919D02*
X399151Y-47419D01*
X403484Y-47419D01*
X403484Y-59919D01*
X399151Y-59919D01*
G37*
G54D39*
G36*
X392336Y-86458D02*
X392336Y-100958D01*
X387003Y-100958D01*
X387004Y-86458D01*
X392336Y-86458D01*
G37*
G36*
X389670Y-89124D02*
X377170Y-89124D01*
X377170Y-83791D01*
X389670Y-83791D01*
X389670Y-89124D01*
G37*
G36*
X387004Y-86458D02*
X387004Y-71958D01*
X392337Y-71958D01*
X392336Y-86458D01*
X387004Y-86458D01*
G37*
G36*
X389670Y-83791D02*
X402170Y-83791D01*
X402170Y-89124D01*
X389670Y-89124D01*
X389670Y-83791D01*
G37*
X663575Y-44847D02*
G54D10*
D03*
X663575Y-758031D02*
G54D10*
D03*
X527050Y-727075D02*
G54D40*
D03*
X359569Y-481806D02*
G54D40*
D03*
X196056Y-321468D02*
G54D40*
D03*
X26194Y-208756D02*
G54D40*
D03*
X72629Y-141287D02*
G54D41*
D03*
X21828Y-141287D02*
G54D41*
D03*
X69825Y-222225D02*
G54D22*
D03*
G54D15*
X244471Y-423941D02*
X244475Y-309562D01*
X180950Y-277788D01*
X128562Y-271438D01*
X101575Y-282550D02*
G54D22*
D03*
X147612Y-93638D02*
G54D22*
D03*
X47600Y-144438D02*
G54D22*
D03*
X19025Y-293662D02*
G54D22*
D03*
X227012Y-41275D02*
G54D22*
D03*
X157138Y-226988D02*
G54D22*
D03*
X239688Y-255562D02*
G54D22*
D03*
G54D15*
X239712Y-255588D02*
X312572Y-276669D01*
X312738Y-301050D01*
X311150Y-249238D02*
G54D42*
D03*
X311150Y-277238D02*
G54D42*
D03*
X311150Y-176212D02*
G54D42*
D03*
X311150Y-204212D02*
G54D42*
D03*
X311150Y-103188D02*
G54D42*
D03*
X311150Y-131188D02*
G54D42*
D03*
X311150Y-30162D02*
G54D42*
D03*
X311150Y-58162D02*
G54D42*
D03*
G36*
X306072Y-292482D02*
X319072Y-292482D01*
X319072Y-308482D01*
X306072Y-308482D01*
X306072Y-292482D01*
G37*
X331572Y-300482D02*
G54D43*
D03*
X312738Y-227012D02*
G54D43*
D03*
X331738Y-227012D02*
G54D43*
D03*
X314325Y-153988D02*
G54D43*
D03*
X333325Y-153988D02*
G54D43*
D03*
X314325Y-80962D02*
G54D43*
D03*
X333325Y-80962D02*
G54D43*
D03*
G54D15*
X311150Y-249238D02*
X311150Y-204212D01*
G54D15*
X311150Y-176212D02*
X311150Y-131188D01*
G54D15*
X311150Y-103188D02*
X311150Y-58162D01*
X366998Y-30585D02*
G54D44*
D03*
X366998Y-49585D02*
G54D44*
D03*
X331762Y-30138D02*
G54D22*
D03*
G54D15*
X368972Y-30218D02*
X311150Y-30162D01*
X180950Y-277788D02*
G54D22*
D03*
X128562Y-271438D02*
G54D22*
D03*
X244471Y-423941D02*
G54D22*
D03*
G36*
X256699Y-347188D02*
X276699Y-347188D01*
X276699Y-367188D01*
X256699Y-367188D01*
X256699Y-347188D01*
G37*
X266699Y-331787D02*
G54D45*
D03*
G36*
X33058Y-314309D02*
X33058Y-334309D01*
X13058Y-334309D01*
X13058Y-314309D01*
X33058Y-314309D01*
G37*
X48458Y-324309D02*
G54D45*
D03*
G54D15*
X101575Y-282550D02*
X90216Y-282550D01*
X48458Y-324309D01*
X603250Y-776288D02*
G54D22*
D03*
X581425Y-729462D02*
G54D22*
D03*
X603250Y-729462D02*
G54D22*
D03*
X559600Y-729462D02*
G54D22*
D03*
X559600Y-776288D02*
G54D22*
D03*
X653250Y-600849D02*
G54D22*
D03*
X606425Y-622674D02*
G54D22*
D03*
X606425Y-600849D02*
G54D22*
D03*
X606425Y-644499D02*
G54D22*
D03*
X653250Y-644499D02*
G54D22*
D03*
X707400Y-549900D02*
G54D45*
D03*
X707400Y-524500D02*
G54D45*
D03*
X707400Y-499100D02*
G54D45*
D03*
X707400Y-308600D02*
G54D45*
D03*
X707400Y-283200D02*
G54D45*
D03*
X707400Y-257800D02*
G54D45*
D03*
X492125Y-92075D02*
G54D46*
D03*
X492125Y-79375D02*
G54D46*
D03*
X492125Y-66675D02*
G54D46*
D03*
X492125Y-53975D02*
G54D46*
D03*
X542925Y-53975D02*
G54D46*
D03*
X542925Y-66675D02*
G54D46*
D03*
X542925Y-79375D02*
G54D46*
D03*
X542925Y-92075D02*
G54D46*
D03*
G36*
X510063Y-339250D02*
X510063Y-359250D01*
X490063Y-359250D01*
X490063Y-339250D01*
X510063Y-339250D01*
G37*
X525462Y-349250D02*
G54D45*
D03*
G36*
X510063Y-364650D02*
X510063Y-384650D01*
X490063Y-384650D01*
X490063Y-364650D01*
X510063Y-364650D01*
G37*
X525463Y-374650D02*
G54D45*
D03*
X628625Y-438125D02*
G54D22*
D03*
X552425Y-623862D02*
G54D22*
D03*
X547662Y-436538D02*
G54D22*
D03*
X547662Y-288900D02*
G54D22*
D03*
G36*
X566588Y-71374D02*
X579588Y-71374D01*
X579588Y-87374D01*
X566588Y-87374D01*
X566588Y-71374D01*
G37*
X592088Y-79374D02*
G54D43*
D03*
X620688Y-109512D02*
G54D22*
D03*
G54D15*
X542925Y-79375D02*
X573088Y-79375D01*
G54D15*
X592138Y-79375D02*
X620712Y-109538D01*
G54D15*
X544512Y-66675D02*
X558800Y-66675D01*
X574675Y-53975D01*
X601662Y-53975D01*
X575175Y-55336D02*
G54D44*
D03*
X575176Y-36336D02*
G54D44*
D03*
X602108Y-52833D02*
G54D42*
D03*
X602108Y-24833D02*
G54D42*
D03*
G36*
X420537Y-28512D02*
X433537Y-28511D01*
X433538Y-44511D01*
X420538Y-44512D01*
X420537Y-28512D01*
G37*
X446038Y-36512D02*
G54D43*
D03*
G54D15*
X366712Y-30162D02*
X417512Y-30162D01*
X425450Y-38100D01*
G54D15*
X492125Y-66675D02*
X474662Y-66675D01*
X446088Y-38100D01*
X499461Y-116874D02*
G54D47*
D03*
G36*
X511961Y-109874D02*
X524961Y-109874D01*
X524962Y-123874D01*
X511962Y-123874D01*
X511961Y-109874D01*
G37*
G54D15*
X519112Y-117475D02*
X557212Y-117475D01*
X571500Y-103188D01*
X571500Y-80962D01*
G54D15*
X500062Y-117475D02*
X481012Y-117475D01*
X463550Y-100012D01*
X463550Y-84138D01*
X511150Y-142850D02*
G54D22*
D03*
X517500Y-28550D02*
G54D22*
D03*
X464345Y-142826D02*
G54D47*
D03*
X483345Y-142826D02*
G54D47*
D03*
G54D15*
X492125Y-79375D02*
X468312Y-79375D01*
X463550Y-84138D01*
G36*
X487300Y-109477D02*
X503300Y-109477D01*
X503300Y-125477D01*
X487300Y-125477D01*
X487300Y-109477D01*
G37*
X523300Y-117477D02*
G54D48*
D03*
X443899Y-58136D02*
G54D47*
D03*
G36*
X456399Y-51137D02*
X469399Y-51136D01*
X469399Y-65136D01*
X456399Y-65137D01*
X456399Y-51137D01*
G37*
X416092Y-114210D02*
G54D47*
D03*
X397092Y-114210D02*
G54D47*
D03*
X396875Y-138112D02*
G54D47*
D03*
X415875Y-138112D02*
G54D47*
D03*
X420317Y-59919D02*
G54D43*
D03*
X401317Y-59919D02*
G54D43*
D03*
X417670Y-86458D02*
G54D49*
D03*
X389670Y-86458D02*
G54D49*
D03*
G54D15*
X415925Y-136525D02*
X415925Y-90488D01*
X419100Y-87312D01*
X419100Y-61912D01*
X420688Y-60325D01*
X442912Y-60325D01*
X396850Y-158725D02*
G54D22*
D03*
X614338Y-63475D02*
G54D22*
D03*
X463525Y-104799D02*
G54D44*
D03*
X463525Y-123799D02*
G54D44*
D03*
G54D15*
X463550Y-142875D02*
X463550Y-123825D01*
X560362Y-142850D02*
G54D22*
D03*
X441300Y-87288D02*
G54D22*
D03*
G54D15*
X396875Y-158750D02*
X396875Y-138112D01*
X625450Y-155550D02*
G54D22*
D03*
X727050Y-388912D02*
G54D22*
D03*
X419075Y-363512D02*
G54D22*
D03*
G54D15*
X419100Y-363538D02*
X377825Y-363538D01*
X357188Y-384175D01*
X317500Y-384175D01*
X290512Y-411162D01*
X257175Y-411162D01*
X244475Y-423862D01*
X244471Y-504903D02*
G54D22*
D03*
G54D15*
X244475Y-504825D02*
X244475Y-423862D01*
X395875Y-159750D02*
G54D28*
D03*
X395875Y-310150D02*
G54D28*
D03*
X282550Y-23788D02*
G54D22*
D03*
X285725Y-141262D02*
G54D22*
D03*
X19025Y-17438D02*
G54D22*
D03*
G54D15*
X69850Y-222250D02*
X104775Y-222250D01*
X131762Y-249238D01*
X171450Y-249238D01*
X276225Y-303212D01*
X317500Y-352425D01*
X354012Y-352425D01*
X396875Y-309562D01*
X352400Y-304775D02*
G54D22*
D03*
%LNAUGENFREISTANZEN*%
%LPC*%
X663575Y-44847D02*
G54D50*
D03*
X663575Y-758031D02*
G54D50*
D03*
X550863Y-692547D02*
G54D50*
D03*
X527050Y-727075D02*
G54D51*
D03*
X374650Y-419497D02*
G54D50*
D03*
X359569Y-481806D02*
G54D51*
D03*
X150813Y-321072D02*
G54D50*
D03*
X49213Y-273447D02*
G54D50*
D03*
X196056Y-321468D02*
G54D51*
D03*
X26194Y-208756D02*
G54D51*
D03*
X72629Y-141287D02*
G54D15*
D03*
X21828Y-141287D02*
G54D15*
D03*
X69825Y-222225D02*
G54D15*
D03*
X449262Y-441325D02*
G54D51*
D03*
X484618Y-476680D02*
G54D51*
D03*
X101575Y-282550D02*
G54D15*
D03*
X147612Y-93638D02*
G54D15*
D03*
X47600Y-144438D02*
G54D15*
D03*
X19025Y-293662D02*
G54D15*
D03*
X227012Y-41275D02*
G54D15*
D03*
X157138Y-226988D02*
G54D15*
D03*
X239688Y-255562D02*
G54D15*
D03*
X331762Y-30138D02*
G54D15*
D03*
X180950Y-277788D02*
G54D15*
D03*
X128562Y-271438D02*
G54D15*
D03*
X244471Y-423941D02*
G54D15*
D03*
X266699Y-357188D02*
G54D51*
D03*
X266699Y-331787D02*
G54D51*
D03*
X23058Y-324309D02*
G54D51*
D03*
X48458Y-324309D02*
G54D51*
D03*
X603250Y-776288D02*
G54D15*
D03*
X581425Y-729462D02*
G54D15*
D03*
X603250Y-729462D02*
G54D15*
D03*
X559600Y-729462D02*
G54D15*
D03*
X559600Y-776288D02*
G54D15*
D03*
X653250Y-600849D02*
G54D15*
D03*
X606425Y-622674D02*
G54D15*
D03*
X606425Y-600849D02*
G54D15*
D03*
X606425Y-644499D02*
G54D15*
D03*
X653250Y-644499D02*
G54D15*
D03*
X707400Y-549900D02*
G54D51*
D03*
X707400Y-524500D02*
G54D51*
D03*
X707400Y-499100D02*
G54D51*
D03*
X707400Y-308600D02*
G54D51*
D03*
X707400Y-283200D02*
G54D51*
D03*
X707400Y-257800D02*
G54D51*
D03*
X500063Y-349250D02*
G54D51*
D03*
X525462Y-349250D02*
G54D51*
D03*
X500063Y-374650D02*
G54D51*
D03*
X525463Y-374650D02*
G54D51*
D03*
X628625Y-438125D02*
G54D15*
D03*
X552425Y-623862D02*
G54D15*
D03*
X547662Y-436538D02*
G54D15*
D03*
X547662Y-288900D02*
G54D15*
D03*
X620688Y-109512D02*
G54D15*
D03*
X511150Y-142850D02*
G54D15*
D03*
X517500Y-28550D02*
G54D15*
D03*
X396850Y-158725D02*
G54D15*
D03*
X614338Y-63475D02*
G54D15*
D03*
X560362Y-142850D02*
G54D15*
D03*
X441300Y-87288D02*
G54D15*
D03*
X625450Y-155550D02*
G54D15*
D03*
X727050Y-388912D02*
G54D15*
D03*
X419075Y-363512D02*
G54D15*
D03*
X244471Y-504903D02*
G54D15*
D03*
X395875Y-159750D02*
G54D51*
D03*
X395875Y-310150D02*
G54D51*
D03*
X282550Y-23788D02*
G54D15*
D03*
X285725Y-141262D02*
G54D15*
D03*
X19025Y-17438D02*
G54D15*
D03*
X352400Y-304775D02*
G54D15*
D03*
M02*
