M48
M71
T01C0.5
T02C0.6
T03C0.8
T04C3.0
%
G05
T01
X-021390Y-023450
X-023930Y-023450
X-026470Y-023450
X-026470Y-018370
X-023930Y-018370
X-021390Y-018370
X-007820Y-009720
X-005280Y-009720
X-002740Y-009720
X-002740Y-004640
X-005280Y-004640
X-007820Y-004640
X-065200Y-010910
X-070280Y-010910
X-070280Y-015990
X-065200Y-015990
X-062820Y-034880
X-057740Y-034880
X-057740Y-039960
X-062820Y-039960
X-062860Y-047470
X-057780Y-047470
X-057780Y-052550
X-062860Y-052550
T02
X-024450Y-050490
X-024450Y-042390
X-018100Y-027780
X-012860Y-027140
X-010160Y-028260
X-006980Y-022220
X-004760Y-014440
X-007260Y-014130
X-002180Y-014130
X-002000Y-002000
X-014760Y-009360
X-018810Y-008730
X-018810Y-006190
X-018810Y-003650
X-022700Y-004130
X-028260Y-002380
X-033180Y-003010
X-028570Y-014130
X-023970Y-025560
X-015710Y-022700
X-001900Y-029370
X-035240Y-030480
X-041910Y-036350
X-054770Y-043650
X-062860Y-043810
X-072700Y-038890
X-060240Y-023650
X-057740Y-023650
X-055240Y-023650
X-055240Y-018890
X-057740Y-018890
X-060240Y-018890
X-062540Y-015560
X-062070Y-010950
X-061430Y-006350
X-056040Y-014280
X-051120Y-014280
X-044130Y-008730
X-051750Y-002860
X-070000Y-002000
X-054770Y-028890
X-060640Y-060080
X-060640Y-062270
X-060640Y-064450
X-065320Y-064450
X-065320Y-060080
X-055240Y-062390
X-055960Y-072950
X-058140Y-072950
X-060320Y-072950
X-060320Y-077630
X-055960Y-077630
T03
X-002310Y-032430
X-004850Y-032430
X-002620Y-020880
X-019610Y-032150
X-026670Y-033180
X-026670Y-035720
X-039590Y-031020
X-050010Y-034920
X-050010Y-037460
X-052550Y-037460
X-052550Y-034920
X-044930Y-044130
X-048460Y-047670
X-035960Y-048180
X-053020Y-073500
X-070740Y-054990
X-070740Y-052450
X-070740Y-049910
X-070740Y-030860
X-070740Y-028320
X-070740Y-025780
X-039590Y-015980
T04
X-015080Y-032110
X-004920Y-027340
X-037460Y-041950
X-055090Y-069250
X-066360Y-075800
X-066360Y-004480
M30
