M48
M71
T01C0.5
T02C0.6
T03C0.8
T04C3.0
%
G05
T01
X021390Y-023450
X023930Y-023450
X026470Y-023450
X026470Y-018370
X023930Y-018370
X021390Y-018370
X007820Y-009720
X005280Y-009720
X002740Y-009720
X002740Y-004640
X005280Y-004640
X007820Y-004640
X065200Y-010910
X070280Y-010910
X070280Y-015990
X065200Y-015990
X062820Y-034880
X057740Y-034880
X057740Y-039960
X062820Y-039960
X062860Y-047470
X057780Y-047470
X057780Y-052550
X062860Y-052550
T02
X024450Y-050490
X024450Y-042390
X018100Y-027780
X012860Y-027140
X010160Y-028260
X006980Y-022220
X004760Y-014440
X007260Y-014130
X002180Y-014130
X002000Y-002000
X014760Y-009360
X018810Y-008730
X018810Y-006190
X018810Y-003650
X022700Y-004130
X028260Y-002380
X033180Y-003010
X028570Y-014130
X023970Y-025560
X015710Y-022700
X001900Y-029370
X035240Y-030480
X041910Y-036350
X054770Y-043650
X062860Y-043810
X072700Y-038890
X060240Y-023650
X057740Y-023650
X055240Y-023650
X055240Y-018890
X057740Y-018890
X060240Y-018890
X062540Y-015560
X062070Y-010950
X061430Y-006350
X056040Y-014280
X051120Y-014280
X044130Y-008730
X051750Y-002860
X070000Y-002000
X054770Y-028890
X060640Y-060080
X060640Y-062270
X060640Y-064450
X065320Y-064450
X065320Y-060080
X055240Y-062390
X055960Y-072950
X058140Y-072950
X060320Y-072950
X060320Y-077630
X055960Y-077630
T03
X002310Y-032430
X004850Y-032430
X002620Y-020880
X019610Y-032150
X026670Y-033180
X026670Y-035720
X039590Y-031020
X050010Y-034920
X050010Y-037460
X052550Y-037460
X052550Y-034920
X044930Y-044130
X048460Y-047670
X035960Y-048180
X053020Y-073500
X070740Y-054990
X070740Y-052450
X070740Y-049910
X070740Y-030860
X070740Y-028320
X070740Y-025780
X039590Y-015980
T04
X015080Y-032110
X004920Y-027340
X037460Y-041950
X055090Y-069250
X066360Y-075800
X066360Y-004480
M30
