M48
M71
T01C0.5
T02C0.6
T03C0.8
T04C0.9
T05C1.5
T06C3.0
%
G05
T01
X023060Y-040960
X023060Y-035880
X028140Y-035880
X028140Y-040960
X040280Y-040920
X042820Y-040920
X045360Y-040920
X045360Y-035840
X042820Y-035840
X040280Y-035840
T02
X003140Y-051870
X005320Y-051870
X007500Y-051870
X007500Y-047190
X003140Y-047190
X003140Y-041590
X003140Y-036510
X010640Y-038660
X013930Y-038580
X013930Y-040760
X013930Y-036390
X018610Y-036390
X018610Y-040760
X022980Y-044890
X018290Y-047190
X013930Y-047190
X013930Y-051870
X016110Y-051870
X018290Y-051870
X016270Y-055210
X032780Y-045280
X035920Y-043100
X037660Y-038620
X032780Y-038540
X031150Y-040480
X031150Y-035360
X032780Y-033100
X035920Y-033500
X045360Y-032740
X054050Y-029920
X061990Y-032940
X064370Y-032860
X064370Y-035400
X064370Y-030320
X061750Y-024690
X061750Y-022150
X061750Y-019610
X061750Y-017070
X061750Y-014530
X061750Y-011990
X061750Y-009450
X061750Y-006910
X061750Y-004370
X068780Y-004370
X053700Y-015160
X053700Y-020240
X048580Y-012780
X029810Y-026110
X023020Y-026750
X012980Y-030280
X012980Y-007580
X045400Y-043930
X045400Y-046120
X045400Y-048300
X050090Y-048300
X050090Y-043930
X056200Y-047030
T03
X045950Y-059700
X048490Y-059700
X069920Y-059620
X072460Y-059620
X057350Y-025360
X057350Y-010120
T04
X023280Y-021820
X023280Y-019280
X023280Y-016740
T05
X007460Y-041000
X035680Y-059850
X040840Y-059850
X046000Y-052470
X048540Y-008410
X019490Y-008410
T06
X004250Y-058980
X006470Y-004050
M30
