M48
M71
T01C0.6
T02C0.8
T03C1.0
T04C2.0
T05C3.0
%
G05
T01
X033180Y-050920
X044450Y-050920
X052940Y-054090
X052940Y-056270
X052940Y-058460
X052940Y-062150
X052940Y-064330
X052940Y-066510
X057630Y-066510
X057630Y-062150
X057630Y-058460
X057630Y-054090
X057780Y-049530
X057780Y-044450
X054050Y-041990
X057740Y-038300
X057740Y-033220
X057150Y-029680
X056240Y-024370
X058740Y-024370
X061240Y-024370
X061200Y-018890
X058700Y-018890
X056200Y-018890
X062390Y-016190
X065210Y-016070
X065210Y-010990
X070290Y-010990
X071440Y-008730
X070000Y-002000
X057030Y-007060
X048260Y-006030
X044730Y-008060
X044730Y-013140
X048260Y-013180
X049370Y-019210
X049610Y-022180
X039650Y-013140
X039650Y-008060
X039650Y-004480
X033770Y-004400
X028560Y-014210
X028810Y-018810
X026470Y-018370
X023930Y-018370
X021390Y-018370
X016980Y-019440
X021390Y-023450
X023930Y-023450
X023970Y-025560
X026470Y-023450
X033800Y-018570
X035520Y-029680
X036350Y-038690
X062820Y-038300
X063020Y-041270
X062860Y-044450
X062860Y-049530
X062680Y-056250
X062680Y-058750
X062680Y-061250
X069130Y-058340
X072230Y-072310
X073100Y-039610
X069090Y-033890
X062820Y-033220
X071440Y-021190
X070290Y-016070
X022540Y-006390
X018730Y-006390
X018730Y-004480
X015830Y-006030
X018730Y-008290
X013810Y-012380
X008170Y-011740
X006150Y-010040
X005240Y-007620
X008730Y-005710
X011150Y-005360
X002000Y-002000
X001510Y-033180
T02
X027650Y-050050
X027650Y-045050
X027110Y-034370
X027110Y-031830
X010440Y-032070
X010870Y-027460
X010130Y-024130
X008740Y-020710
X008740Y-018170
X003390Y-020540
X002380Y-024130
X004680Y-031350
X003390Y-005500
X052330Y-008980
X052330Y-016730
X052550Y-033260
X050010Y-033260
X050010Y-035800
X052550Y-035800
X045080Y-041790
X049960Y-045130
X049960Y-050130
X038950Y-050110
X038950Y-045110
X066500Y-058000
X072230Y-061670
X066500Y-065750
X062270Y-066440
X059690Y-076840
T03
X039930Y-037110
X042470Y-037110
X045010Y-037110
X070740Y-030860
X070740Y-028320
X070740Y-025780
X070740Y-049910
X070740Y-052450
X070740Y-054990
T04
X015080Y-032110
X004840Y-027340
X037000Y-041000
X055090Y-070600
T05
X066360Y-075800
X066360Y-004480
M30
