%FSLAX34Y34*%
%MOMM*%
%LNCOPPER_BOTTOM*%
G71*
G01*
%ADD10C, 6.000*%
%ADD11C, 3.000*%
%ADD12C, 3.800*%
%ADD13C, 0.500*%
%ADD14C, 0.600*%
%ADD15C, 3.300*%
%ADD16C, 0.167*%
%ADD17C, 0.159*%
%ADD18C, 1.300*%
%ADD19R, 1.900X1.400*%
%ADD20R, 3.000X4.100*%
%ADD21R, 3.000X1.800*%
%ADD22C, 0.800*%
%ADD23R, 2.400X2.400*%
%ADD24R, 2.100X2.400*%
%ADD25R, 2.400X2.100*%
%ADD26C, 1.400*%
%ADD27R, 2.800X2.400*%
%ADD28C, 1.300*%
%ADD29R, 2.020X1.820*%
%ADD30C, 2.600*%
%ADD31R, 1.400X1.900*%
%ADD32C, 2.900*%
%ADD33C, 2.800*%
%ADD34C, 2.400*%
%ADD35C, 3.000*%
%ADD36C, 2.300*%
%ADD37C, 1.800*%
%ADD38C, 2.800*%
%ADD39C, 2.800*%
%ADD40C, 1.200*%
%ADD41C, 1.600*%
%ADD42C, 1.800*%
%ADD43C, 2.500*%
%ADD44C, 1.500*%
%ADD45R, 1.820X2.020*%
%ADD46C, 1.500*%
%ADD47R, 2.200X2.100*%
%ADD48C, 3.100*%
%ADD49R, 2.100X2.200*%
%ADD50R, 2.400X2.800*%
%ADD51C, 0.318*%
%ADD52C, 0.833*%
%ADD53C, 0.433*%
%ADD54C, 0.700*%
%ADD55C, 1.488*%
%ADD56C, 0.733*%
%ADD57C, 1.700*%
%ADD58C, 0.667*%
%ADD59C, 0.340*%
%ADD60C, 1.000*%
%ADD61C, 0.533*%
%ADD62C, 3.000*%
%ADD63C, 2.500*%
%ADD64R, 1.100X0.600*%
%ADD65R, 2.200X3.300*%
%ADD66R, 2.200X1.000*%
%ADD67C, 0.000*%
%ADD68R, 1.600X1.600*%
%ADD69R, 1.300X1.600*%
%ADD70R, 1.600X1.300*%
%ADD71R, 2.000X1.600*%
%ADD72R, 1.220X1.020*%
%ADD73R, 0.600X1.100*%
%ADD74C, 2.100*%
%ADD75C, 2.000*%
%ADD76C, 2.200*%
%ADD77C, 2.000*%
%ADD78C, 2.000*%
%ADD79C, 0.400*%
%ADD80R, 1.020X1.220*%
%ADD81R, 1.400X1.300*%
%ADD82R, 1.300X1.400*%
%ADD83R, 1.600X2.000*%
%ADD84C, 3.000*%
%LPD*%
G36*
X0Y0D02*
X745000Y0D01*
X745000Y-806000D01*
X0Y-806000D01*
X0Y0D01*
G37*
%LPC*%
X663575Y-44847D02*
G54D10*
D03*
X663575Y-758031D02*
G54D10*
D03*
X550863Y-706041D02*
G54D11*
D03*
X622697Y-664369D02*
G54D12*
D03*
G36*
X-3175Y-354806D02*
X-3969Y-809625D01*
X502444Y-810022D01*
X502444Y-529828D01*
X222250Y-529828D01*
X222250Y-354806D01*
X-3175Y-354806D01*
G37*
G54D13*
X-3175Y-354806D02*
X-3969Y-809625D01*
X502444Y-810022D01*
X502444Y-529828D01*
X222250Y-529828D01*
X222250Y-354806D01*
X-3175Y-354806D01*
G36*
X696119Y-807641D02*
X746125Y-807641D01*
X746125Y-756841D01*
X696119Y-807641D01*
G37*
G54D14*
X696119Y-807641D02*
X746125Y-807641D01*
X746125Y-756841D01*
X696119Y-807641D01*
G36*
X700088Y0D02*
X746125Y-45244D01*
X746125Y0D01*
X700088Y0D01*
G37*
G54D14*
X700088Y0D02*
X746125Y-45244D01*
X746125Y0D01*
X700088Y0D01*
X370000Y-410000D02*
G54D11*
D03*
X450850Y-417909D02*
G54D12*
D03*
X150813Y-321072D02*
G54D11*
D03*
X48419Y-273447D02*
G54D11*
D03*
X104378Y-320674D02*
G54D15*
D03*
G54D16*
X206822Y-326867D02*
X202822Y-326867D01*
X202822Y-331034D01*
X203822Y-332700D01*
X205822Y-333534D01*
X207822Y-333534D01*
X209822Y-332700D01*
X210822Y-331034D01*
X210822Y-322700D01*
X209822Y-321034D01*
X207822Y-320200D01*
X205822Y-320200D01*
X203822Y-321034D01*
X202822Y-322700D01*
G54D16*
X199155Y-333534D02*
X199155Y-320200D01*
X191155Y-333534D01*
X191155Y-320200D01*
G54D16*
X187488Y-333534D02*
X187488Y-320200D01*
X182488Y-320200D01*
X180488Y-321034D01*
X179488Y-322700D01*
X179488Y-331034D01*
X180488Y-332700D01*
X182488Y-333534D01*
X187488Y-333534D01*
X46832Y-313531D02*
G54D15*
D03*
G54D17*
X65700Y-344408D02*
X60367Y-344408D01*
G54D17*
X63033Y-344408D02*
X63033Y-335519D01*
G54D17*
X65700Y-335519D02*
X60367Y-335519D01*
G54D17*
X57256Y-344408D02*
X57256Y-335519D01*
X52589Y-335519D01*
G54D17*
X57256Y-339964D02*
X52589Y-339964D01*
G54D17*
X46234Y-344408D02*
X46234Y-339408D01*
G54D17*
X46234Y-337742D02*
X46234Y-337742D01*
G54D17*
X43123Y-344408D02*
X43123Y-339408D01*
G54D17*
X43123Y-340519D02*
X42456Y-339741D01*
X41123Y-339408D01*
X39790Y-339741D01*
X39123Y-340519D01*
X39123Y-344408D01*
G54D18*
X34131Y-95250D02*
X33925Y-54975D01*
X15081Y-76200D01*
X15081Y-278606D01*
X46832Y-313531D01*
X74673Y-95100D02*
G54D19*
D03*
X101673Y-95100D02*
G54D19*
D03*
X74673Y-85306D02*
G54D19*
D03*
X101673Y-85306D02*
G54D19*
D03*
X74673Y-75512D02*
G54D19*
D03*
X101673Y-75512D02*
G54D19*
D03*
X74673Y-100259D02*
G54D19*
D03*
X280189Y-410844D02*
G54D20*
D03*
X337339Y-410843D02*
G54D21*
D03*
X337339Y-436243D02*
G54D21*
D03*
X337340Y-385443D02*
G54D21*
D03*
G36*
X348055Y-406081D02*
X322655Y-406081D01*
X322655Y-368378D01*
X257171Y-368378D01*
X257171Y-453309D01*
X322655Y-453309D01*
X322655Y-415606D01*
X348055Y-415606D01*
X348055Y-406081D01*
G37*
G54D22*
X348055Y-406081D02*
X322655Y-406081D01*
X322655Y-368378D01*
X257171Y-368378D01*
X257171Y-453309D01*
X322655Y-453309D01*
X322655Y-415606D01*
X348055Y-415606D01*
X348055Y-406081D01*
X131762Y-112712D02*
G54D23*
D03*
X103762Y-112712D02*
G54D23*
D03*
X144244Y-286762D02*
G54D23*
D03*
G36*
X160244Y-274763D02*
X184244Y-274762D01*
X184244Y-298762D01*
X160244Y-298763D01*
X160244Y-274763D01*
G37*
G54D18*
X258762Y-370681D02*
X249238Y-370681D01*
X242888Y-364331D01*
X242888Y-333375D01*
X196850Y-287338D01*
X172244Y-287338D01*
X117873Y-85725D02*
G54D24*
D03*
G36*
X126373Y-73725D02*
X147373Y-73725D01*
X147373Y-97725D01*
X126373Y-97725D01*
X126373Y-73725D01*
G37*
X93662Y-137319D02*
G54D25*
D03*
X93662Y-156319D02*
G54D25*
D03*
G54D26*
X87391Y-181701D02*
X93662Y-156319D01*
X206376Y-44847D02*
G54D24*
D03*
X225376Y-44847D02*
G54D24*
D03*
X206050Y-83135D02*
G54D24*
D03*
G36*
X214550Y-71135D02*
X235550Y-71135D01*
X235551Y-95135D01*
X214551Y-95135D01*
X214550Y-71135D01*
G37*
X173831Y-96838D02*
G54D27*
D03*
X173831Y-124838D02*
G54D27*
D03*
G54D26*
X173831Y-96838D02*
X187325Y-82947D01*
X225425Y-63897D02*
G54D28*
D03*
X227012Y-137319D02*
G54D29*
D03*
X204112Y-127119D02*
G54D29*
D03*
X204112Y-147519D02*
G54D29*
D03*
G54D26*
X173831Y-124838D02*
X177006Y-147638D01*
X204112Y-147519D01*
G54D26*
X204112Y-147519D02*
X201520Y-165975D01*
G54D26*
X213888Y-183737D02*
X220520Y-165975D01*
X227013Y-137319D01*
X239288Y-234537D02*
G54D30*
D03*
X213888Y-234537D02*
G54D30*
D03*
X264688Y-183737D02*
G54D30*
D03*
X239288Y-183737D02*
G54D30*
D03*
X213888Y-183737D02*
G54D30*
D03*
X264688Y-234537D02*
G54D30*
D03*
X192088Y-258762D02*
G54D23*
D03*
X192088Y-286762D02*
G54D23*
D03*
X169837Y-194443D02*
G54D28*
D03*
G54D26*
X213519Y-234156D02*
X191294Y-234950D01*
X192088Y-258762D01*
G54D26*
X206349Y-109562D02*
X204112Y-127119D01*
G54D26*
X251918Y-106894D02*
X272256Y-107156D01*
G54D26*
X265112Y-183737D02*
X265112Y-194838D01*
X239288Y-220662D01*
X239288Y-234113D01*
X239688Y-255562D01*
X239688Y-255562D02*
G54D30*
D03*
G36*
X-3175Y-354806D02*
X-3969Y-809625D01*
X502444Y-810022D01*
X502444Y-529828D01*
X222250Y-529828D01*
X222250Y-354806D01*
X-3175Y-354806D01*
G37*
G54D13*
X-3175Y-354806D02*
X-3969Y-809625D01*
X502444Y-810022D01*
X502444Y-529828D01*
X222250Y-529828D01*
X222250Y-354806D01*
X-3175Y-354806D01*
X289363Y-209032D02*
G54D31*
D03*
X289363Y-236032D02*
G54D31*
D03*
X299157Y-209032D02*
G54D31*
D03*
X299157Y-236032D02*
G54D31*
D03*
X308951Y-209032D02*
G54D31*
D03*
X308951Y-236032D02*
G54D31*
D03*
X284204Y-209032D02*
G54D31*
D03*
G54D26*
X264688Y-234537D02*
X264688Y-219499D01*
X274638Y-209550D01*
X283686Y-209550D01*
X284204Y-209032D01*
G54D26*
X308951Y-209032D02*
X308951Y-181951D01*
X292100Y-165100D01*
X257925Y-165100D01*
X239288Y-183737D01*
X335756Y-263525D02*
G54D25*
D03*
X335756Y-244525D02*
G54D25*
D03*
G54D26*
X357188Y-263525D02*
X334962Y-262731D01*
X314325Y-262731D01*
G54D26*
X298450Y-306388D02*
X299244Y-282575D01*
X299157Y-236032D01*
G54D26*
X315338Y-261938D02*
X318244Y-282575D01*
X277019Y-284162D02*
G54D24*
D03*
X258019Y-284162D02*
G54D24*
D03*
G54D26*
X289363Y-236032D02*
X284956Y-262731D01*
X277019Y-284162D01*
X285750Y-261938D02*
G54D23*
D03*
X313750Y-261938D02*
G54D23*
D03*
G36*
X256566Y-329195D02*
X285566Y-329195D01*
X285566Y-358195D01*
X256566Y-358195D01*
X256566Y-329195D01*
G37*
X271066Y-318295D02*
G54D32*
D03*
G54D33*
X500063Y-332581D02*
X499419Y-451095D01*
X450056Y-419100D01*
G54D26*
X271066Y-318295D02*
X258019Y-284162D01*
G54D26*
X298450Y-306388D02*
X300831Y-329406D01*
G36*
X72891Y-192601D02*
X101891Y-192601D01*
X101891Y-221601D01*
X72891Y-221601D01*
X72891Y-192601D01*
G37*
X87391Y-181701D02*
G54D32*
D03*
G54D26*
X576256Y-621486D02*
X576256Y-584571D01*
X576256Y-540921D02*
G54D34*
D03*
X529431Y-562746D02*
G54D34*
D03*
X529431Y-540921D02*
G54D34*
D03*
X529431Y-584571D02*
G54D34*
D03*
X576256Y-584571D02*
G54D34*
D03*
G54D26*
X576256Y-584571D02*
X529431Y-584571D01*
X577081Y-602802D02*
G54D24*
D03*
X596081Y-602803D02*
G54D24*
D03*
X707400Y-549900D02*
G54D35*
D03*
X707400Y-524500D02*
G54D35*
D03*
X707400Y-499100D02*
G54D35*
D03*
X707400Y-308600D02*
G54D35*
D03*
X707400Y-283200D02*
G54D35*
D03*
X707400Y-257800D02*
G54D35*
D03*
X577426Y-382968D02*
G54D30*
D03*
X628226Y-332168D02*
G54D30*
D03*
X577426Y-332168D02*
G54D30*
D03*
X628226Y-382969D02*
G54D30*
D03*
X577850Y-495300D02*
G54D30*
D03*
X628650Y-444500D02*
G54D30*
D03*
X577850Y-444500D02*
G54D30*
D03*
X628650Y-495300D02*
G54D30*
D03*
G54D36*
X707400Y-524500D02*
X651440Y-524500D01*
X628650Y-495300D01*
G54D36*
X708025Y-282575D02*
X690959Y-282575D01*
X628650Y-332581D01*
G54D26*
X529431Y-540921D02*
X576256Y-540921D01*
G54D36*
X628226Y-382968D02*
X604838Y-357981D01*
X525463Y-357981D01*
G54D36*
X628650Y-495300D02*
X603250Y-469900D01*
X603250Y-408793D01*
X577426Y-382968D01*
G54D36*
X628650Y-444500D02*
X657225Y-429419D01*
X657225Y-361168D01*
X628226Y-332168D01*
G54D26*
X707400Y-416143D02*
X707400Y-381626D01*
X733425Y-355600D01*
X733374Y-182960D01*
G54D37*
X707400Y-257800D02*
X680244Y-243681D01*
G54D26*
X707400Y-446256D02*
X707400Y-499100D01*
X672019Y-497175D02*
G54D23*
D03*
X672019Y-525175D02*
G54D23*
D03*
X693688Y-477837D02*
G54D24*
D03*
X674688Y-477837D02*
G54D24*
D03*
G54D26*
X693688Y-477837D02*
X706438Y-477838D01*
G54D26*
X672019Y-497175D02*
X674688Y-477837D01*
X662781Y-265112D02*
G54D23*
D03*
X662781Y-293112D02*
G54D23*
D03*
X680244Y-243681D02*
G54D24*
D03*
X661244Y-243681D02*
G54D24*
D03*
G54D26*
X662781Y-265112D02*
X661531Y-243394D01*
X652059Y-109913D02*
G54D30*
D03*
X702859Y-160713D02*
G54D30*
D03*
X702859Y-109913D02*
G54D30*
D03*
X652058Y-160713D02*
G54D30*
D03*
G36*
X514063Y-318581D02*
X514063Y-346581D01*
X486063Y-346581D01*
X486063Y-318581D01*
X514063Y-318581D01*
G37*
X525462Y-332581D02*
G54D38*
D03*
G54D36*
X577850Y-332581D02*
X525462Y-332581D01*
G36*
X514063Y-343981D02*
X514063Y-371981D01*
X486063Y-371981D01*
X486063Y-343981D01*
X514063Y-343981D01*
G37*
X525463Y-357981D02*
G54D38*
D03*
X630212Y-412725D02*
G54D28*
D03*
X722288Y-723081D02*
G54D28*
D03*
X540519Y-419869D02*
G54D28*
D03*
X725859Y-128562D02*
G54D25*
D03*
X725859Y-109562D02*
G54D25*
D03*
X651669Y-195262D02*
G54D25*
D03*
X651669Y-176262D02*
G54D25*
D03*
X571475Y-296838D02*
G54D28*
D03*
X496069Y-221828D02*
G54D28*
D03*
X337716Y-44028D02*
G54D39*
D03*
X561975Y-188912D02*
G54D30*
D03*
X586975Y-188912D02*
G54D30*
D03*
X611975Y-188912D02*
G54D30*
D03*
X562372Y-243681D02*
G54D30*
D03*
X587372Y-243681D02*
G54D30*
D03*
X612372Y-243681D02*
G54D30*
D03*
G54D18*
X628650Y-235744D02*
X611981Y-243681D01*
X627062Y-254000D01*
X627062Y-254000D02*
G54D25*
D03*
X627063Y-273000D02*
G54D25*
D03*
G54D26*
X587772Y-243681D02*
X560784Y-243681D01*
X608263Y-134256D02*
G54D24*
D03*
X589263Y-134256D02*
G54D24*
D03*
G54D40*
X611981Y-188912D02*
X597406Y-162212D01*
X608263Y-134256D01*
X731019Y-396056D02*
G54D28*
D03*
G54D41*
X587375Y-188912D02*
X561975Y-188912D01*
X562372Y-243681D01*
X519331Y-267097D01*
X491331Y-267097D02*
G54D23*
D03*
X519331Y-267097D02*
G54D23*
D03*
G54D37*
X305605Y-373737D02*
X491331Y-267097D01*
X554038Y-205581D02*
G54D24*
D03*
X535037Y-205581D02*
G54D24*
D03*
X20000Y-20000D02*
G54D42*
D03*
X355178Y-296838D02*
G54D28*
D03*
G54D40*
X608012Y-134144D02*
X662781Y-134144D01*
X677862Y-157956D01*
X677862Y-173038D01*
X692150Y-187325D01*
X710534Y-187326D01*
X700000Y-20000D02*
G54D28*
D03*
G54D26*
X308951Y-237620D02*
X313750Y-261938D01*
G54D43*
X178825Y-44847D02*
X195825Y-44847D01*
G54D43*
X178825Y-63897D02*
X195825Y-63897D01*
G54D43*
X178825Y-82947D02*
X195825Y-82947D01*
G54D18*
X703262Y-109538D02*
X711200Y-109538D01*
X727472Y-109538D01*
G54D44*
X703262Y-160338D02*
X669925Y-109538D01*
X652462Y-109538D01*
X620988Y-106450D02*
G54D25*
D03*
X620988Y-87450D02*
G54D25*
D03*
X714350Y-87288D02*
G54D30*
D03*
G54D18*
X703262Y-109538D02*
X714375Y-87312D01*
X623862Y-161900D02*
G54D30*
D03*
G54D18*
X623888Y-161925D02*
X652462Y-161925D01*
X342106Y-96838D02*
G54D45*
D03*
X352306Y-73938D02*
G54D45*
D03*
X331906Y-73938D02*
G54D45*
D03*
X422221Y-80667D02*
G54D25*
D03*
X422221Y-61667D02*
G54D25*
D03*
X421988Y-205472D02*
G54D23*
D03*
X421988Y-233472D02*
G54D23*
D03*
G54D18*
X422275Y-233759D02*
X422275Y-307578D01*
G54D18*
X421988Y-205472D02*
X421878Y-168275D01*
X422221Y-80667D01*
X396478Y-80566D01*
X482600Y-131762D02*
G54D30*
D03*
X482600Y-60325D02*
G54D30*
D03*
G54D18*
X482625Y-60350D02*
X467519Y-60325D01*
X447675Y-80169D01*
X447278Y-80566D01*
G54D18*
X447251Y-131350D02*
X482201Y-131363D01*
X482600Y-131762D01*
X396453Y-44822D02*
G54D28*
D03*
X33925Y-54975D02*
G54D15*
D03*
X33925Y-205375D02*
G54D15*
D03*
X33312Y-95275D02*
G54D25*
D03*
X33312Y-114275D02*
G54D25*
D03*
G54D18*
X33338Y-114300D02*
X33338Y-196850D01*
G54D18*
X102394Y-75406D02*
X102394Y-53181D01*
X110728Y-44847D01*
X185738Y-44847D01*
X138112Y-123825D02*
G54D30*
D03*
X61491Y-100384D02*
G54D30*
D03*
X158328Y-60300D02*
G54D46*
D03*
G54D18*
X101600Y-96044D02*
X101600Y-112712D01*
X92472Y-138509D01*
G54D18*
X102394Y-85725D02*
X117475Y-85725D01*
X117475Y-200025D01*
X144244Y-288350D01*
X288106Y-188094D02*
G54D42*
D03*
X626781Y-562494D02*
G54D30*
D03*
X626781Y-587494D02*
G54D30*
D03*
X626781Y-612494D02*
G54D30*
D03*
X665019Y-579978D02*
G54D38*
D03*
X665019Y-657478D02*
G54D38*
D03*
G54D18*
X626666Y-587375D02*
X648494Y-587375D01*
X665162Y-579834D01*
X523334Y-89838D02*
G54D38*
D03*
X523334Y-167338D02*
G54D38*
D03*
G54D37*
X652462Y-109538D02*
X620712Y-106362D01*
X591344Y-101600D01*
X558403Y-102394D01*
X715869Y-626530D02*
G54D29*
D03*
X692969Y-616330D02*
G54D29*
D03*
X692969Y-636730D02*
G54D29*
D03*
G54D18*
X690056Y-683706D02*
X689770Y-657226D01*
X722287Y-616718D02*
G54D15*
D03*
G54D18*
X715869Y-626530D02*
X722312Y-616744D01*
X251593Y-107131D02*
G54D25*
D03*
X251593Y-88131D02*
G54D25*
D03*
X37704Y-177006D02*
G54D24*
D03*
G36*
X46204Y-165006D02*
X67204Y-165006D01*
X67204Y-189006D01*
X46204Y-189006D01*
X46204Y-165006D01*
G37*
G54D37*
X529431Y-540921D02*
X536575Y-495300D01*
X596900Y-768350D02*
G54D12*
D03*
X554038Y-541312D02*
G54D25*
D03*
X554038Y-560312D02*
G54D25*
D03*
G54D18*
X586362Y-552450D02*
X576256Y-540921D01*
X363512Y-386928D02*
G54D28*
D03*
X69825Y-55538D02*
G54D24*
D03*
X50825Y-55538D02*
G54D24*
D03*
G54D18*
X73025Y-76200D02*
X73025Y-57150D01*
X69850Y-53975D01*
X87287Y-57125D02*
G54D28*
D03*
X81731Y-117450D02*
G54D28*
D03*
X52362Y-76175D02*
G54D28*
D03*
X396478Y-80566D02*
G54D30*
D03*
X447278Y-131366D02*
G54D30*
D03*
X447278Y-80566D02*
G54D30*
D03*
X396478Y-131366D02*
G54D30*
D03*
X312738Y-53975D02*
G54D25*
D03*
X312738Y-72975D02*
G54D25*
D03*
G54D18*
X352425Y-73819D02*
X368300Y-74216D01*
G54D40*
X313134Y-74562D02*
X331906Y-73938D01*
X365919Y-126206D02*
G54D29*
D03*
X343019Y-116006D02*
G54D29*
D03*
X343019Y-136406D02*
G54D29*
D03*
G54D40*
X312738Y-72975D02*
X312738Y-107156D01*
G54D18*
X342106Y-96838D02*
X342106Y-115093D01*
X343019Y-116006D01*
G54D18*
X365919Y-126206D02*
X396478Y-131366D01*
G54D40*
X342900Y-136525D02*
X323056Y-136525D01*
X312738Y-126206D01*
X367815Y-74019D02*
G54D47*
D03*
X367815Y-55018D02*
G54D47*
D03*
G54D40*
X343019Y-136406D02*
X342900Y-160338D01*
X351234Y-168672D01*
X374522Y-168672D01*
G54D18*
X312738Y-53975D02*
X337716Y-44028D01*
X342900Y-160338D02*
G54D24*
D03*
X323900Y-160338D02*
G54D24*
D03*
G54D18*
X393522Y-168672D02*
X421036Y-168672D01*
X421060Y-168647D01*
X23812Y-241300D02*
G54D38*
D03*
X101313Y-241300D02*
G54D38*
D03*
X87897Y-241583D02*
G54D24*
D03*
X68897Y-241583D02*
G54D24*
D03*
G54D18*
X16272Y-241300D02*
X16272Y-241300D01*
X191294Y-234950D02*
G54D25*
D03*
X191294Y-215950D02*
G54D25*
D03*
G54D48*
X399256Y-359578D02*
X399256Y-382578D01*
G54D48*
X450056Y-359578D02*
X450056Y-382578D01*
G54D48*
X424656Y-359578D02*
X424656Y-382578D01*
G54D18*
X480180Y-89784D02*
X458788Y-106759D01*
X422275Y-106759D01*
G54D18*
X499180Y-89784D02*
X523334Y-89838D01*
G54D18*
X493712Y-192088D02*
X493712Y-158750D01*
X550069Y-102394D01*
X558006Y-102394D01*
X493712Y-192088D02*
G54D39*
D03*
G54D48*
X424656Y-371078D02*
X424656Y-394492D01*
X389484Y-451095D01*
G54D37*
X389484Y-451095D02*
X352191Y-451095D01*
X337339Y-436243D01*
X576256Y-621486D02*
G54D34*
D03*
X529431Y-643312D02*
G54D34*
D03*
X529431Y-621486D02*
G54D34*
D03*
X529431Y-665136D02*
G54D34*
D03*
X576256Y-665136D02*
G54D34*
D03*
G54D26*
X576256Y-665136D02*
X529431Y-665136D01*
G54D26*
X529431Y-621486D02*
X576256Y-621486D01*
G54D18*
X622697Y-664369D02*
X576627Y-664766D01*
X576256Y-665136D01*
X552846Y-664293D02*
G54D25*
D03*
X552847Y-645293D02*
G54D25*
D03*
X444475Y-509166D02*
G54D28*
D03*
X331762Y-509166D02*
G54D28*
D03*
G54D26*
X233287Y-109562D02*
X251593Y-107131D01*
X570284Y-70619D02*
G54D28*
D03*
X352028Y-455189D02*
G54D25*
D03*
X352028Y-474190D02*
G54D25*
D03*
X691331Y-583381D02*
G54D28*
D03*
X690934Y-338906D02*
G54D28*
D03*
X337990Y-185713D02*
G54D28*
D03*
X285602Y-142056D02*
G54D28*
D03*
G54D26*
X729456Y-185738D02*
X729456Y-146844D01*
X725488Y-128588D01*
X558800Y-102394D02*
G54D25*
D03*
X558800Y-121394D02*
G54D25*
D03*
G54D18*
X140444Y-145256D02*
X131762Y-112712D01*
G54D26*
X191294Y-234950D02*
X163512Y-234950D01*
X111522Y-53578D02*
G54D30*
D03*
X299244Y-307975D02*
G54D24*
D03*
X318244Y-307975D02*
G54D24*
D03*
X714350Y-211906D02*
G54D28*
D03*
X679450Y-215900D02*
G54D23*
D03*
X651450Y-215900D02*
G54D23*
D03*
G54D37*
X629732Y-215394D02*
X651450Y-215900D01*
X651863Y-195236D01*
G54D37*
X651669Y-176262D02*
X652058Y-160713D01*
G54D37*
X679450Y-215106D02*
X680066Y-243681D01*
X702756Y-445006D02*
G54D23*
D03*
X702756Y-417006D02*
G54D23*
D03*
G54D18*
X689794Y-637524D02*
X689770Y-657226D01*
X665019Y-657478D01*
X121444Y-145256D02*
G54D49*
D03*
X140444Y-145256D02*
G54D49*
D03*
X121841Y-171450D02*
G54D24*
D03*
G36*
X130341Y-159450D02*
X151341Y-159450D01*
X151342Y-183450D01*
X130342Y-183450D01*
X130341Y-159450D01*
G37*
X164306Y-234950D02*
G54D25*
D03*
X164306Y-215950D02*
G54D25*
D03*
X177006Y-147638D02*
G54D47*
D03*
X177007Y-166638D02*
G54D47*
D03*
X201520Y-165975D02*
G54D49*
D03*
X220520Y-165975D02*
G54D49*
D03*
X272256Y-107156D02*
G54D47*
D03*
X272256Y-88156D02*
G54D47*
D03*
X299244Y-282575D02*
G54D49*
D03*
X318244Y-282575D02*
G54D49*
D03*
X357188Y-263525D02*
G54D47*
D03*
X357187Y-244525D02*
G54D47*
D03*
X300831Y-329406D02*
G54D23*
D03*
X300831Y-357406D02*
G54D23*
D03*
G54D36*
X300831Y-357406D02*
X300831Y-377031D01*
X398438Y-311919D02*
G54D25*
D03*
X398438Y-292919D02*
G54D25*
D03*
X374522Y-168672D02*
G54D49*
D03*
X393522Y-168672D02*
G54D49*
D03*
X312738Y-107156D02*
G54D47*
D03*
X312738Y-126156D02*
G54D47*
D03*
X480180Y-89784D02*
G54D49*
D03*
X499180Y-89784D02*
G54D49*
D03*
X597406Y-162212D02*
G54D49*
D03*
X578406Y-162213D02*
G54D49*
D03*
X710534Y-187326D02*
G54D49*
D03*
X729534Y-187326D02*
G54D49*
D03*
X628494Y-235531D02*
G54D47*
D03*
X628494Y-216531D02*
G54D47*
D03*
X554121Y-227683D02*
G54D24*
D03*
X535121Y-227683D02*
G54D24*
D03*
X606425Y-254000D02*
G54D47*
D03*
X606426Y-273000D02*
G54D47*
D03*
X233361Y-109537D02*
G54D23*
D03*
X205361Y-109537D02*
G54D23*
D03*
G54D18*
X614362Y-552450D02*
X626781Y-562494D01*
X690056Y-683706D02*
G54D49*
D03*
X709056Y-683706D02*
G54D49*
D03*
X499576Y-501343D02*
G54D38*
D03*
X499576Y-451343D02*
G54D38*
D03*
X389484Y-501095D02*
G54D38*
D03*
X389484Y-451095D02*
G54D38*
D03*
X276532Y-500549D02*
G54D38*
D03*
X276532Y-450549D02*
G54D38*
D03*
X108718Y-274612D02*
G54D15*
D03*
X15056Y-331762D02*
G54D28*
D03*
X614362Y-552450D02*
G54D23*
D03*
X586362Y-552450D02*
G54D23*
D03*
X405606Y-452438D02*
G54D50*
D03*
X433606Y-452438D02*
G54D50*
D03*
X564432Y-445132D02*
G54D50*
D03*
X536432Y-445131D02*
G54D50*
D03*
X536575Y-495300D02*
G54D50*
D03*
X564575Y-495300D02*
G54D50*
D03*
X546285Y-359010D02*
G54D27*
D03*
X546284Y-387009D02*
G54D27*
D03*
X545975Y-331681D02*
G54D27*
D03*
X545976Y-303681D02*
G54D27*
D03*
X457869Y-280087D02*
G54D27*
D03*
X457870Y-252088D02*
G54D27*
D03*
G36*
X409035Y-154672D02*
X433035Y-154672D01*
X433036Y-182672D01*
X409036Y-182672D01*
X409035Y-154672D01*
G37*
G36*
X437035Y-154672D02*
X461035Y-154672D01*
X461035Y-182672D01*
X437035Y-182672D01*
X437035Y-154672D01*
G37*
X591344Y-101600D02*
G54D27*
D03*
X591344Y-73600D02*
G54D27*
D03*
X665134Y-644380D02*
G54D27*
D03*
X665134Y-616381D02*
G54D27*
D03*
G54D51*
X49904Y-9362D02*
X49904Y-23806D01*
X51237Y-26028D01*
X53904Y-27140D01*
X56570Y-27140D01*
X59237Y-26028D01*
X60570Y-23806D01*
X60570Y-9362D01*
G54D51*
X66793Y-27140D02*
X66793Y-9362D01*
X73459Y-9362D01*
X76126Y-10473D01*
X77459Y-12695D01*
X77459Y-23806D01*
X76126Y-26028D01*
X73459Y-27140D01*
X66793Y-27140D01*
G54D51*
X94348Y-12695D02*
X94348Y-23806D01*
X93015Y-26028D01*
X90348Y-27140D01*
X87682Y-27140D01*
X85015Y-26028D01*
X83682Y-23806D01*
X83682Y-12695D01*
X85015Y-10473D01*
X87682Y-9362D01*
X90348Y-9362D01*
X93015Y-10473D01*
X94348Y-12695D01*
G54D51*
X111237Y-23806D02*
X109904Y-26028D01*
X107237Y-27140D01*
X104571Y-27140D01*
X101904Y-26028D01*
X100571Y-23806D01*
X100571Y-12695D01*
X101904Y-10473D01*
X104571Y-9362D01*
X107237Y-9362D01*
X109904Y-10473D01*
X111237Y-12695D01*
G54D51*
X117460Y-27140D02*
X124126Y-9362D01*
X130793Y-27140D01*
G54D51*
X120126Y-20473D02*
X128126Y-20473D01*
G54D51*
X147681Y-9362D02*
X147681Y-23806D01*
X146348Y-26028D01*
X143681Y-27140D01*
X141015Y-27140D01*
X138348Y-26028D01*
X137015Y-23806D01*
G54D51*
X401535Y-27933D02*
X401535Y-10156D01*
G54D51*
X401535Y-22378D02*
X412202Y-10156D01*
G54D51*
X405535Y-19044D02*
X412202Y-27933D01*
G54D51*
X418424Y-19044D02*
X421091Y-17933D01*
X424291Y-17933D01*
X426424Y-20156D01*
X426424Y-27933D01*
G54D51*
X426424Y-24600D02*
X425091Y-22378D01*
X422424Y-21933D01*
X419757Y-22378D01*
X418424Y-24600D01*
X418957Y-26822D01*
X421091Y-27933D01*
X422424Y-27933D01*
X422957Y-27933D01*
X425091Y-26822D01*
X426424Y-24600D01*
G54D51*
X432646Y-27933D02*
X432646Y-17933D01*
G54D51*
X432646Y-20156D02*
X435313Y-17933D01*
X437979Y-17933D01*
G54D51*
X444201Y-19044D02*
X446868Y-17933D01*
X450068Y-17933D01*
X452201Y-20156D01*
X452201Y-27933D01*
G54D51*
X452201Y-24600D02*
X450868Y-22378D01*
X448201Y-21933D01*
X445534Y-22378D01*
X444201Y-24600D01*
X444734Y-26822D01*
X446868Y-27933D01*
X448201Y-27933D01*
X448734Y-27933D01*
X450868Y-26822D01*
X452201Y-24600D01*
G54D51*
X461090Y-10156D02*
X461090Y-26822D01*
X462423Y-27933D01*
X463756Y-27489D01*
G54D51*
X458423Y-17933D02*
X463756Y-17933D01*
G54D51*
X469978Y-20156D02*
X480645Y-20156D01*
G54D51*
X486867Y-13489D02*
X488200Y-11267D01*
X490867Y-10156D01*
X493534Y-10156D01*
X496200Y-11267D01*
X497534Y-13489D01*
X497534Y-15711D01*
X496200Y-17933D01*
X493534Y-19044D01*
X496200Y-20156D01*
X497534Y-22378D01*
X497534Y-24600D01*
X496200Y-26822D01*
X493534Y-27933D01*
X490867Y-27933D01*
X488200Y-26822D01*
X486867Y-24600D01*
G54D51*
X515578Y-27933D02*
X515578Y-10156D01*
G54D51*
X510245Y-10156D02*
X520912Y-10156D01*
G54D51*
X527134Y-10156D02*
X540467Y-27933D01*
G54D51*
X527134Y-27933D02*
X540467Y-10156D01*
G54D51*
X553178Y-27933D02*
X553178Y-10156D01*
X559845Y-10156D01*
X562511Y-11267D01*
X563845Y-13489D01*
X563845Y-15711D01*
X562511Y-17933D01*
X559845Y-19044D01*
X562511Y-20156D01*
X563845Y-22378D01*
X563845Y-24600D01*
X562511Y-26822D01*
X559845Y-27933D01*
X553178Y-27933D01*
G54D51*
X553178Y-19044D02*
X559845Y-19044D01*
G54D51*
X578067Y-25267D02*
X578067Y-20822D01*
X576734Y-18600D01*
X574067Y-17933D01*
X571400Y-18600D01*
X570067Y-20822D01*
X570067Y-25267D01*
X571400Y-27489D01*
X574067Y-27933D01*
X576734Y-27489D01*
X578067Y-25267D01*
G54D51*
X584289Y-19044D02*
X586956Y-17933D01*
X590156Y-17933D01*
X592289Y-20156D01*
X592289Y-27933D01*
G54D51*
X592289Y-24600D02*
X590956Y-22378D01*
X588289Y-21933D01*
X585622Y-22378D01*
X584289Y-24600D01*
X584822Y-26822D01*
X586956Y-27933D01*
X588289Y-27933D01*
X588822Y-27933D01*
X590956Y-26822D01*
X592289Y-24600D01*
G54D51*
X598511Y-27933D02*
X598511Y-17933D01*
G54D51*
X598511Y-20156D02*
X601178Y-17933D01*
X603844Y-17933D01*
G54D51*
X618066Y-27933D02*
X618066Y-10156D01*
G54D51*
X618066Y-20822D02*
X616733Y-18600D01*
X614066Y-17933D01*
X611399Y-18600D01*
X610066Y-20822D01*
X610066Y-25267D01*
X611399Y-27489D01*
X614066Y-27933D01*
X616733Y-27489D01*
X618066Y-25267D01*
G54D51*
X234054Y-16822D02*
X240720Y-10156D01*
X240720Y-27933D01*
G54D51*
X246943Y-13489D02*
X248276Y-11267D01*
X250943Y-10156D01*
X253609Y-10156D01*
X256276Y-11267D01*
X257609Y-13489D01*
X257609Y-15711D01*
X256276Y-17933D01*
X253609Y-19044D01*
X256276Y-20156D01*
X257609Y-22378D01*
X257609Y-24600D01*
X256276Y-26822D01*
X253609Y-27933D01*
X250943Y-27933D01*
X248276Y-26822D01*
X246943Y-24600D01*
G54D51*
X271832Y-27933D02*
X271832Y-10156D01*
X263832Y-21267D01*
X263832Y-23489D01*
X274498Y-23489D01*
G54D51*
X280721Y-27933D02*
X280721Y-10156D01*
G54D51*
X284721Y-21267D02*
X288721Y-27933D01*
G54D51*
X280721Y-23489D02*
X288721Y-17933D01*
G54D51*
X305609Y-13489D02*
X305609Y-24600D01*
X304276Y-26822D01*
X301609Y-27933D01*
X298943Y-27933D01*
X296276Y-26822D01*
X294943Y-24600D01*
X294943Y-13489D01*
X296276Y-11267D01*
X298943Y-10156D01*
X301609Y-10156D01*
X304276Y-11267D01*
X305609Y-13489D01*
G54D51*
X311832Y-13489D02*
X313165Y-11267D01*
X315832Y-10156D01*
X318498Y-10156D01*
X321165Y-11267D01*
X322498Y-13489D01*
X322498Y-15711D01*
X321165Y-17933D01*
X318498Y-19044D01*
X321165Y-20156D01*
X322498Y-22378D01*
X322498Y-24600D01*
X321165Y-26822D01*
X318498Y-27933D01*
X315832Y-27933D01*
X313165Y-26822D01*
X311832Y-24600D01*
%LPD*%
G54D52*
G36*
X101432Y-317728D02*
X113452Y-305707D01*
X119345Y-311600D01*
X107324Y-323620D01*
X101432Y-317728D01*
G37*
G36*
X107324Y-317728D02*
X119345Y-329749D01*
X113452Y-335641D01*
X101432Y-323620D01*
X107324Y-317728D01*
G37*
G36*
X107324Y-323620D02*
X95303Y-335641D01*
X89411Y-329749D01*
X101432Y-317728D01*
X107324Y-323620D01*
G37*
G36*
X101432Y-323620D02*
X89411Y-311600D01*
X95303Y-305707D01*
X107324Y-317728D01*
X101432Y-323620D01*
G37*
G54D14*
G36*
X74673Y-88306D02*
X64673Y-88306D01*
X64673Y-82306D01*
X74673Y-82306D01*
X74673Y-88306D01*
G37*
G36*
X74673Y-82306D02*
X84673Y-82306D01*
X84673Y-88306D01*
X74673Y-88306D01*
X74673Y-82306D01*
G37*
G54D13*
G36*
X337340Y-382943D02*
X352839Y-382943D01*
X352840Y-387943D01*
X337340Y-387943D01*
X337340Y-382943D01*
G37*
G36*
X339840Y-385443D02*
X339840Y-394943D01*
X334840Y-394943D01*
X334840Y-385443D01*
X339840Y-385443D01*
G37*
G36*
X334840Y-385443D02*
X334839Y-375943D01*
X339839Y-375943D01*
X339840Y-385443D01*
X334840Y-385443D01*
G37*
G54D53*
G36*
X134706Y-85725D02*
X134706Y-73225D01*
X139039Y-73225D01*
X139039Y-85725D01*
X134706Y-85725D01*
G37*
G36*
X136873Y-83559D02*
X147873Y-83558D01*
X147873Y-87892D01*
X136873Y-87892D01*
X136873Y-83559D01*
G37*
G36*
X139039Y-85725D02*
X139039Y-98225D01*
X134706Y-98225D01*
X134706Y-85725D01*
X139039Y-85725D01*
G37*
G54D53*
G36*
X223210Y-44847D02*
X223210Y-32347D01*
X227543Y-32347D01*
X227543Y-44847D01*
X223210Y-44847D01*
G37*
G36*
X225376Y-42680D02*
X236376Y-42680D01*
X236376Y-47013D01*
X225376Y-47013D01*
X225376Y-42680D01*
G37*
G36*
X227543Y-44847D02*
X227543Y-57347D01*
X223210Y-57347D01*
X223210Y-44847D01*
X227543Y-44847D01*
G37*
G54D53*
G36*
X222884Y-83135D02*
X222884Y-70635D01*
X227217Y-70635D01*
X227217Y-83135D01*
X222884Y-83135D01*
G37*
G36*
X225050Y-80968D02*
X236050Y-80968D01*
X236050Y-85301D01*
X225050Y-85302D01*
X225050Y-80968D01*
G37*
G36*
X227217Y-83135D02*
X227217Y-95635D01*
X222884Y-95635D01*
X222884Y-83135D01*
X227217Y-83135D01*
G37*
G54D14*
G36*
X296157Y-209032D02*
X296157Y-199032D01*
X302157Y-199032D01*
X302157Y-209032D01*
X296157Y-209032D01*
G37*
G36*
X302157Y-209032D02*
X302157Y-219032D01*
X296157Y-219032D01*
X296157Y-209032D01*
X302157Y-209032D01*
G37*
G54D53*
G36*
X335756Y-246691D02*
X323256Y-246691D01*
X323256Y-242358D01*
X335756Y-242358D01*
X335756Y-246691D01*
G37*
G36*
X333589Y-244525D02*
X333589Y-233525D01*
X337922Y-233525D01*
X337922Y-244525D01*
X333589Y-244525D01*
G37*
G36*
X335756Y-242358D02*
X348256Y-242358D01*
X348256Y-246691D01*
X335756Y-246691D01*
X335756Y-242358D01*
G37*
G54D54*
G36*
X271066Y-340195D02*
X286066Y-340195D01*
X286066Y-347195D01*
X271066Y-347195D01*
X271066Y-340195D01*
G37*
G36*
X274566Y-343695D02*
X274566Y-358695D01*
X267566Y-358695D01*
X267566Y-343695D01*
X274566Y-343695D01*
G37*
G36*
X271066Y-347195D02*
X256066Y-347195D01*
X256066Y-340195D01*
X271066Y-340195D01*
X271066Y-347195D01*
G37*
G54D54*
G36*
X87391Y-203601D02*
X102391Y-203601D01*
X102391Y-210601D01*
X87391Y-210601D01*
X87391Y-203601D01*
G37*
G36*
X90891Y-207101D02*
X90891Y-222101D01*
X83891Y-222101D01*
X83891Y-207101D01*
X90891Y-207101D01*
G37*
G36*
X87391Y-210601D02*
X72391Y-210601D01*
X72391Y-203601D01*
X87391Y-203601D01*
X87391Y-210601D01*
G37*
G54D55*
G36*
X529431Y-555306D02*
X541931Y-555306D01*
X541931Y-570186D01*
X529431Y-570186D01*
X529431Y-555306D01*
G37*
G36*
X529431Y-570186D02*
X516931Y-570186D01*
X516931Y-555306D01*
X529431Y-555306D01*
X529431Y-570186D01*
G37*
G54D53*
G36*
X593915Y-602803D02*
X593915Y-590303D01*
X598248Y-590303D01*
X598248Y-602803D01*
X593915Y-602803D01*
G37*
G36*
X596081Y-600636D02*
X607081Y-600636D01*
X607081Y-604969D01*
X596081Y-604969D01*
X596081Y-600636D01*
G37*
G36*
X598248Y-602803D02*
X598248Y-615303D01*
X593914Y-615303D01*
X593915Y-602803D01*
X598248Y-602803D01*
G37*
G54D56*
G36*
X707400Y-553567D02*
X691900Y-553567D01*
X691900Y-546234D01*
X707400Y-546234D01*
X707400Y-553567D01*
G37*
G36*
X707400Y-546234D02*
X722900Y-546234D01*
X722900Y-553567D01*
X707400Y-553567D01*
X707400Y-546234D01*
G37*
G36*
X711066Y-549900D02*
X711066Y-565400D01*
X703733Y-565400D01*
X703733Y-549900D01*
X711066Y-549900D01*
G37*
G54D56*
G36*
X707400Y-312267D02*
X691900Y-312267D01*
X691900Y-304934D01*
X707400Y-304934D01*
X707400Y-312267D01*
G37*
G36*
X707400Y-304934D02*
X722900Y-304934D01*
X722900Y-312267D01*
X707400Y-312267D01*
X707400Y-304934D01*
G37*
G36*
X711066Y-308600D02*
X711066Y-324100D01*
X703733Y-324100D01*
X703733Y-308600D01*
X711066Y-308600D01*
G37*
G54D53*
G36*
X627063Y-270834D02*
X639563Y-270834D01*
X639563Y-275166D01*
X627063Y-275166D01*
X627063Y-270834D01*
G37*
G36*
X629229Y-273000D02*
X629229Y-284000D01*
X624896Y-284000D01*
X624896Y-273000D01*
X629229Y-273000D01*
G37*
G36*
X627063Y-275166D02*
X614563Y-275166D01*
X614563Y-270834D01*
X627063Y-270834D01*
X627063Y-275166D01*
G37*
G54D53*
G36*
X591430Y-134256D02*
X591430Y-146756D01*
X587097Y-146756D01*
X587097Y-134256D01*
X591430Y-134256D01*
G37*
G36*
X589263Y-136423D02*
X578263Y-136423D01*
X578263Y-132090D01*
X589263Y-132090D01*
X589263Y-136423D01*
G37*
G36*
X587097Y-134256D02*
X587096Y-121756D01*
X591429Y-121756D01*
X591430Y-134256D01*
X587097Y-134256D01*
G37*
G54D53*
G36*
X537204Y-205581D02*
X537204Y-218081D01*
X532871Y-218081D01*
X532871Y-205581D01*
X537204Y-205581D01*
G37*
G36*
X535037Y-207748D02*
X524037Y-207748D01*
X524037Y-203415D01*
X535037Y-203415D01*
X535037Y-207748D01*
G37*
G36*
X532871Y-205581D02*
X532871Y-193081D01*
X537204Y-193081D01*
X537204Y-205581D01*
X532871Y-205581D01*
G37*
G54D57*
G36*
X187325Y-72397D02*
X165825Y-72397D01*
X165825Y-55397D01*
X187325Y-55397D01*
X187325Y-72397D01*
G37*
G36*
X187325Y-55397D02*
X208825Y-55397D01*
X208825Y-72397D01*
X187325Y-72397D01*
X187325Y-55397D01*
G37*
G54D53*
G36*
X620988Y-89616D02*
X608488Y-89617D01*
X608488Y-85284D01*
X620988Y-85284D01*
X620988Y-89616D01*
G37*
G36*
X618822Y-87450D02*
X618821Y-76450D01*
X623154Y-76450D01*
X623155Y-87450D01*
X618822Y-87450D01*
G37*
G36*
X620988Y-85284D02*
X633488Y-85283D01*
X633488Y-89616D01*
X620988Y-89616D01*
X620988Y-85284D01*
G37*
G54D53*
G36*
X422221Y-63833D02*
X409721Y-63834D01*
X409721Y-59501D01*
X422221Y-59500D01*
X422221Y-63833D01*
G37*
G36*
X420054Y-61667D02*
X420054Y-50667D01*
X424387Y-50667D01*
X424387Y-61667D01*
X420054Y-61667D01*
G37*
G36*
X422221Y-59500D02*
X434721Y-59500D01*
X434721Y-63833D01*
X422221Y-63833D01*
X422221Y-59500D01*
G37*
G54D14*
G36*
X624660Y-614615D02*
X615114Y-605069D01*
X619356Y-600826D01*
X628902Y-610372D01*
X624660Y-614615D01*
G37*
G36*
X624660Y-610372D02*
X634206Y-600826D01*
X638448Y-605069D01*
X628902Y-614615D01*
X624660Y-610372D01*
G37*
G36*
X628902Y-610372D02*
X638448Y-619918D01*
X634206Y-624161D01*
X624660Y-614615D01*
X628902Y-610372D01*
G37*
G36*
X628902Y-614615D02*
X619356Y-624161D01*
X615114Y-619918D01*
X624660Y-610372D01*
X628902Y-614615D01*
G37*
G54D58*
G36*
X525691Y-164981D02*
X535944Y-175234D01*
X531230Y-179948D01*
X520977Y-169695D01*
X525691Y-164981D01*
G37*
G36*
X525691Y-169695D02*
X515438Y-179948D01*
X510724Y-175234D01*
X520977Y-164981D01*
X525691Y-169695D01*
G37*
G36*
X520977Y-169695D02*
X510724Y-159442D01*
X515438Y-154728D01*
X525691Y-164981D01*
X520977Y-169695D01*
G37*
G36*
X520977Y-164981D02*
X531230Y-154728D01*
X535944Y-159442D01*
X525691Y-169695D01*
X520977Y-164981D01*
G37*
G54D59*
G36*
X692969Y-614630D02*
X703569Y-614630D01*
X703569Y-618030D01*
X692969Y-618030D01*
X692969Y-614630D01*
G37*
G36*
X694669Y-616330D02*
X694670Y-625930D01*
X691270Y-625930D01*
X691269Y-616330D01*
X694669Y-616330D01*
G37*
G36*
X692969Y-618030D02*
X682369Y-618031D01*
X682369Y-614631D01*
X692969Y-614630D01*
X692969Y-618030D01*
G37*
G36*
X691269Y-616330D02*
X691269Y-606730D01*
X694669Y-606730D01*
X694669Y-616330D01*
X691269Y-616330D01*
G37*
G54D53*
G36*
X251593Y-90298D02*
X239093Y-90298D01*
X239093Y-85965D01*
X251593Y-85965D01*
X251593Y-90298D01*
G37*
G36*
X249427Y-88131D02*
X249426Y-77131D01*
X253759Y-77131D01*
X253760Y-88131D01*
X249427Y-88131D01*
G37*
G36*
X251593Y-85965D02*
X264093Y-85965D01*
X264093Y-90298D01*
X251593Y-90298D01*
X251593Y-85965D01*
G37*
G54D53*
G36*
X54537Y-177006D02*
X54537Y-164506D01*
X58870Y-164506D01*
X58870Y-177006D01*
X54537Y-177006D01*
G37*
G36*
X56704Y-174840D02*
X67704Y-174840D01*
X67704Y-179173D01*
X56704Y-179173D01*
X56704Y-174840D01*
G37*
G36*
X58870Y-177006D02*
X58871Y-189506D01*
X54538Y-189506D01*
X54537Y-177006D01*
X58870Y-177006D01*
G37*
G54D60*
G36*
X591900Y-768350D02*
X591900Y-748850D01*
X601900Y-748850D01*
X601900Y-768350D01*
X591900Y-768350D01*
G37*
G36*
X596900Y-763350D02*
X616400Y-763350D01*
X616400Y-773350D01*
X596900Y-773350D01*
X596900Y-763350D01*
G37*
G36*
X601900Y-768350D02*
X601900Y-787850D01*
X591900Y-787850D01*
X591900Y-768350D01*
X601900Y-768350D01*
G37*
G36*
X596900Y-773350D02*
X577400Y-773350D01*
X577400Y-763350D01*
X596900Y-763350D01*
X596900Y-773350D01*
G37*
G54D53*
G36*
X554038Y-558145D02*
X566538Y-558145D01*
X566537Y-562478D01*
X554037Y-562478D01*
X554038Y-558145D01*
G37*
G36*
X556204Y-560312D02*
X556204Y-571312D01*
X551871Y-571312D01*
X551871Y-560312D01*
X556204Y-560312D01*
G37*
G36*
X554037Y-562478D02*
X541537Y-562478D01*
X541538Y-558145D01*
X554038Y-558145D01*
X554037Y-562478D01*
G37*
G54D53*
G36*
X367815Y-57185D02*
X356315Y-57185D01*
X356315Y-52852D01*
X367815Y-52852D01*
X367815Y-57185D01*
G37*
G36*
X365649Y-55018D02*
X365649Y-44018D01*
X369982Y-44018D01*
X369982Y-55018D01*
X365649Y-55018D01*
G37*
G36*
X367815Y-52852D02*
X379315Y-52852D01*
X379315Y-57185D01*
X367815Y-57185D01*
X367815Y-52852D01*
G37*
G54D53*
G36*
X326066Y-160337D02*
X326067Y-172837D01*
X321734Y-172838D01*
X321733Y-160338D01*
X326066Y-160337D01*
G37*
G36*
X323900Y-162504D02*
X312900Y-162504D01*
X312900Y-158171D01*
X323900Y-158171D01*
X323900Y-162504D01*
G37*
G36*
X321733Y-160338D02*
X321733Y-147838D01*
X326066Y-147837D01*
X326066Y-160337D01*
X321733Y-160338D01*
G37*
G54D53*
G36*
X71064Y-241583D02*
X71064Y-254083D01*
X66731Y-254083D01*
X66731Y-241583D01*
X71064Y-241583D01*
G37*
G36*
X68897Y-243750D02*
X57897Y-243750D01*
X57897Y-239417D01*
X68897Y-239417D01*
X68897Y-243750D01*
G37*
G36*
X66731Y-241583D02*
X66731Y-229083D01*
X71064Y-229083D01*
X71064Y-241583D01*
X66731Y-241583D01*
G37*
G54D53*
G36*
X191294Y-218116D02*
X178794Y-218116D01*
X178794Y-213784D01*
X191294Y-213784D01*
X191294Y-218116D01*
G37*
G36*
X189127Y-215950D02*
X189127Y-204950D01*
X193460Y-204950D01*
X193460Y-215950D01*
X189127Y-215950D01*
G37*
G36*
X191294Y-213784D02*
X203794Y-213784D01*
X203794Y-218116D01*
X191294Y-218116D01*
X191294Y-213784D01*
G37*
G54D55*
G36*
X529431Y-635872D02*
X541931Y-635872D01*
X541931Y-650752D01*
X529431Y-650752D01*
X529431Y-635872D01*
G37*
G36*
X529431Y-650752D02*
X516931Y-650752D01*
X516931Y-635872D01*
X529431Y-635872D01*
X529431Y-650752D01*
G37*
G54D53*
G36*
X552847Y-647459D02*
X540347Y-647459D01*
X540347Y-643126D01*
X552847Y-643126D01*
X552847Y-647459D01*
G37*
G36*
X550680Y-645293D02*
X550680Y-634293D01*
X555013Y-634293D01*
X555013Y-645293D01*
X550680Y-645293D01*
G37*
G36*
X552847Y-643126D02*
X565347Y-643127D01*
X565347Y-647460D01*
X552847Y-647459D01*
X552847Y-643126D01*
G37*
G54D53*
G36*
X352028Y-472023D02*
X364528Y-472023D01*
X364528Y-476356D01*
X352028Y-476356D01*
X352028Y-472023D01*
G37*
G36*
X354195Y-474190D02*
X354194Y-485190D01*
X349861Y-485190D01*
X349862Y-474190D01*
X354195Y-474190D01*
G37*
G36*
X352028Y-476356D02*
X339528Y-476356D01*
X339528Y-472023D01*
X352028Y-472023D01*
X352028Y-476356D01*
G37*
G54D53*
G36*
X558800Y-119227D02*
X571300Y-119227D01*
X571300Y-123560D01*
X558800Y-123560D01*
X558800Y-119227D01*
G37*
G36*
X560966Y-121394D02*
X560967Y-132394D01*
X556634Y-132394D01*
X556634Y-121394D01*
X560966Y-121394D01*
G37*
G36*
X558800Y-123560D02*
X546300Y-123561D01*
X546300Y-119228D01*
X558800Y-119227D01*
X558800Y-123560D01*
G37*
G54D53*
G36*
X316077Y-307975D02*
X316077Y-295475D01*
X320410Y-295475D01*
X320410Y-307975D01*
X316077Y-307975D01*
G37*
G36*
X318244Y-305808D02*
X329244Y-305808D01*
X329244Y-310142D01*
X318244Y-310142D01*
X318244Y-305808D01*
G37*
G36*
X320410Y-307975D02*
X320410Y-320475D01*
X316077Y-320475D01*
X316077Y-307975D01*
X320410Y-307975D01*
G37*
G54D53*
G36*
X138675Y-171450D02*
X138675Y-158950D01*
X143008Y-158950D01*
X143008Y-171450D01*
X138675Y-171450D01*
G37*
G36*
X140841Y-169284D02*
X151841Y-169284D01*
X151841Y-173616D01*
X140841Y-173617D01*
X140841Y-169284D01*
G37*
G36*
X143008Y-171450D02*
X143008Y-183950D01*
X138675Y-183950D01*
X138675Y-171450D01*
X143008Y-171450D01*
G37*
G54D53*
G36*
X164306Y-218116D02*
X151806Y-218117D01*
X151806Y-213784D01*
X164306Y-213783D01*
X164306Y-218116D01*
G37*
G36*
X162140Y-215950D02*
X162140Y-204950D01*
X166473Y-204950D01*
X166473Y-215950D01*
X162140Y-215950D01*
G37*
G36*
X164306Y-213783D02*
X176806Y-213783D01*
X176806Y-218116D01*
X164306Y-218116D01*
X164306Y-213783D01*
G37*
G54D53*
G36*
X177007Y-164471D02*
X188507Y-164471D01*
X188507Y-168804D01*
X177007Y-168804D01*
X177007Y-164471D01*
G37*
G36*
X179173Y-166638D02*
X179173Y-177638D01*
X174840Y-177638D01*
X174840Y-166638D01*
X179173Y-166638D01*
G37*
G36*
X177007Y-168804D02*
X165507Y-168804D01*
X165507Y-164471D01*
X177007Y-164471D01*
X177007Y-168804D01*
G37*
G54D53*
G36*
X272256Y-90322D02*
X260756Y-90323D01*
X260756Y-85990D01*
X272256Y-85990D01*
X272256Y-90322D01*
G37*
G36*
X270089Y-88156D02*
X270089Y-77156D01*
X274422Y-77156D01*
X274422Y-88156D01*
X270089Y-88156D01*
G37*
G36*
X272256Y-85990D02*
X283756Y-85989D01*
X283756Y-90322D01*
X272256Y-90322D01*
X272256Y-85990D01*
G37*
G54D53*
G36*
X357187Y-246691D02*
X345687Y-246691D01*
X345687Y-242358D01*
X357187Y-242358D01*
X357187Y-246691D01*
G37*
G36*
X355020Y-244525D02*
X355020Y-233525D01*
X359353Y-233525D01*
X359354Y-244525D01*
X355020Y-244525D01*
G37*
G36*
X357187Y-242358D02*
X368687Y-242358D01*
X368687Y-246691D01*
X357187Y-246691D01*
X357187Y-242358D01*
G37*
G54D53*
G36*
X398438Y-295086D02*
X385938Y-295086D01*
X385938Y-290752D01*
X398438Y-290752D01*
X398438Y-295086D01*
G37*
G36*
X396271Y-292919D02*
X396271Y-281919D01*
X400604Y-281919D01*
X400604Y-292919D01*
X396271Y-292919D01*
G37*
G36*
X398438Y-290752D02*
X410938Y-290752D01*
X410938Y-295086D01*
X398438Y-295086D01*
X398438Y-290752D01*
G37*
G54D53*
G36*
X580572Y-162213D02*
X580572Y-173713D01*
X576239Y-173713D01*
X576239Y-162213D01*
X580572Y-162213D01*
G37*
G36*
X578406Y-164380D02*
X567406Y-164380D01*
X567406Y-160046D01*
X578406Y-160046D01*
X578406Y-164380D01*
G37*
G36*
X576239Y-162213D02*
X576239Y-150713D01*
X580572Y-150713D01*
X580572Y-162213D01*
X576239Y-162213D01*
G37*
G54D53*
G36*
X537287Y-227683D02*
X537287Y-240183D01*
X532954Y-240183D01*
X532954Y-227683D01*
X537287Y-227683D01*
G37*
G36*
X535121Y-229849D02*
X524121Y-229850D01*
X524121Y-225516D01*
X535121Y-225516D01*
X535121Y-229849D01*
G37*
G36*
X532954Y-227683D02*
X532954Y-215183D01*
X537287Y-215183D01*
X537287Y-227683D01*
X532954Y-227683D01*
G37*
G54D53*
G36*
X606426Y-270834D02*
X617926Y-270834D01*
X617926Y-275167D01*
X606426Y-275167D01*
X606426Y-270834D01*
G37*
G36*
X608592Y-273000D02*
X608592Y-284000D01*
X604259Y-284000D01*
X604259Y-273000D01*
X608592Y-273000D01*
G37*
G36*
X606426Y-275167D02*
X594926Y-275167D01*
X594926Y-270834D01*
X606426Y-270834D01*
X606426Y-275167D01*
G37*
G54D53*
G36*
X706890Y-683706D02*
X706890Y-672206D01*
X711223Y-672206D01*
X711223Y-683706D01*
X706890Y-683706D01*
G37*
G36*
X709057Y-681540D02*
X720057Y-681540D01*
X720056Y-685873D01*
X709056Y-685872D01*
X709057Y-681540D01*
G37*
G36*
X711223Y-683706D02*
X711223Y-695206D01*
X706890Y-695206D01*
X706890Y-683706D01*
X711223Y-683706D01*
G37*
G54D58*
G36*
X499576Y-498010D02*
X514076Y-498010D01*
X514076Y-504676D01*
X499576Y-504676D01*
X499576Y-498010D01*
G37*
G36*
X502909Y-501343D02*
X502909Y-515843D01*
X496243Y-515843D01*
X496243Y-501343D01*
X502909Y-501343D01*
G37*
G36*
X499576Y-504676D02*
X485076Y-504676D01*
X485076Y-498010D01*
X499576Y-498010D01*
X499576Y-504676D01*
G37*
G36*
X496243Y-501343D02*
X496243Y-486843D01*
X502909Y-486843D01*
X502909Y-501343D01*
X496243Y-501343D01*
G37*
G54D58*
G36*
X389484Y-497762D02*
X403984Y-497762D01*
X403984Y-504428D01*
X389484Y-504428D01*
X389484Y-497762D01*
G37*
G36*
X392818Y-501095D02*
X392818Y-515595D01*
X386151Y-515595D01*
X386151Y-501095D01*
X392818Y-501095D01*
G37*
G36*
X389484Y-504428D02*
X374984Y-504428D01*
X374984Y-497762D01*
X389484Y-497762D01*
X389484Y-504428D01*
G37*
G36*
X386151Y-501095D02*
X386151Y-486595D01*
X392818Y-486595D01*
X392818Y-501095D01*
X386151Y-501095D01*
G37*
G54D58*
G36*
X276532Y-497216D02*
X291032Y-497216D01*
X291032Y-503883D01*
X276532Y-503883D01*
X276532Y-497216D01*
G37*
G36*
X279866Y-500549D02*
X279866Y-515049D01*
X273199Y-515049D01*
X273199Y-500549D01*
X279866Y-500549D01*
G37*
G36*
X276532Y-503883D02*
X262032Y-503883D01*
X262032Y-497216D01*
X276532Y-497216D01*
X276532Y-503883D01*
G37*
G36*
X273199Y-500549D02*
X273199Y-486049D01*
X279866Y-486049D01*
X279866Y-500549D01*
X273199Y-500549D01*
G37*
G54D61*
G36*
X430940Y-452438D02*
X430940Y-437938D01*
X436272Y-437938D01*
X436272Y-452438D01*
X430940Y-452438D01*
G37*
G36*
X433606Y-449772D02*
X446106Y-449772D01*
X446106Y-455104D01*
X433606Y-455104D01*
X433606Y-449772D01*
G37*
G36*
X436272Y-452438D02*
X436272Y-466938D01*
X430940Y-466938D01*
X430940Y-452438D01*
X436272Y-452438D01*
G37*
G36*
X433606Y-455104D02*
X421106Y-455104D01*
X421106Y-449772D01*
X433606Y-449772D01*
X433606Y-455104D01*
G37*
G54D61*
G36*
X539099Y-445131D02*
X539099Y-459631D01*
X533766Y-459631D01*
X533766Y-445131D01*
X539099Y-445131D01*
G37*
G36*
X536432Y-447798D02*
X523932Y-447798D01*
X523932Y-442465D01*
X536432Y-442465D01*
X536432Y-447798D01*
G37*
G36*
X533766Y-445131D02*
X533766Y-430631D01*
X539099Y-430631D01*
X539099Y-445131D01*
X533766Y-445131D01*
G37*
G36*
X536432Y-442465D02*
X548932Y-442465D01*
X548932Y-447798D01*
X536432Y-447798D01*
X536432Y-442465D01*
G37*
G54D61*
G36*
X546284Y-384343D02*
X560784Y-384343D01*
X560784Y-389676D01*
X546284Y-389676D01*
X546284Y-384343D01*
G37*
G36*
X548951Y-387009D02*
X548951Y-399509D01*
X543618Y-399509D01*
X543618Y-387009D01*
X548951Y-387009D01*
G37*
G36*
X546284Y-389676D02*
X531784Y-389676D01*
X531784Y-384343D01*
X546284Y-384343D01*
X546284Y-389676D01*
G37*
G36*
X543618Y-387009D02*
X543618Y-374509D01*
X548951Y-374509D01*
X548951Y-387009D01*
X543618Y-387009D01*
G37*
G54D61*
G36*
X545976Y-306348D02*
X531476Y-306348D01*
X531476Y-301015D01*
X545976Y-301015D01*
X545976Y-306348D01*
G37*
G36*
X543309Y-303681D02*
X543309Y-291181D01*
X548642Y-291181D01*
X548642Y-303681D01*
X543309Y-303681D01*
G37*
G36*
X545976Y-301015D02*
X560476Y-301015D01*
X560476Y-306348D01*
X545976Y-306348D01*
X545976Y-301015D01*
G37*
G36*
X548642Y-303681D02*
X548642Y-316181D01*
X543310Y-316181D01*
X543309Y-303681D01*
X548642Y-303681D01*
G37*
G54D61*
G36*
X457870Y-254754D02*
X443370Y-254754D01*
X443370Y-249421D01*
X457870Y-249421D01*
X457870Y-254754D01*
G37*
G36*
X455203Y-252088D02*
X455203Y-239588D01*
X460536Y-239588D01*
X460536Y-252088D01*
X455203Y-252088D01*
G37*
G36*
X457870Y-249421D02*
X472370Y-249421D01*
X472370Y-254754D01*
X457870Y-254754D01*
X457870Y-249421D01*
G37*
G36*
X460536Y-252088D02*
X460536Y-264588D01*
X455203Y-264588D01*
X455203Y-252088D01*
X460536Y-252088D01*
G37*
G54D61*
G36*
X446369Y-168672D02*
X446369Y-154172D01*
X451702Y-154172D01*
X451702Y-168672D01*
X446369Y-168672D01*
G37*
G36*
X449035Y-166006D02*
X461535Y-166006D01*
X461535Y-171339D01*
X449035Y-171339D01*
X449035Y-166006D01*
G37*
G36*
X451702Y-168672D02*
X451702Y-183172D01*
X446369Y-183172D01*
X446369Y-168672D01*
X451702Y-168672D01*
G37*
G36*
X449035Y-171339D02*
X436535Y-171339D01*
X436535Y-166006D01*
X449035Y-166006D01*
X449035Y-171339D01*
G37*
G54D61*
G36*
X591344Y-76267D02*
X576844Y-76267D01*
X576844Y-70934D01*
X591344Y-70934D01*
X591344Y-76267D01*
G37*
G36*
X588678Y-73600D02*
X588678Y-61100D01*
X594011Y-61100D01*
X594011Y-73600D01*
X588678Y-73600D01*
G37*
G36*
X591344Y-70934D02*
X605844Y-70934D01*
X605844Y-76267D01*
X591344Y-76267D01*
X591344Y-70934D01*
G37*
G36*
X594011Y-73600D02*
X594011Y-86100D01*
X588678Y-86100D01*
X588678Y-73600D01*
X594011Y-73600D01*
G37*
G54D61*
G36*
X665134Y-619047D02*
X650634Y-619047D01*
X650634Y-613714D01*
X665134Y-613714D01*
X665134Y-619047D01*
G37*
G36*
X662468Y-616381D02*
X662467Y-603881D01*
X667800Y-603881D01*
X667800Y-616381D01*
X662468Y-616381D01*
G37*
G36*
X665134Y-613714D02*
X679634Y-613714D01*
X679634Y-619047D01*
X665134Y-619047D01*
X665134Y-613714D01*
G37*
G36*
X667800Y-616381D02*
X667801Y-628881D01*
X662468Y-628881D01*
X662468Y-616381D01*
X667800Y-616381D01*
G37*
X663575Y-44847D02*
G54D10*
D03*
X663575Y-758031D02*
G54D10*
D03*
X622697Y-664369D02*
G54D62*
D03*
X450850Y-417909D02*
G54D62*
D03*
X104378Y-320674D02*
G54D63*
D03*
X46832Y-313531D02*
G54D63*
D03*
G54D13*
X34131Y-95250D02*
X33925Y-54975D01*
X15081Y-76200D01*
X15081Y-278606D01*
X46832Y-313531D01*
X74673Y-95100D02*
G54D64*
D03*
X101673Y-95100D02*
G54D64*
D03*
X74673Y-85306D02*
G54D64*
D03*
X101673Y-85306D02*
G54D64*
D03*
X74673Y-75512D02*
G54D64*
D03*
X101673Y-75512D02*
G54D64*
D03*
X74673Y-100259D02*
G54D64*
D03*
X280189Y-410844D02*
G54D65*
D03*
X337339Y-410843D02*
G54D66*
D03*
X337339Y-436243D02*
G54D66*
D03*
X337340Y-385443D02*
G54D66*
D03*
G36*
X348055Y-406081D02*
X322655Y-406081D01*
X322655Y-368378D01*
X257171Y-368378D01*
X257171Y-453309D01*
X322655Y-453309D01*
X322655Y-415606D01*
X348055Y-415606D01*
X348055Y-406081D01*
G37*
G54D67*
X348055Y-406081D02*
X322655Y-406081D01*
X322655Y-368378D01*
X257171Y-368378D01*
X257171Y-453309D01*
X322655Y-453309D01*
X322655Y-415606D01*
X348055Y-415606D01*
X348055Y-406081D01*
X131762Y-112712D02*
G54D68*
D03*
X103762Y-112712D02*
G54D68*
D03*
X144244Y-286762D02*
G54D68*
D03*
G36*
X164244Y-278763D02*
X180244Y-278762D01*
X180244Y-294762D01*
X164244Y-294763D01*
X164244Y-278763D01*
G37*
G54D13*
X258762Y-370681D02*
X249238Y-370681D01*
X242888Y-364331D01*
X242888Y-333375D01*
X196850Y-287338D01*
X172244Y-287338D01*
X117873Y-85725D02*
G54D69*
D03*
G36*
X130373Y-77725D02*
X143373Y-77725D01*
X143373Y-93725D01*
X130373Y-93725D01*
X130373Y-77725D01*
G37*
X93662Y-137319D02*
G54D70*
D03*
X93662Y-156319D02*
G54D70*
D03*
G54D14*
X87391Y-181701D02*
X93662Y-156319D01*
X206376Y-44847D02*
G54D69*
D03*
X225376Y-44847D02*
G54D69*
D03*
X206050Y-83135D02*
G54D69*
D03*
G36*
X218550Y-75135D02*
X231550Y-75135D01*
X231550Y-91135D01*
X218550Y-91135D01*
X218550Y-75135D01*
G37*
X173831Y-96838D02*
G54D71*
D03*
X173831Y-124838D02*
G54D71*
D03*
G54D14*
X173831Y-96838D02*
X187325Y-82947D01*
X225425Y-63897D02*
G54D28*
D03*
X227012Y-137319D02*
G54D72*
D03*
X204112Y-127119D02*
G54D72*
D03*
X204112Y-147519D02*
G54D72*
D03*
G54D14*
X173831Y-124838D02*
X177006Y-147638D01*
X204112Y-147519D01*
G54D14*
X204112Y-147519D02*
X201520Y-165975D01*
G54D14*
X213888Y-183737D02*
X220520Y-165975D01*
X227013Y-137319D01*
X239288Y-234537D02*
G54D42*
D03*
X213888Y-234537D02*
G54D42*
D03*
X264688Y-183737D02*
G54D42*
D03*
X239288Y-183737D02*
G54D42*
D03*
X213888Y-183737D02*
G54D42*
D03*
X264688Y-234537D02*
G54D42*
D03*
X192088Y-258762D02*
G54D68*
D03*
X192088Y-286762D02*
G54D68*
D03*
X169837Y-194443D02*
G54D28*
D03*
G54D14*
X213519Y-234156D02*
X191294Y-234950D01*
X192088Y-258762D01*
G54D14*
X206349Y-109562D02*
X204112Y-127119D01*
G54D14*
X251918Y-106894D02*
X272256Y-107156D01*
G54D14*
X265112Y-183737D02*
X265112Y-194838D01*
X239288Y-220662D01*
X239288Y-234113D01*
X239688Y-255562D01*
X239688Y-255562D02*
G54D42*
D03*
X289363Y-209032D02*
G54D73*
D03*
X289363Y-236032D02*
G54D73*
D03*
X299157Y-209032D02*
G54D73*
D03*
X299157Y-236032D02*
G54D73*
D03*
X308951Y-209032D02*
G54D73*
D03*
X308951Y-236032D02*
G54D73*
D03*
X284204Y-209032D02*
G54D73*
D03*
G54D14*
X264688Y-234537D02*
X264688Y-219499D01*
X274638Y-209550D01*
X283686Y-209550D01*
X284204Y-209032D01*
G54D14*
X308951Y-209032D02*
X308951Y-181951D01*
X292100Y-165100D01*
X257925Y-165100D01*
X239288Y-183737D01*
X335756Y-263525D02*
G54D70*
D03*
X335756Y-244525D02*
G54D70*
D03*
G54D14*
X357188Y-263525D02*
X334962Y-262731D01*
X314325Y-262731D01*
G54D14*
X298450Y-306388D02*
X299244Y-282575D01*
X299157Y-236032D01*
G54D14*
X315338Y-261938D02*
X318244Y-282575D01*
X277019Y-284162D02*
G54D69*
D03*
X258019Y-284162D02*
G54D69*
D03*
G54D14*
X289363Y-236032D02*
X284956Y-262731D01*
X277019Y-284162D01*
X285750Y-261938D02*
G54D68*
D03*
X313750Y-261938D02*
G54D68*
D03*
G36*
X260566Y-333195D02*
X281566Y-333195D01*
X281566Y-354195D01*
X260566Y-354195D01*
X260566Y-333195D01*
G37*
X271066Y-318295D02*
G54D74*
D03*
G54D75*
X500063Y-332581D02*
X499419Y-451095D01*
X450056Y-419100D01*
G54D14*
X271066Y-318295D02*
X258019Y-284162D01*
G54D14*
X298450Y-306388D02*
X300831Y-329406D01*
G36*
X76891Y-196601D02*
X97891Y-196601D01*
X97891Y-217601D01*
X76891Y-217601D01*
X76891Y-196601D01*
G37*
X87391Y-181701D02*
G54D74*
D03*
G54D14*
X576256Y-621486D02*
X576256Y-584571D01*
X576256Y-540921D02*
G54D42*
D03*
X529431Y-562746D02*
G54D42*
D03*
X529431Y-540921D02*
G54D42*
D03*
X529431Y-584571D02*
G54D42*
D03*
X576256Y-584571D02*
G54D42*
D03*
G54D14*
X576256Y-584571D02*
X529431Y-584571D01*
X577081Y-602802D02*
G54D69*
D03*
X596081Y-602803D02*
G54D69*
D03*
X707400Y-549900D02*
G54D76*
D03*
X707400Y-524500D02*
G54D76*
D03*
X707400Y-499100D02*
G54D76*
D03*
X707400Y-308600D02*
G54D76*
D03*
X707400Y-283200D02*
G54D76*
D03*
X707400Y-257800D02*
G54D76*
D03*
X577426Y-382968D02*
G54D42*
D03*
X628226Y-332168D02*
G54D42*
D03*
X577426Y-332168D02*
G54D42*
D03*
X628226Y-382969D02*
G54D42*
D03*
X577850Y-495300D02*
G54D42*
D03*
X628650Y-444500D02*
G54D42*
D03*
X577850Y-444500D02*
G54D42*
D03*
X628650Y-495300D02*
G54D42*
D03*
G54D44*
X707400Y-524500D02*
X651440Y-524500D01*
X628650Y-495300D01*
G54D44*
X708025Y-282575D02*
X690959Y-282575D01*
X628650Y-332581D01*
G54D14*
X529431Y-540921D02*
X576256Y-540921D01*
G54D44*
X628226Y-382968D02*
X604838Y-357981D01*
X525463Y-357981D01*
G54D44*
X628650Y-495300D02*
X603250Y-469900D01*
X603250Y-408793D01*
X577426Y-382968D01*
G54D44*
X628650Y-444500D02*
X657225Y-429419D01*
X657225Y-361168D01*
X628226Y-332168D01*
G54D14*
X707400Y-416143D02*
X707400Y-381626D01*
X733425Y-355600D01*
X733374Y-182960D01*
G54D60*
X707400Y-257800D02*
X680244Y-243681D01*
G54D14*
X707400Y-446256D02*
X707400Y-499100D01*
X672019Y-497175D02*
G54D68*
D03*
X672019Y-525175D02*
G54D68*
D03*
X693688Y-477837D02*
G54D69*
D03*
X674688Y-477837D02*
G54D69*
D03*
G54D14*
X693688Y-477837D02*
X706438Y-477838D01*
G54D14*
X672019Y-497175D02*
X674688Y-477837D01*
X662781Y-265112D02*
G54D68*
D03*
X662781Y-293112D02*
G54D68*
D03*
X680244Y-243681D02*
G54D69*
D03*
X661244Y-243681D02*
G54D69*
D03*
G54D14*
X662781Y-265112D02*
X661531Y-243394D01*
X652059Y-109913D02*
G54D42*
D03*
X702859Y-160713D02*
G54D42*
D03*
X702859Y-109913D02*
G54D42*
D03*
X652058Y-160713D02*
G54D42*
D03*
G36*
X510063Y-322581D02*
X510063Y-342581D01*
X490063Y-342581D01*
X490063Y-322581D01*
X510063Y-322581D01*
G37*
X525462Y-332581D02*
G54D77*
D03*
G54D44*
X577850Y-332581D02*
X525462Y-332581D01*
G36*
X510063Y-347981D02*
X510063Y-367981D01*
X490063Y-367981D01*
X490063Y-347981D01*
X510063Y-347981D01*
G37*
X525463Y-357981D02*
G54D77*
D03*
X630212Y-412725D02*
G54D28*
D03*
X722288Y-723081D02*
G54D28*
D03*
X540519Y-419869D02*
G54D28*
D03*
X725859Y-128562D02*
G54D70*
D03*
X725859Y-109562D02*
G54D70*
D03*
X651669Y-195262D02*
G54D70*
D03*
X651669Y-176262D02*
G54D70*
D03*
X571475Y-296838D02*
G54D28*
D03*
X496069Y-221828D02*
G54D28*
D03*
X337716Y-44028D02*
G54D78*
D03*
X561975Y-188912D02*
G54D42*
D03*
X586975Y-188912D02*
G54D42*
D03*
X611975Y-188912D02*
G54D42*
D03*
X562372Y-243681D02*
G54D42*
D03*
X587372Y-243681D02*
G54D42*
D03*
X612372Y-243681D02*
G54D42*
D03*
G54D13*
X628650Y-235744D02*
X611981Y-243681D01*
X627062Y-254000D01*
X627062Y-254000D02*
G54D70*
D03*
X627063Y-273000D02*
G54D70*
D03*
G54D14*
X587772Y-243681D02*
X560784Y-243681D01*
X608263Y-134256D02*
G54D69*
D03*
X589263Y-134256D02*
G54D69*
D03*
G54D79*
X611981Y-188912D02*
X597406Y-162212D01*
X608263Y-134256D01*
X731019Y-396056D02*
G54D28*
D03*
G54D22*
X587375Y-188912D02*
X561975Y-188912D01*
X562372Y-243681D01*
X519331Y-267097D01*
X491331Y-267097D02*
G54D68*
D03*
X519331Y-267097D02*
G54D68*
D03*
G54D60*
X305605Y-373737D02*
X491331Y-267097D01*
X554038Y-205581D02*
G54D69*
D03*
X535037Y-205581D02*
G54D69*
D03*
X20000Y-20000D02*
G54D42*
D03*
X355178Y-296838D02*
G54D28*
D03*
G54D79*
X608012Y-134144D02*
X662781Y-134144D01*
X677862Y-157956D01*
X677862Y-173038D01*
X692150Y-187325D01*
X710534Y-187326D01*
X700000Y-20000D02*
G54D28*
D03*
G54D14*
X308951Y-237620D02*
X313750Y-261938D01*
G54D57*
X178825Y-44847D02*
X195825Y-44847D01*
G54D57*
X178825Y-63897D02*
X195825Y-63897D01*
G54D57*
X178825Y-82947D02*
X195825Y-82947D01*
G54D13*
X703262Y-109538D02*
X711200Y-109538D01*
X727472Y-109538D01*
G54D54*
X703262Y-160338D02*
X669925Y-109538D01*
X652462Y-109538D01*
X620988Y-106450D02*
G54D70*
D03*
X620988Y-87450D02*
G54D70*
D03*
X714350Y-87288D02*
G54D42*
D03*
G54D13*
X703262Y-109538D02*
X714375Y-87312D01*
X623862Y-161900D02*
G54D42*
D03*
G54D13*
X623888Y-161925D02*
X652462Y-161925D01*
X342106Y-96838D02*
G54D80*
D03*
X352306Y-73938D02*
G54D80*
D03*
X331906Y-73938D02*
G54D80*
D03*
X422221Y-80667D02*
G54D70*
D03*
X422221Y-61667D02*
G54D70*
D03*
X421988Y-205472D02*
G54D68*
D03*
X421988Y-233472D02*
G54D68*
D03*
G54D13*
X422275Y-233759D02*
X422275Y-307578D01*
G54D13*
X421988Y-205472D02*
X421878Y-168275D01*
X422221Y-80667D01*
X396478Y-80566D01*
X482600Y-131762D02*
G54D42*
D03*
X482600Y-60325D02*
G54D42*
D03*
G54D13*
X482625Y-60350D02*
X467519Y-60325D01*
X447675Y-80169D01*
X447278Y-80566D01*
G54D13*
X447251Y-131350D02*
X482201Y-131363D01*
X482600Y-131762D01*
X396453Y-44822D02*
G54D28*
D03*
X33925Y-54975D02*
G54D63*
D03*
X33925Y-205375D02*
G54D63*
D03*
X33312Y-95275D02*
G54D70*
D03*
X33312Y-114275D02*
G54D70*
D03*
G54D13*
X33338Y-114300D02*
X33338Y-196850D01*
G54D13*
X102394Y-75406D02*
X102394Y-53181D01*
X110728Y-44847D01*
X185738Y-44847D01*
X138112Y-123825D02*
G54D42*
D03*
X61491Y-100384D02*
G54D42*
D03*
X158328Y-60300D02*
G54D46*
D03*
G54D13*
X101600Y-96044D02*
X101600Y-112712D01*
X92472Y-138509D01*
G54D13*
X102394Y-85725D02*
X117475Y-85725D01*
X117475Y-200025D01*
X144244Y-288350D01*
X288106Y-188094D02*
G54D42*
D03*
X626781Y-562494D02*
G54D42*
D03*
X626781Y-587494D02*
G54D42*
D03*
X626781Y-612494D02*
G54D42*
D03*
X665019Y-579978D02*
G54D77*
D03*
X665019Y-657478D02*
G54D77*
D03*
G54D13*
X626666Y-587375D02*
X648494Y-587375D01*
X665162Y-579834D01*
X523334Y-89838D02*
G54D77*
D03*
X523334Y-167338D02*
G54D77*
D03*
G54D60*
X652462Y-109538D02*
X620712Y-106362D01*
X591344Y-101600D01*
X558403Y-102394D01*
X715869Y-626530D02*
G54D72*
D03*
X692969Y-616330D02*
G54D72*
D03*
X692969Y-636730D02*
G54D72*
D03*
G54D13*
X690056Y-683706D02*
X689770Y-657226D01*
X722287Y-616718D02*
G54D63*
D03*
G54D13*
X715869Y-626530D02*
X722312Y-616744D01*
X251593Y-107131D02*
G54D70*
D03*
X251593Y-88131D02*
G54D70*
D03*
X37704Y-177006D02*
G54D69*
D03*
G36*
X50204Y-169006D02*
X63204Y-169006D01*
X63204Y-185006D01*
X50204Y-185006D01*
X50204Y-169006D01*
G37*
G54D60*
X529431Y-540921D02*
X536575Y-495300D01*
X596900Y-768350D02*
G54D62*
D03*
X554038Y-541312D02*
G54D70*
D03*
X554038Y-560312D02*
G54D70*
D03*
G54D13*
X586362Y-552450D02*
X576256Y-540921D01*
X363512Y-386928D02*
G54D28*
D03*
X69825Y-55538D02*
G54D69*
D03*
X50825Y-55538D02*
G54D69*
D03*
G54D13*
X73025Y-76200D02*
X73025Y-57150D01*
X69850Y-53975D01*
X87287Y-57125D02*
G54D28*
D03*
X81731Y-117450D02*
G54D28*
D03*
X52362Y-76175D02*
G54D28*
D03*
X396478Y-80566D02*
G54D42*
D03*
X447278Y-131366D02*
G54D42*
D03*
X447278Y-80566D02*
G54D42*
D03*
X396478Y-131366D02*
G54D42*
D03*
X312738Y-53975D02*
G54D70*
D03*
X312738Y-72975D02*
G54D70*
D03*
G54D13*
X352425Y-73819D02*
X368300Y-74216D01*
G54D79*
X313134Y-74562D02*
X331906Y-73938D01*
X365919Y-126206D02*
G54D72*
D03*
X343019Y-116006D02*
G54D72*
D03*
X343019Y-136406D02*
G54D72*
D03*
G54D79*
X312738Y-72975D02*
X312738Y-107156D01*
G54D13*
X342106Y-96838D02*
X342106Y-115093D01*
X343019Y-116006D01*
G54D13*
X365919Y-126206D02*
X396478Y-131366D01*
G54D79*
X342900Y-136525D02*
X323056Y-136525D01*
X312738Y-126206D01*
X367815Y-74019D02*
G54D81*
D03*
X367815Y-55018D02*
G54D81*
D03*
G54D79*
X343019Y-136406D02*
X342900Y-160338D01*
X351234Y-168672D01*
X374522Y-168672D01*
G54D13*
X312738Y-53975D02*
X337716Y-44028D01*
X342900Y-160338D02*
G54D69*
D03*
X323900Y-160338D02*
G54D69*
D03*
G54D13*
X393522Y-168672D02*
X421036Y-168672D01*
X421060Y-168647D01*
X23812Y-241300D02*
G54D77*
D03*
X101313Y-241300D02*
G54D77*
D03*
X87897Y-241583D02*
G54D69*
D03*
X68897Y-241583D02*
G54D69*
D03*
G54D13*
X16272Y-241300D02*
X16272Y-241300D01*
X191294Y-234950D02*
G54D70*
D03*
X191294Y-215950D02*
G54D70*
D03*
G54D36*
X399256Y-359578D02*
X399256Y-382578D01*
G54D36*
X450056Y-359578D02*
X450056Y-382578D01*
G54D36*
X424656Y-359578D02*
X424656Y-382578D01*
G54D13*
X480180Y-89784D02*
X458788Y-106759D01*
X422275Y-106759D01*
G54D13*
X499180Y-89784D02*
X523334Y-89838D01*
G54D13*
X493712Y-192088D02*
X493712Y-158750D01*
X550069Y-102394D01*
X558006Y-102394D01*
X493712Y-192088D02*
G54D78*
D03*
G54D36*
X424656Y-371078D02*
X424656Y-394492D01*
X389484Y-451095D01*
G54D60*
X389484Y-451095D02*
X352191Y-451095D01*
X337339Y-436243D01*
X576256Y-621486D02*
G54D42*
D03*
X529431Y-643312D02*
G54D42*
D03*
X529431Y-621486D02*
G54D42*
D03*
X529431Y-665136D02*
G54D42*
D03*
X576256Y-665136D02*
G54D42*
D03*
G54D14*
X576256Y-665136D02*
X529431Y-665136D01*
G54D14*
X529431Y-621486D02*
X576256Y-621486D01*
G54D13*
X622697Y-664369D02*
X576627Y-664766D01*
X576256Y-665136D01*
X552846Y-664293D02*
G54D70*
D03*
X552847Y-645293D02*
G54D70*
D03*
X444475Y-509166D02*
G54D28*
D03*
X331762Y-509166D02*
G54D28*
D03*
G54D14*
X233287Y-109562D02*
X251593Y-107131D01*
X570284Y-70619D02*
G54D28*
D03*
X352028Y-455189D02*
G54D70*
D03*
X352028Y-474190D02*
G54D70*
D03*
X691331Y-583381D02*
G54D28*
D03*
X690934Y-338906D02*
G54D28*
D03*
X337990Y-185713D02*
G54D28*
D03*
X285602Y-142056D02*
G54D28*
D03*
G54D14*
X729456Y-185738D02*
X729456Y-146844D01*
X725488Y-128588D01*
X558800Y-102394D02*
G54D70*
D03*
X558800Y-121394D02*
G54D70*
D03*
G54D13*
X140444Y-145256D02*
X131762Y-112712D01*
G54D14*
X191294Y-234950D02*
X163512Y-234950D01*
X111522Y-53578D02*
G54D42*
D03*
X299244Y-307975D02*
G54D69*
D03*
X318244Y-307975D02*
G54D69*
D03*
X714350Y-211906D02*
G54D28*
D03*
X679450Y-215900D02*
G54D68*
D03*
X651450Y-215900D02*
G54D68*
D03*
G54D60*
X629732Y-215394D02*
X651450Y-215900D01*
X651863Y-195236D01*
G54D60*
X651669Y-176262D02*
X652058Y-160713D01*
G54D60*
X679450Y-215106D02*
X680066Y-243681D01*
X702756Y-445006D02*
G54D68*
D03*
X702756Y-417006D02*
G54D68*
D03*
G54D13*
X689794Y-637524D02*
X689770Y-657226D01*
X665019Y-657478D01*
X121444Y-145256D02*
G54D82*
D03*
X140444Y-145256D02*
G54D82*
D03*
X121841Y-171450D02*
G54D69*
D03*
G36*
X134341Y-163450D02*
X147341Y-163450D01*
X147341Y-179450D01*
X134341Y-179450D01*
X134341Y-163450D01*
G37*
X164306Y-234950D02*
G54D70*
D03*
X164306Y-215950D02*
G54D70*
D03*
X177006Y-147638D02*
G54D81*
D03*
X177007Y-166638D02*
G54D81*
D03*
X201520Y-165975D02*
G54D82*
D03*
X220520Y-165975D02*
G54D82*
D03*
X272256Y-107156D02*
G54D81*
D03*
X272256Y-88156D02*
G54D81*
D03*
X299244Y-282575D02*
G54D82*
D03*
X318244Y-282575D02*
G54D82*
D03*
X357188Y-263525D02*
G54D81*
D03*
X357187Y-244525D02*
G54D81*
D03*
X300831Y-329406D02*
G54D68*
D03*
X300831Y-357406D02*
G54D68*
D03*
G54D44*
X300831Y-357406D02*
X300831Y-377031D01*
X398438Y-311919D02*
G54D70*
D03*
X398438Y-292919D02*
G54D70*
D03*
X374522Y-168672D02*
G54D82*
D03*
X393522Y-168672D02*
G54D82*
D03*
X312738Y-107156D02*
G54D81*
D03*
X312738Y-126156D02*
G54D81*
D03*
X480180Y-89784D02*
G54D82*
D03*
X499180Y-89784D02*
G54D82*
D03*
X597406Y-162212D02*
G54D82*
D03*
X578406Y-162213D02*
G54D82*
D03*
X710534Y-187326D02*
G54D82*
D03*
X729534Y-187326D02*
G54D82*
D03*
X628494Y-235531D02*
G54D81*
D03*
X628494Y-216531D02*
G54D81*
D03*
X554121Y-227683D02*
G54D69*
D03*
X535121Y-227683D02*
G54D69*
D03*
X606425Y-254000D02*
G54D81*
D03*
X606426Y-273000D02*
G54D81*
D03*
X233361Y-109537D02*
G54D68*
D03*
X205361Y-109537D02*
G54D68*
D03*
G54D13*
X614362Y-552450D02*
X626781Y-562494D01*
X690056Y-683706D02*
G54D82*
D03*
X709056Y-683706D02*
G54D82*
D03*
X499576Y-501343D02*
G54D77*
D03*
X499576Y-451343D02*
G54D77*
D03*
X389484Y-501095D02*
G54D77*
D03*
X389484Y-451095D02*
G54D77*
D03*
X276532Y-500549D02*
G54D77*
D03*
X276532Y-450549D02*
G54D77*
D03*
X108718Y-274612D02*
G54D63*
D03*
X15056Y-331762D02*
G54D28*
D03*
X614362Y-552450D02*
G54D68*
D03*
X586362Y-552450D02*
G54D68*
D03*
X405606Y-452438D02*
G54D83*
D03*
X433606Y-452438D02*
G54D83*
D03*
X564432Y-445132D02*
G54D83*
D03*
X536432Y-445131D02*
G54D83*
D03*
X536575Y-495300D02*
G54D83*
D03*
X564575Y-495300D02*
G54D83*
D03*
X546285Y-359010D02*
G54D71*
D03*
X546284Y-387009D02*
G54D71*
D03*
X545975Y-331681D02*
G54D71*
D03*
X545976Y-303681D02*
G54D71*
D03*
X457869Y-280087D02*
G54D71*
D03*
X457870Y-252088D02*
G54D71*
D03*
G36*
X413035Y-158672D02*
X429035Y-158672D01*
X429036Y-178672D01*
X413036Y-178672D01*
X413035Y-158672D01*
G37*
G36*
X441035Y-158672D02*
X457035Y-158672D01*
X457035Y-178672D01*
X441035Y-178672D01*
X441035Y-158672D01*
G37*
X591344Y-101600D02*
G54D71*
D03*
X591344Y-73600D02*
G54D71*
D03*
X665134Y-644380D02*
G54D71*
D03*
X665134Y-616381D02*
G54D71*
D03*
%LNAUGENFREISTANZEN*%
%LPC*%
X663575Y-44847D02*
G54D84*
D03*
X663575Y-758031D02*
G54D84*
D03*
X550863Y-706041D02*
G54D75*
D03*
X622697Y-664369D02*
G54D22*
D03*
X370000Y-410000D02*
G54D75*
D03*
X450850Y-417909D02*
G54D22*
D03*
X150813Y-321072D02*
G54D75*
D03*
X48419Y-273447D02*
G54D75*
D03*
X104378Y-320674D02*
G54D22*
D03*
X46832Y-313531D02*
G54D22*
D03*
X225425Y-63897D02*
G54D14*
D03*
X239288Y-234537D02*
G54D14*
D03*
X213888Y-234537D02*
G54D14*
D03*
X264688Y-183737D02*
G54D14*
D03*
X239288Y-183737D02*
G54D14*
D03*
X213888Y-183737D02*
G54D14*
D03*
X264688Y-234537D02*
G54D14*
D03*
X169837Y-194443D02*
G54D14*
D03*
X239688Y-255562D02*
G54D14*
D03*
X271066Y-343695D02*
G54D22*
D03*
X271066Y-318295D02*
G54D22*
D03*
X87391Y-207101D02*
G54D22*
D03*
X87391Y-181701D02*
G54D22*
D03*
X576256Y-540921D02*
G54D14*
D03*
X529431Y-562746D02*
G54D14*
D03*
X529431Y-540921D02*
G54D14*
D03*
X529431Y-584571D02*
G54D14*
D03*
X576256Y-584571D02*
G54D14*
D03*
X707400Y-549900D02*
G54D60*
D03*
X707400Y-524500D02*
G54D60*
D03*
X707400Y-499100D02*
G54D60*
D03*
X707400Y-308600D02*
G54D60*
D03*
X707400Y-283200D02*
G54D60*
D03*
X707400Y-257800D02*
G54D60*
D03*
X577426Y-382968D02*
G54D14*
D03*
X628226Y-332168D02*
G54D14*
D03*
X577426Y-332168D02*
G54D14*
D03*
X628226Y-382969D02*
G54D14*
D03*
X577850Y-495300D02*
G54D14*
D03*
X628650Y-444500D02*
G54D14*
D03*
X577850Y-444500D02*
G54D14*
D03*
X628650Y-495300D02*
G54D14*
D03*
X652059Y-109913D02*
G54D14*
D03*
X702859Y-160713D02*
G54D14*
D03*
X702859Y-109913D02*
G54D14*
D03*
X652058Y-160713D02*
G54D14*
D03*
X500063Y-332581D02*
G54D22*
D03*
X525462Y-332581D02*
G54D22*
D03*
X500063Y-357981D02*
G54D22*
D03*
X525463Y-357981D02*
G54D22*
D03*
X630212Y-412725D02*
G54D14*
D03*
X722288Y-723081D02*
G54D14*
D03*
X540519Y-419869D02*
G54D14*
D03*
X571475Y-296838D02*
G54D14*
D03*
X496069Y-221828D02*
G54D14*
D03*
X337716Y-44028D02*
G54D14*
D03*
X561975Y-188912D02*
G54D14*
D03*
X586975Y-188912D02*
G54D14*
D03*
X611975Y-188912D02*
G54D14*
D03*
X562372Y-243681D02*
G54D14*
D03*
X587372Y-243681D02*
G54D14*
D03*
X612372Y-243681D02*
G54D14*
D03*
X731019Y-396056D02*
G54D14*
D03*
X20000Y-20000D02*
G54D14*
D03*
X355178Y-296838D02*
G54D14*
D03*
X700000Y-20000D02*
G54D14*
D03*
X187325Y-44847D02*
G54D14*
D03*
X187325Y-63897D02*
G54D14*
D03*
X187325Y-82947D02*
G54D14*
D03*
X714350Y-87288D02*
G54D14*
D03*
X623862Y-161900D02*
G54D14*
D03*
X482600Y-131762D02*
G54D14*
D03*
X482600Y-60325D02*
G54D14*
D03*
X396453Y-44822D02*
G54D14*
D03*
X33925Y-54975D02*
G54D22*
D03*
X33925Y-205375D02*
G54D22*
D03*
X138112Y-123825D02*
G54D14*
D03*
X61491Y-100384D02*
G54D14*
D03*
X158328Y-60300D02*
G54D14*
D03*
X288106Y-188094D02*
G54D14*
D03*
X626781Y-562494D02*
G54D14*
D03*
X626781Y-587494D02*
G54D14*
D03*
X626781Y-612494D02*
G54D14*
D03*
X665019Y-579978D02*
G54D22*
D03*
X665019Y-657478D02*
G54D22*
D03*
X523334Y-89838D02*
G54D22*
D03*
X523334Y-167338D02*
G54D22*
D03*
X722287Y-616718D02*
G54D22*
D03*
X596900Y-768350D02*
G54D22*
D03*
X363512Y-386928D02*
G54D14*
D03*
X87287Y-57125D02*
G54D14*
D03*
X81731Y-117450D02*
G54D14*
D03*
X52362Y-76175D02*
G54D14*
D03*
X396478Y-80566D02*
G54D14*
D03*
X447278Y-131366D02*
G54D14*
D03*
X447278Y-80566D02*
G54D14*
D03*
X396478Y-131366D02*
G54D14*
D03*
X23812Y-241300D02*
G54D22*
D03*
X101313Y-241300D02*
G54D22*
D03*
X399256Y-371078D02*
G54D60*
D03*
X450056Y-371078D02*
G54D60*
D03*
X424656Y-371078D02*
G54D60*
D03*
X493712Y-192088D02*
G54D14*
D03*
X576256Y-621486D02*
G54D14*
D03*
X529431Y-643312D02*
G54D14*
D03*
X529431Y-621486D02*
G54D14*
D03*
X529431Y-665136D02*
G54D14*
D03*
X576256Y-665136D02*
G54D14*
D03*
X444475Y-509166D02*
G54D14*
D03*
X331762Y-509166D02*
G54D14*
D03*
X570284Y-70619D02*
G54D14*
D03*
X691331Y-583381D02*
G54D14*
D03*
X690934Y-338906D02*
G54D14*
D03*
X337990Y-185713D02*
G54D14*
D03*
X285602Y-142056D02*
G54D14*
D03*
X111522Y-53578D02*
G54D14*
D03*
X714350Y-211906D02*
G54D14*
D03*
X499576Y-501343D02*
G54D22*
D03*
X499576Y-451343D02*
G54D22*
D03*
X389484Y-501095D02*
G54D22*
D03*
X389484Y-451095D02*
G54D22*
D03*
X276532Y-500549D02*
G54D22*
D03*
X276532Y-450549D02*
G54D22*
D03*
X108718Y-274612D02*
G54D22*
D03*
X15056Y-331762D02*
G54D14*
D03*
M02*
