%FSLAX34Y34*%
%MOMM*%
%LNCOPPER_TOP*%
G71*
G01*
%ADD10R, 2.400X2.100*%
%ADD11R, 2.400X2.800*%
%ADD12C, 1.400*%
%ADD13C, 3.800*%
%ADD14C, 0.433*%
%ADD15R, 1.600X1.300*%
%ADD16R, 1.600X2.000*%
%ADD17C, 0.600*%
%ADD18C, 3.000*%
%LPD*%
G36*
X0Y0D02*
X320000Y0D01*
X320000Y-100000D01*
X0Y-100000D01*
X0Y0D01*
G37*
%LPC*%
X60300Y-50825D02*
G54D10*
D03*
X60300Y-69825D02*
G54D10*
D03*
X101600Y-50800D02*
G54D10*
D03*
X101600Y-69800D02*
G54D10*
D03*
X60325Y-22225D02*
G54D11*
D03*
X88325Y-22225D02*
G54D11*
D03*
G54D12*
X88325Y-22225D02*
X117475Y-22225D01*
G54D12*
X29150Y-50800D02*
X60300Y-50825D01*
X60325Y-22225D01*
X29150Y-50800D02*
G54D13*
D03*
G54D12*
X101600Y-50800D02*
X101600Y-22225D01*
X158750Y-50800D02*
G54D10*
D03*
X158750Y-69800D02*
G54D10*
D03*
X117475Y-22225D02*
G54D11*
D03*
X145475Y-22225D02*
G54D11*
D03*
G54D12*
X145475Y-22225D02*
X174625Y-22225D01*
G54D12*
X158750Y-50800D02*
X158750Y-22225D01*
X215900Y-50800D02*
G54D10*
D03*
X215900Y-69800D02*
G54D10*
D03*
X174625Y-22225D02*
G54D11*
D03*
X202625Y-22225D02*
G54D11*
D03*
G54D12*
X202625Y-22225D02*
X231775Y-22225D01*
G54D12*
X215900Y-50800D02*
X215900Y-22225D01*
X231775Y-22225D02*
G54D11*
D03*
X259775Y-22225D02*
G54D11*
D03*
X259800Y-50825D02*
G54D10*
D03*
X259800Y-69825D02*
G54D10*
D03*
G54D12*
X290950Y-50800D02*
X259800Y-50825D01*
X259775Y-22225D01*
X290950Y-50800D02*
G54D13*
D03*
%LPD*%
G54D14*
G36*
X60300Y-67658D02*
X72800Y-67658D01*
X72800Y-71992D01*
X60300Y-71992D01*
X60300Y-67658D01*
G37*
G36*
X62466Y-69825D02*
X62466Y-80825D01*
X58134Y-80825D01*
X58134Y-69825D01*
X62466Y-69825D01*
G37*
G36*
X60300Y-71992D02*
X47800Y-71992D01*
X47800Y-67658D01*
X60300Y-67658D01*
X60300Y-71992D01*
G37*
G54D14*
G36*
X101600Y-67634D02*
X114100Y-67634D01*
X114100Y-71966D01*
X101600Y-71966D01*
X101600Y-67634D01*
G37*
G36*
X103766Y-69800D02*
X103766Y-80800D01*
X99434Y-80800D01*
X99434Y-69800D01*
X103766Y-69800D01*
G37*
G36*
X101600Y-71966D02*
X89100Y-71966D01*
X89100Y-67634D01*
X101600Y-67634D01*
X101600Y-71966D01*
G37*
G54D14*
G36*
X158750Y-67634D02*
X171250Y-67634D01*
X171250Y-71966D01*
X158750Y-71966D01*
X158750Y-67634D01*
G37*
G36*
X160916Y-69800D02*
X160916Y-80800D01*
X156584Y-80800D01*
X156584Y-69800D01*
X160916Y-69800D01*
G37*
G36*
X158750Y-71966D02*
X146250Y-71966D01*
X146250Y-67634D01*
X158750Y-67634D01*
X158750Y-71966D01*
G37*
G54D14*
G36*
X215900Y-67634D02*
X228400Y-67634D01*
X228400Y-71966D01*
X215900Y-71966D01*
X215900Y-67634D01*
G37*
G36*
X218066Y-69800D02*
X218066Y-80800D01*
X213734Y-80800D01*
X213734Y-69800D01*
X218066Y-69800D01*
G37*
G36*
X215900Y-71966D02*
X203400Y-71966D01*
X203400Y-67634D01*
X215900Y-67634D01*
X215900Y-71966D01*
G37*
G54D14*
G36*
X259800Y-67658D02*
X272300Y-67658D01*
X272300Y-71992D01*
X259800Y-71992D01*
X259800Y-67658D01*
G37*
G36*
X261966Y-69825D02*
X261966Y-80825D01*
X257634Y-80825D01*
X257634Y-69825D01*
X261966Y-69825D01*
G37*
G36*
X259800Y-71992D02*
X247300Y-71992D01*
X247300Y-67658D01*
X259800Y-67658D01*
X259800Y-71992D01*
G37*
X60300Y-50825D02*
G54D15*
D03*
X60300Y-69825D02*
G54D15*
D03*
X101600Y-50800D02*
G54D15*
D03*
X101600Y-69800D02*
G54D15*
D03*
X60325Y-22225D02*
G54D16*
D03*
X88325Y-22225D02*
G54D16*
D03*
G54D17*
X88325Y-22225D02*
X117475Y-22225D01*
G54D17*
X29150Y-50800D02*
X60300Y-50825D01*
X60325Y-22225D01*
X29150Y-50800D02*
G54D18*
D03*
G54D17*
X101600Y-50800D02*
X101600Y-22225D01*
X158750Y-50800D02*
G54D15*
D03*
X158750Y-69800D02*
G54D15*
D03*
X117475Y-22225D02*
G54D16*
D03*
X145475Y-22225D02*
G54D16*
D03*
G54D17*
X145475Y-22225D02*
X174625Y-22225D01*
G54D17*
X158750Y-50800D02*
X158750Y-22225D01*
X215900Y-50800D02*
G54D15*
D03*
X215900Y-69800D02*
G54D15*
D03*
X174625Y-22225D02*
G54D16*
D03*
X202625Y-22225D02*
G54D16*
D03*
G54D17*
X202625Y-22225D02*
X231775Y-22225D01*
G54D17*
X215900Y-50800D02*
X215900Y-22225D01*
X231775Y-22225D02*
G54D16*
D03*
X259775Y-22225D02*
G54D16*
D03*
X259800Y-50825D02*
G54D15*
D03*
X259800Y-69825D02*
G54D15*
D03*
G54D17*
X290950Y-50800D02*
X259800Y-50825D01*
X259775Y-22225D01*
X290950Y-50800D02*
G54D18*
D03*
M02*
