%FSLAX34Y34*%
%MOMM*%
%LNCOPPER_BOTTOM*%
G71*
G01*
%ADD10C, 3.000*%
%ADD11C, 2.800*%
%ADD12C, 3.800*%
%ADD13C, 2.000*%
%ADD14C, 3.000*%
%ADD15R, 2.400X2.400*%
%ADD16C, 6.800*%
%ADD17C, 1.800*%
%ADD18C, 2.800*%
%ADD19C, 3.800*%
%ADD20C, 0.733*%
%ADD21C, 0.667*%
%ADD22C, 0.533*%
%ADD23C, 2.200*%
%ADD24C, 2.000*%
%ADD25C, 3.000*%
%ADD26C, 2.200*%
%ADD27R, 1.600X1.600*%
%ADD28C, 1.000*%
%ADD29C, 0.800*%
%ADD30C, 0.600*%
%ADD31C, 6.000*%
%LPD*%
G36*
X0Y0D02*
X850000Y0D01*
X850000Y-270000D01*
X0Y-270000D01*
X0Y0D01*
G37*
%LPC*%
G36*
X34994Y-210322D02*
X34994Y-240322D01*
X4994Y-240322D01*
X4994Y-210322D01*
X34994Y-210322D01*
G37*
X45394Y-225322D02*
G54D10*
D03*
X259968Y-171687D02*
G54D11*
D03*
X205167Y-226488D02*
G54D11*
D03*
X401121Y-146976D02*
G54D12*
D03*
X350321Y-197776D02*
G54D12*
D03*
X401121Y-197776D02*
G54D12*
D03*
X350321Y-146976D02*
G54D12*
D03*
X323057Y-165894D02*
G54D13*
D03*
X114301Y-81756D02*
G54D13*
D03*
X24607Y-159544D02*
G54D13*
D03*
G54D14*
X379826Y-91445D02*
X401826Y-91445D01*
G54D14*
X379826Y-40645D02*
X401826Y-40645D01*
G54D14*
X379826Y-66045D02*
X401826Y-66045D01*
X120651Y-37306D02*
G54D13*
D03*
X150019Y-142875D02*
G54D12*
D03*
X200819Y-193675D02*
G54D12*
D03*
X200819Y-142875D02*
G54D12*
D03*
X150018Y-193675D02*
G54D12*
D03*
X368012Y-66389D02*
G54D15*
D03*
X340012Y-66389D02*
G54D15*
D03*
X655841Y-218623D02*
G54D16*
D03*
X655841Y-103530D02*
G54D16*
D03*
X431799Y-142081D02*
G54D11*
D03*
X431799Y-219581D02*
G54D11*
D03*
X593725Y-133350D02*
G54D12*
D03*
X542925Y-184150D02*
G54D12*
D03*
X593725Y-184150D02*
G54D12*
D03*
X542925Y-133350D02*
G54D12*
D03*
G54D17*
X350321Y-146976D02*
X376238Y-125412D01*
X419100Y-112762D01*
X431007Y-83344D01*
X431007Y-83344D02*
G54D18*
D03*
G54D17*
X593725Y-184150D02*
X542925Y-133350D01*
G54D17*
X542925Y-133350D02*
X542631Y-58738D01*
X513557Y-18256D01*
X513557Y-18256D02*
G54D18*
D03*
G36*
X532006Y-77408D02*
X556006Y-77407D01*
X556006Y-101407D01*
X532006Y-101408D01*
X532006Y-77408D01*
G37*
G36*
X560006Y-77408D02*
X584006Y-77407D01*
X584006Y-101407D01*
X560006Y-101408D01*
X560006Y-77408D01*
G37*
X567531Y-58738D02*
G54D11*
D03*
X542631Y-58738D02*
G54D11*
D03*
X577731Y-58738D02*
G54D11*
D03*
X542631Y-58738D02*
G54D11*
D03*
X592631Y-58738D02*
G54D11*
D03*
X542631Y-58738D02*
G54D11*
D03*
X757898Y-185221D02*
G54D12*
D03*
X707098Y-134421D02*
G54D12*
D03*
X707098Y-185221D02*
G54D12*
D03*
X757899Y-134421D02*
G54D12*
D03*
X731838Y-39687D02*
G54D19*
D03*
X812006Y-134937D02*
G54D19*
D03*
%LPD*%
G54D20*
G36*
X23660Y-225322D02*
X23660Y-240822D01*
X16327Y-240822D01*
X16327Y-225322D01*
X23660Y-225322D01*
G37*
G36*
X19994Y-228989D02*
X4494Y-228989D01*
X4494Y-221655D01*
X19994Y-221655D01*
X19994Y-228989D01*
G37*
G36*
X16327Y-225322D02*
X16327Y-209822D01*
X23660Y-209822D01*
X23660Y-225322D01*
X16327Y-225322D01*
G37*
G54D21*
G36*
X207524Y-224131D02*
X217778Y-234384D01*
X213064Y-239098D01*
X202810Y-228845D01*
X207524Y-224131D01*
G37*
G36*
X207524Y-228845D02*
X197271Y-239098D01*
X192557Y-234384D01*
X202810Y-224131D01*
X207524Y-228845D01*
G37*
G36*
X202810Y-228845D02*
X192557Y-218592D01*
X197271Y-213878D01*
X207524Y-224131D01*
X202810Y-228845D01*
G37*
G36*
X202810Y-224131D02*
X213064Y-213878D01*
X217778Y-218592D01*
X207524Y-228845D01*
X202810Y-224131D01*
G37*
G54D22*
G36*
X342678Y-66389D02*
X342678Y-78889D01*
X337345Y-78889D01*
X337345Y-66389D01*
X342678Y-66389D01*
G37*
G36*
X340012Y-69055D02*
X327512Y-69055D01*
X327512Y-63722D01*
X340012Y-63722D01*
X340012Y-69055D01*
G37*
G36*
X337345Y-66389D02*
X337345Y-53889D01*
X342678Y-53889D01*
X342678Y-66389D01*
X337345Y-66389D01*
G37*
G36*
X340012Y-63722D02*
X352512Y-63722D01*
X352512Y-69055D01*
X340012Y-69055D01*
X340012Y-63722D01*
G37*
G54D21*
G36*
X431799Y-216248D02*
X446299Y-216248D01*
X446299Y-222915D01*
X431799Y-222915D01*
X431799Y-216248D01*
G37*
G36*
X435132Y-219581D02*
X435132Y-234081D01*
X428466Y-234081D01*
X428466Y-219581D01*
X435132Y-219581D01*
G37*
G36*
X431799Y-222915D02*
X417299Y-222915D01*
X417299Y-216248D01*
X431799Y-216248D01*
X431799Y-222915D01*
G37*
G36*
X428466Y-219581D02*
X428466Y-205081D01*
X435132Y-205081D01*
X435132Y-219581D01*
X428466Y-219581D01*
G37*
G54D22*
G36*
X569339Y-89407D02*
X569339Y-76907D01*
X574672Y-76907D01*
X574672Y-89407D01*
X569339Y-89407D01*
G37*
G36*
X572006Y-86741D02*
X584506Y-86741D01*
X584506Y-92074D01*
X572006Y-92074D01*
X572006Y-86741D01*
G37*
G36*
X574672Y-89407D02*
X574672Y-101907D01*
X569339Y-101907D01*
X569339Y-89407D01*
X574672Y-89407D01*
G37*
G36*
X572006Y-92074D02*
X559506Y-92074D01*
X559506Y-86741D01*
X572006Y-86741D01*
X572006Y-92074D01*
G37*
G54D21*
G36*
X564198Y-58738D02*
X564198Y-44238D01*
X570865Y-44238D01*
X570865Y-58738D01*
X564198Y-58738D01*
G37*
G36*
X567531Y-55404D02*
X582031Y-55404D01*
X582031Y-62071D01*
X567531Y-62071D01*
X567531Y-55404D01*
G37*
G36*
X570865Y-58738D02*
X570865Y-73238D01*
X564198Y-73238D01*
X564198Y-58738D01*
X570865Y-58738D01*
G37*
G54D21*
G36*
X574398Y-58738D02*
X574398Y-44238D01*
X581064Y-44238D01*
X581064Y-58738D01*
X574398Y-58738D01*
G37*
G36*
X577731Y-55404D02*
X592231Y-55404D01*
X592231Y-62071D01*
X577731Y-62071D01*
X577731Y-55404D01*
G37*
G36*
X581064Y-58738D02*
X581064Y-73238D01*
X574398Y-73238D01*
X574398Y-58738D01*
X581064Y-58738D01*
G37*
G36*
X577731Y-62071D02*
X563231Y-62071D01*
X563231Y-55404D01*
X577731Y-55404D01*
X577731Y-62071D01*
G37*
G54D21*
G36*
X589298Y-58738D02*
X589298Y-44238D01*
X595964Y-44238D01*
X595964Y-58738D01*
X589298Y-58738D01*
G37*
G36*
X592631Y-55404D02*
X607131Y-55404D01*
X607131Y-62071D01*
X592631Y-62071D01*
X592631Y-55404D01*
G37*
G36*
X595964Y-58738D02*
X595964Y-73238D01*
X589298Y-73238D01*
X589298Y-58738D01*
X595964Y-58738D01*
G37*
G36*
X592631Y-62071D02*
X578131Y-62071D01*
X578131Y-55404D01*
X592631Y-55404D01*
X592631Y-62071D01*
G37*
G36*
X30994Y-214322D02*
X30994Y-236322D01*
X8994Y-236322D01*
X8994Y-214322D01*
X30994Y-214322D01*
G37*
X45394Y-225322D02*
G54D23*
D03*
X259968Y-171687D02*
G54D24*
D03*
X205167Y-226488D02*
G54D24*
D03*
X401121Y-146976D02*
G54D25*
D03*
X350321Y-197776D02*
G54D25*
D03*
X401121Y-197776D02*
G54D25*
D03*
X350321Y-146976D02*
G54D25*
D03*
X323057Y-165894D02*
G54D13*
D03*
X114301Y-81756D02*
G54D13*
D03*
X24607Y-159544D02*
G54D13*
D03*
G54D26*
X379826Y-91445D02*
X401826Y-91445D01*
G54D26*
X379826Y-40645D02*
X401826Y-40645D01*
G54D26*
X379826Y-66045D02*
X401826Y-66045D01*
X120651Y-37306D02*
G54D13*
D03*
X150019Y-142875D02*
G54D25*
D03*
X200819Y-193675D02*
G54D25*
D03*
X200819Y-142875D02*
G54D25*
D03*
X150018Y-193675D02*
G54D25*
D03*
X368012Y-66389D02*
G54D27*
D03*
X340012Y-66389D02*
G54D27*
D03*
X431799Y-142081D02*
G54D24*
D03*
X431799Y-219581D02*
G54D24*
D03*
X593725Y-133350D02*
G54D25*
D03*
X542925Y-184150D02*
G54D25*
D03*
X593725Y-184150D02*
G54D25*
D03*
X542925Y-133350D02*
G54D25*
D03*
G54D28*
X350321Y-146976D02*
X376238Y-125412D01*
X419100Y-112762D01*
X431007Y-83344D01*
X431007Y-83344D02*
G54D13*
D03*
G54D28*
X593725Y-184150D02*
X542925Y-133350D01*
G54D28*
X542925Y-133350D02*
X542631Y-58738D01*
X513557Y-18256D01*
X513557Y-18256D02*
G54D13*
D03*
G36*
X536006Y-81408D02*
X552006Y-81407D01*
X552006Y-97407D01*
X536006Y-97408D01*
X536006Y-81408D01*
G37*
G36*
X564006Y-81408D02*
X580006Y-81407D01*
X580006Y-97407D01*
X564006Y-97408D01*
X564006Y-81408D01*
G37*
X567531Y-58738D02*
G54D24*
D03*
X542631Y-58738D02*
G54D24*
D03*
X577731Y-58738D02*
G54D24*
D03*
X542631Y-58738D02*
G54D24*
D03*
X592631Y-58738D02*
G54D24*
D03*
X542631Y-58738D02*
G54D24*
D03*
X757898Y-185221D02*
G54D25*
D03*
X707098Y-134421D02*
G54D25*
D03*
X707098Y-185221D02*
G54D25*
D03*
X757899Y-134421D02*
G54D25*
D03*
X731838Y-39687D02*
G54D10*
D03*
X812006Y-134937D02*
G54D10*
D03*
%LNAUGENFREISTANZEN*%
%LPC*%
X19994Y-225322D02*
G54D29*
D03*
X45394Y-225322D02*
G54D29*
D03*
X259968Y-171687D02*
G54D29*
D03*
X205167Y-226488D02*
G54D29*
D03*
X401121Y-146976D02*
G54D30*
D03*
X350321Y-197776D02*
G54D30*
D03*
X401121Y-197776D02*
G54D30*
D03*
X350321Y-146976D02*
G54D30*
D03*
X323057Y-165894D02*
G54D30*
D03*
X114301Y-81756D02*
G54D30*
D03*
X24607Y-159544D02*
G54D30*
D03*
X390826Y-91445D02*
G54D28*
D03*
X390826Y-40645D02*
G54D28*
D03*
X390826Y-66045D02*
G54D28*
D03*
X120651Y-37306D02*
G54D30*
D03*
X150019Y-142875D02*
G54D30*
D03*
X200819Y-193675D02*
G54D30*
D03*
X200819Y-142875D02*
G54D30*
D03*
X150018Y-193675D02*
G54D30*
D03*
X655841Y-218623D02*
G54D31*
D03*
X655841Y-103530D02*
G54D31*
D03*
X431799Y-142081D02*
G54D29*
D03*
X431799Y-219581D02*
G54D29*
D03*
X593725Y-133350D02*
G54D30*
D03*
X542925Y-184150D02*
G54D30*
D03*
X593725Y-184150D02*
G54D30*
D03*
X542925Y-133350D02*
G54D30*
D03*
X431007Y-83344D02*
G54D30*
D03*
X513557Y-18256D02*
G54D30*
D03*
X567531Y-58738D02*
G54D29*
D03*
X542631Y-58738D02*
G54D29*
D03*
X577731Y-58738D02*
G54D29*
D03*
X542631Y-58738D02*
G54D29*
D03*
X592631Y-58738D02*
G54D29*
D03*
X542631Y-58738D02*
G54D29*
D03*
X757898Y-185221D02*
G54D30*
D03*
X707098Y-134421D02*
G54D30*
D03*
X707098Y-185221D02*
G54D30*
D03*
X757899Y-134421D02*
G54D30*
D03*
X731838Y-39687D02*
G54D29*
D03*
X812006Y-134937D02*
G54D29*
D03*
M02*
