M48
M71
T01C0.6
T02C0.8
T03C1.0
T04C6.0
%
G05
T01
X-002460Y-015950
X-011430Y-008180
X-012070Y-003730
X-015000Y-014290
X-020080Y-014290
X-020080Y-019370
X-015000Y-019370
X-032310Y-016590
X-035030Y-014700
X-035030Y-019780
X-040110Y-019780
X-040110Y-014700
X-043100Y-008330
X-051360Y-001830
X-054290Y-013340
X-054290Y-018420
X-059370Y-018420
X-059370Y-013340
X-070710Y-013440
X-070710Y-018520
X-075790Y-018520
X-075790Y-013440
T02
X-002000Y-022530
X-004540Y-022530
X-020520Y-022650
X-026000Y-017170
X-043180Y-014210
X-043180Y-021960
X-054260Y-005870
X-056750Y-005870
X-057770Y-005870
X-059260Y-005870
X-073180Y-003970
X-081200Y-013490
T03
X-039080Y-009140
X-039080Y-006600
X-039080Y-004060
X-049040Y-007710
X-049040Y-010250
X-049040Y-012790
X-049040Y-019220
X-049040Y-021760
X-049040Y-024300
T04
X-065580Y-021860
X-065580Y-010350
M30
