%FSLAX34Y34*%
%MOMM*%
%LNCOPPER_TOP*%
G71*
G01*
%ADD10R, 1.820X2.020*%
%ADD11R, 2.020X1.820*%
%ADD12R, 2.200X2.100*%
%ADD13R, 2.100X2.400*%
%ADD14R, 2.100X2.200*%
%ADD15C, 1.300*%
%ADD16R, 2.400X2.100*%
%ADD17C, 3.000*%
%ADD18R, 2.400X2.400*%
%ADD19C, 1.800*%
%ADD20C, 2.800*%
%ADD21C, 3.800*%
%ADD22C, 0.700*%
%ADD23C, 1.600*%
%ADD24R, 3.000X4.100*%
%ADD25R, 3.000X1.800*%
%ADD26C, 0.800*%
%ADD27C, 2.000*%
%ADD28C, 3.000*%
%ADD29R, 16.800X11.800*%
%ADD30C, 3.100*%
%ADD31C, 4.000*%
%ADD32C, 4.300*%
%ADD33C, 6.800*%
%ADD34C, 2.800*%
%ADD35C, 3.800*%
%ADD36C, 0.433*%
%ADD37C, 0.733*%
%ADD38C, 0.533*%
%ADD39C, 0.340*%
%ADD40C, 0.667*%
%ADD41C, 0.500*%
%ADD42C, 0.767*%
%ADD43R, 1.020X1.220*%
%ADD44R, 1.220X1.020*%
%ADD45R, 1.400X1.300*%
%ADD46R, 1.300X1.600*%
%ADD47R, 1.300X1.400*%
%ADD48R, 1.600X1.300*%
%ADD49C, 2.200*%
%ADD50R, 1.600X1.600*%
%ADD51C, 1.000*%
%ADD52C, 2.000*%
%ADD53C, 3.000*%
%ADD54R, 2.200X3.300*%
%ADD55R, 2.200X1.000*%
%ADD56C, 0.000*%
%ADD57C, 2.200*%
%ADD58R, 16.000X11.000*%
%ADD59C, 2.300*%
%ADD60C, 3.200*%
%ADD61C, 3.500*%
%ADD62C, 0.600*%
%ADD63C, 1.200*%
%ADD64C, 0.100*%
%ADD65C, 6.000*%
%LPD*%
G36*
X0Y0D02*
X850000Y0D01*
X850000Y-270000D01*
X0Y-270000D01*
X0Y0D01*
G37*
%LPC*%
X106362Y-142875D02*
G54D10*
D03*
X116563Y-165775D02*
G54D10*
D03*
X96163Y-165775D02*
G54D10*
D03*
X129382Y-114300D02*
G54D11*
D03*
X106481Y-124500D02*
G54D11*
D03*
X106481Y-104100D02*
G54D11*
D03*
X80962Y-117475D02*
G54D12*
D03*
X80962Y-136475D02*
G54D12*
D03*
X115888Y-192088D02*
G54D13*
D03*
X96888Y-192088D02*
G54D13*
D03*
X115888Y-217488D02*
G54D14*
D03*
X96888Y-217488D02*
G54D14*
D03*
X115888Y-242888D02*
G54D14*
D03*
X96888Y-242888D02*
G54D14*
D03*
G54D15*
X61119Y-113506D02*
X80962Y-117475D01*
G54D15*
X80962Y-117475D02*
X94456Y-103981D01*
X106362Y-103981D01*
G54D15*
X150019Y-193675D02*
X177800Y-165894D01*
X177800Y-96044D01*
X144462Y-75624D01*
G54D15*
X96163Y-165775D02*
X71017Y-160114D01*
G54D15*
X116563Y-165775D02*
X116563Y-242212D01*
X115888Y-242888D01*
G54D15*
X106481Y-124500D02*
X106362Y-142875D01*
X71017Y-179114D02*
G54D16*
D03*
X71017Y-160114D02*
G54D16*
D03*
X70910Y-221400D02*
G54D16*
D03*
X70910Y-202400D02*
G54D16*
D03*
G54D15*
X71017Y-179114D02*
X70910Y-202400D01*
G54D15*
X71017Y-160114D02*
X80962Y-136475D01*
G54D15*
X129382Y-114300D02*
X140494Y-114300D01*
X150019Y-123825D01*
X150019Y-142875D01*
X61119Y-138112D02*
G54D13*
D03*
X42119Y-138112D02*
G54D13*
D03*
X150027Y-212743D02*
G54D16*
D03*
X150027Y-231743D02*
G54D16*
D03*
G36*
X34994Y-210322D02*
X34994Y-240322D01*
X4994Y-240322D01*
X4994Y-210322D01*
X34994Y-210322D01*
G37*
X45394Y-225322D02*
G54D17*
D03*
G54D15*
X45394Y-225322D02*
X70644Y-221456D01*
X169069Y-19844D02*
G54D18*
D03*
X169069Y-47844D02*
G54D18*
D03*
G54D19*
X88900Y-29369D02*
X110331Y-16669D01*
X198438Y-16669D01*
X307826Y-215750D02*
G54D11*
D03*
X284926Y-225950D02*
G54D11*
D03*
X284926Y-205550D02*
G54D11*
D03*
X220160Y-203169D02*
G54D13*
D03*
X239160Y-203169D02*
G54D13*
D03*
X220954Y-137288D02*
G54D13*
D03*
X239954Y-137288D02*
G54D13*
D03*
G54D15*
X239160Y-203169D02*
X260350Y-204738D01*
X284926Y-205550D01*
X284956Y-205581D01*
X260350Y-185738D02*
G54D12*
D03*
X260350Y-204738D02*
G54D12*
D03*
X309182Y-146844D02*
G54D11*
D03*
X286282Y-157043D02*
G54D11*
D03*
X286282Y-136644D02*
G54D11*
D03*
G36*
X215959Y-160006D02*
X236959Y-160006D01*
X236959Y-182006D01*
X215959Y-182006D01*
X215959Y-160006D01*
G37*
G36*
X234959Y-160006D02*
X255959Y-160006D01*
X255959Y-182006D01*
X234959Y-182006D01*
X234959Y-160006D01*
G37*
X260350Y-137319D02*
G54D12*
D03*
X260350Y-156319D02*
G54D12*
D03*
X272282Y-179398D02*
G54D13*
D03*
X291282Y-179398D02*
G54D13*
D03*
G54D15*
X225450Y-173806D02*
X216694Y-168275D01*
X181769Y-168275D01*
X177800Y-165894D01*
X259968Y-171687D02*
G54D20*
D03*
X205167Y-226488D02*
G54D20*
D03*
G54D15*
X239954Y-137288D02*
X260319Y-137288D01*
X260350Y-137319D01*
G54D15*
X286014Y-136674D02*
X287338Y-137319D01*
X260350Y-137319D01*
X401121Y-146976D02*
G54D21*
D03*
X350321Y-197776D02*
G54D21*
D03*
X401121Y-197776D02*
G54D21*
D03*
X350321Y-146976D02*
G54D21*
D03*
G36*
X412617Y-210072D02*
X339592Y-210072D01*
X339592Y-133872D01*
X412617Y-133872D01*
X412617Y-210072D01*
G37*
G54D22*
X412617Y-210072D02*
X339592Y-210072D01*
X339592Y-133872D01*
X412617Y-133872D01*
X412617Y-210072D01*
G54D23*
X309331Y-146993D02*
X347662Y-146844D01*
G54D23*
X307975Y-215900D02*
X315912Y-223838D01*
X375444Y-223838D01*
X401638Y-197644D01*
G54D19*
X350837Y-197644D02*
X401638Y-146844D01*
X336550Y-189706D02*
G54D13*
D03*
X317550Y-189706D02*
G54D13*
D03*
X31750Y-54769D02*
G54D24*
D03*
X88900Y-54769D02*
G54D25*
D03*
X88900Y-29369D02*
G54D25*
D03*
X88900Y-80169D02*
G54D25*
D03*
G36*
X99616Y-59531D02*
X74216Y-59531D01*
X74216Y-97234D01*
X8731Y-97234D01*
X8731Y-12303D01*
X74216Y-12303D01*
X74216Y-50006D01*
X99616Y-50006D01*
X99616Y-59531D01*
G37*
G54D26*
X99616Y-59531D02*
X74216Y-59531D01*
X74216Y-97234D01*
X8731Y-97234D01*
X8731Y-12303D01*
X74216Y-12303D01*
X74216Y-50006D01*
X99616Y-50006D01*
X99616Y-59531D01*
X47158Y-184642D02*
G54D14*
D03*
X28158Y-184642D02*
G54D14*
D03*
G54D15*
X70910Y-202400D02*
X46831Y-185763D01*
X61119Y-113506D02*
G54D14*
D03*
X42119Y-113506D02*
G54D14*
D03*
G54D15*
X61119Y-138112D02*
X61119Y-113506D01*
G54D15*
X42069Y-113506D02*
X42069Y-92869D01*
X144462Y-75624D02*
G54D18*
D03*
X144462Y-47625D02*
G54D18*
D03*
G54D19*
X88900Y-54769D02*
X107156Y-54769D01*
X144462Y-75624D01*
G54D19*
X346075Y-115094D02*
X361156Y-115094D01*
X401638Y-146844D01*
X323057Y-165894D02*
G54D27*
D03*
X114301Y-81756D02*
G54D27*
D03*
X24607Y-159544D02*
G54D27*
D03*
G54D28*
X379826Y-91445D02*
X401826Y-91445D01*
G54D28*
X379826Y-40645D02*
X401826Y-40645D01*
G54D28*
X379826Y-66045D02*
X401826Y-66045D01*
G36*
X340026Y-116845D02*
X187626Y-116845D01*
X187626Y-15245D01*
X340026Y-15245D01*
X340026Y-116845D01*
G37*
G54D15*
X340026Y-116845D02*
X187626Y-116845D01*
X187626Y-15245D01*
X340026Y-15245D01*
X340026Y-116845D01*
G54D28*
X390826Y-66045D02*
X340026Y-66045D01*
G36*
X340026Y-15245D02*
X187626Y-15245D01*
X187626Y-116845D01*
X340026Y-116845D01*
X340026Y-15245D01*
G37*
G54D15*
X340026Y-15245D02*
X187626Y-15245D01*
X187626Y-116845D01*
X340026Y-116845D01*
X340026Y-15245D01*
X264223Y-65251D02*
G54D29*
D03*
X120651Y-37306D02*
G54D27*
D03*
X16669Y-103981D02*
G54D18*
D03*
X16669Y-131981D02*
G54D18*
D03*
X150019Y-142875D02*
G54D21*
D03*
X200819Y-193675D02*
G54D21*
D03*
X200819Y-142875D02*
G54D21*
D03*
X150018Y-193675D02*
G54D21*
D03*
G36*
X213114Y-131379D02*
X213114Y-204404D01*
X136914Y-204404D01*
X136914Y-131379D01*
X213114Y-131379D01*
G37*
G54D22*
X213114Y-131379D02*
X213114Y-204404D01*
X136914Y-204404D01*
X136914Y-131379D01*
X213114Y-131379D01*
G54D19*
X390525Y-40481D02*
X414338Y-16669D01*
X639762Y-16669D01*
G54D30*
X501941Y-192223D02*
X478941Y-192223D01*
G54D30*
X501941Y-243023D02*
X478941Y-243023D01*
G54D30*
X501941Y-217623D02*
X478941Y-217623D01*
X655441Y-218423D02*
G54D31*
D03*
X655441Y-217423D02*
G54D32*
D03*
X655841Y-218623D02*
G54D33*
D03*
X655841Y-103530D02*
G54D33*
D03*
G54D30*
X501941Y-77130D02*
X478941Y-77130D01*
G54D30*
X501941Y-127930D02*
X478941Y-127930D01*
G54D30*
X501941Y-102530D02*
X478941Y-102530D01*
X655441Y-103330D02*
G54D31*
D03*
X655441Y-102330D02*
G54D32*
D03*
X432885Y-188882D02*
G54D13*
D03*
X451885Y-188882D02*
G54D13*
D03*
G54D23*
X401121Y-197776D02*
X432885Y-188882D01*
X462881Y-77130D02*
G54D13*
D03*
X443881Y-77130D02*
G54D13*
D03*
G54D15*
X487266Y-77130D02*
X462881Y-77130D01*
X447700Y-161900D02*
G54D12*
D03*
X447700Y-142900D02*
G54D12*
D03*
X431799Y-142081D02*
G54D20*
D03*
X431799Y-219581D02*
G54D20*
D03*
X471514Y-157967D02*
G54D13*
D03*
X490514Y-157967D02*
G54D13*
D03*
X447675Y-127794D02*
G54D12*
D03*
X447675Y-108794D02*
G54D12*
D03*
G54D15*
X476270Y-188882D02*
X451885Y-188882D01*
X425505Y-125935D02*
G54D14*
D03*
X406505Y-125935D02*
G54D14*
D03*
G54D15*
X425505Y-125935D02*
X445565Y-129904D01*
X447675Y-127794D01*
X447675Y-142875D01*
X447700Y-142900D01*
G54D15*
X451885Y-188882D02*
X451885Y-166085D01*
X447700Y-161900D01*
G54D15*
X462881Y-77130D02*
X447675Y-108794D01*
G54D15*
X471514Y-157967D02*
X471514Y-154014D01*
X447700Y-142900D01*
X431799Y-142081D01*
X593725Y-133350D02*
G54D21*
D03*
X542925Y-184150D02*
G54D21*
D03*
X593725Y-184150D02*
G54D21*
D03*
X542925Y-133350D02*
G54D21*
D03*
G36*
X605221Y-196446D02*
X532196Y-196446D01*
X532196Y-120246D01*
X605221Y-120246D01*
X605221Y-196446D01*
G37*
G54D22*
X605221Y-196446D02*
X532196Y-196446D01*
X532196Y-120246D01*
X605221Y-120246D01*
X605221Y-196446D01*
X431007Y-83344D02*
G54D34*
D03*
G54D19*
X490441Y-102530D02*
X563049Y-102530D01*
X593725Y-133350D01*
G54D19*
X490441Y-217623D02*
X513830Y-217623D01*
X542925Y-184150D01*
X513557Y-18256D02*
G54D34*
D03*
X567531Y-58738D02*
G54D20*
D03*
X577731Y-58738D02*
G54D20*
D03*
X592631Y-58738D02*
G54D20*
D03*
X542631Y-58738D02*
G54D20*
D03*
X757898Y-185221D02*
G54D21*
D03*
X707098Y-134421D02*
G54D21*
D03*
X707098Y-185221D02*
G54D21*
D03*
X757899Y-134421D02*
G54D21*
D03*
G36*
X694803Y-196717D02*
X694803Y-123692D01*
X771003Y-123692D01*
X771003Y-196717D01*
X694803Y-196717D01*
G37*
G54D22*
X694803Y-196717D02*
X694803Y-123692D01*
X771003Y-123692D01*
X771003Y-196717D01*
X694803Y-196717D01*
G54D19*
X593725Y-133350D02*
X621506Y-133350D01*
X629444Y-141288D01*
X700232Y-141288D01*
X707098Y-134421D01*
G54D19*
X542925Y-184150D02*
X570706Y-159544D01*
X612775Y-159544D01*
X629444Y-176212D01*
X700232Y-176212D01*
X707098Y-183079D01*
X731838Y-39687D02*
G54D35*
D03*
G54D19*
X639762Y-16669D02*
X708819Y-16669D01*
X731838Y-39687D01*
X758031Y-203993D02*
G54D18*
D03*
X758031Y-231993D02*
G54D18*
D03*
X799019Y-116393D02*
G54D18*
D03*
X771019Y-116393D02*
G54D18*
D03*
X812006Y-134937D02*
G54D35*
D03*
%LPD*%
G54D36*
G36*
X99054Y-192088D02*
X99054Y-204588D01*
X94721Y-204588D01*
X94721Y-192088D01*
X99054Y-192088D01*
G37*
G36*
X96888Y-194254D02*
X85888Y-194254D01*
X85888Y-189921D01*
X96888Y-189921D01*
X96888Y-194254D01*
G37*
G36*
X94721Y-192088D02*
X94721Y-179588D01*
X99054Y-179588D01*
X99054Y-192088D01*
X94721Y-192088D01*
G37*
G54D36*
G36*
X99054Y-217488D02*
X99054Y-228988D01*
X94721Y-228988D01*
X94721Y-217488D01*
X99054Y-217488D01*
G37*
G36*
X96888Y-219654D02*
X85888Y-219654D01*
X85888Y-215321D01*
X96888Y-215321D01*
X96888Y-219654D01*
G37*
G36*
X94721Y-217488D02*
X94721Y-205988D01*
X99054Y-205988D01*
X99054Y-217488D01*
X94721Y-217488D01*
G37*
G54D36*
G36*
X99054Y-242888D02*
X99054Y-254388D01*
X94721Y-254388D01*
X94721Y-242888D01*
X99054Y-242888D01*
G37*
G36*
X96888Y-245054D02*
X85888Y-245054D01*
X85888Y-240721D01*
X96888Y-240721D01*
X96888Y-245054D01*
G37*
G36*
X94721Y-242888D02*
X94721Y-231388D01*
X99054Y-231388D01*
X99054Y-242888D01*
X94721Y-242888D01*
G37*
G54D36*
G36*
X44286Y-138112D02*
X44286Y-150612D01*
X39953Y-150612D01*
X39953Y-138112D01*
X44286Y-138112D01*
G37*
G36*
X42119Y-140279D02*
X31119Y-140279D01*
X31119Y-135946D01*
X42119Y-135946D01*
X42119Y-140279D01*
G37*
G36*
X39953Y-138112D02*
X39952Y-125612D01*
X44285Y-125612D01*
X44286Y-138112D01*
X39953Y-138112D01*
G37*
G54D36*
G36*
X150027Y-229577D02*
X162527Y-229577D01*
X162527Y-233910D01*
X150027Y-233910D01*
X150027Y-229577D01*
G37*
G36*
X152194Y-231743D02*
X152194Y-242743D01*
X147861Y-242743D01*
X147861Y-231743D01*
X152194Y-231743D01*
G37*
G36*
X150027Y-233910D02*
X137527Y-233910D01*
X137527Y-229577D01*
X150027Y-229577D01*
X150027Y-233910D01*
G37*
G54D37*
G36*
X23660Y-225322D02*
X23660Y-240822D01*
X16327Y-240822D01*
X16327Y-225322D01*
X23660Y-225322D01*
G37*
G36*
X19994Y-228989D02*
X4494Y-228989D01*
X4494Y-221655D01*
X19994Y-221655D01*
X19994Y-228989D01*
G37*
G36*
X16327Y-225322D02*
X16327Y-209822D01*
X23660Y-209822D01*
X23660Y-225322D01*
X16327Y-225322D01*
G37*
G54D38*
G36*
X169069Y-45177D02*
X181569Y-45177D01*
X181569Y-50510D01*
X169069Y-50510D01*
X169069Y-45177D01*
G37*
G36*
X171735Y-47844D02*
X171735Y-60344D01*
X166402Y-60344D01*
X166402Y-47844D01*
X171735Y-47844D01*
G37*
G36*
X169069Y-50510D02*
X156569Y-50510D01*
X156569Y-45177D01*
X169069Y-45177D01*
X169069Y-50510D01*
G37*
G36*
X166402Y-47844D02*
X166402Y-35344D01*
X171735Y-35344D01*
X171735Y-47844D01*
X166402Y-47844D01*
G37*
G54D39*
G36*
X284926Y-227650D02*
X274326Y-227650D01*
X274326Y-224250D01*
X284926Y-224250D01*
X284926Y-227650D01*
G37*
G36*
X283226Y-225950D02*
X283226Y-216350D01*
X286626Y-216350D01*
X286626Y-225950D01*
X283226Y-225950D01*
G37*
G36*
X284926Y-224250D02*
X295526Y-224250D01*
X295526Y-227650D01*
X284926Y-227650D01*
X284926Y-224250D01*
G37*
G36*
X286626Y-225950D02*
X286625Y-235550D01*
X283225Y-235550D01*
X283226Y-225950D01*
X286626Y-225950D01*
G37*
G54D39*
G36*
X286282Y-158743D02*
X275682Y-158743D01*
X275682Y-155343D01*
X286282Y-155343D01*
X286282Y-158743D01*
G37*
G36*
X284582Y-157043D02*
X284582Y-147443D01*
X287982Y-147443D01*
X287982Y-157043D01*
X284582Y-157043D01*
G37*
G36*
X286282Y-155343D02*
X296882Y-155344D01*
X296882Y-158744D01*
X286282Y-158743D01*
X286282Y-155343D01*
G37*
G36*
X287982Y-157043D02*
X287982Y-166643D01*
X284582Y-166643D01*
X284582Y-157043D01*
X287982Y-157043D01*
G37*
G54D36*
G36*
X289115Y-179398D02*
X289116Y-166898D01*
X293449Y-166898D01*
X293448Y-179398D01*
X289115Y-179398D01*
G37*
G36*
X291282Y-177232D02*
X302282Y-177232D01*
X302282Y-181565D01*
X291282Y-181565D01*
X291282Y-177232D01*
G37*
G36*
X293448Y-179398D02*
X293448Y-191898D01*
X289115Y-191898D01*
X289115Y-179398D01*
X293448Y-179398D01*
G37*
G54D40*
G36*
X207524Y-224131D02*
X217778Y-234384D01*
X213064Y-239098D01*
X202810Y-228845D01*
X207524Y-224131D01*
G37*
G36*
X207524Y-228845D02*
X197271Y-239098D01*
X192557Y-234384D01*
X202810Y-224131D01*
X207524Y-228845D01*
G37*
G36*
X202810Y-228845D02*
X192557Y-218592D01*
X197271Y-213878D01*
X207524Y-224131D01*
X202810Y-228845D01*
G37*
G36*
X202810Y-224131D02*
X213064Y-213878D01*
X217778Y-218592D01*
X207524Y-228845D01*
X202810Y-224131D01*
G37*
G54D36*
G36*
X319716Y-189706D02*
X319716Y-202206D01*
X315383Y-202206D01*
X315383Y-189706D01*
X319716Y-189706D01*
G37*
G36*
X317550Y-191873D02*
X306550Y-191873D01*
X306550Y-187540D01*
X317550Y-187540D01*
X317550Y-191873D01*
G37*
G36*
X315383Y-189706D02*
X315383Y-177206D01*
X319716Y-177206D01*
X319716Y-189706D01*
X315383Y-189706D01*
G37*
G54D41*
G36*
X86400Y-80169D02*
X86400Y-70669D01*
X91400Y-70669D01*
X91400Y-80169D01*
X86400Y-80169D01*
G37*
G36*
X88900Y-77669D02*
X104400Y-77669D01*
X104400Y-82669D01*
X88900Y-82669D01*
X88900Y-77669D01*
G37*
G36*
X91400Y-80169D02*
X91400Y-89669D01*
X86400Y-89669D01*
X86400Y-80169D01*
X91400Y-80169D01*
G37*
G54D36*
G36*
X30325Y-184642D02*
X30325Y-196142D01*
X25992Y-196142D01*
X25992Y-184642D01*
X30325Y-184642D01*
G37*
G36*
X28158Y-186809D02*
X17158Y-186809D01*
X17158Y-182476D01*
X28158Y-182476D01*
X28158Y-186809D01*
G37*
G36*
X25992Y-184642D02*
X25992Y-173142D01*
X30325Y-173142D01*
X30325Y-184642D01*
X25992Y-184642D01*
G37*
G54D38*
G36*
X144462Y-50291D02*
X131962Y-50291D01*
X131962Y-44958D01*
X144462Y-44958D01*
X144462Y-50291D01*
G37*
G36*
X141796Y-47625D02*
X141796Y-35125D01*
X147128Y-35125D01*
X147128Y-47625D01*
X141796Y-47625D01*
G37*
G36*
X144462Y-44958D02*
X156962Y-44958D01*
X156962Y-50291D01*
X144462Y-50291D01*
X144462Y-44958D01*
G37*
G36*
X147128Y-47625D02*
X147128Y-60125D01*
X141796Y-60125D01*
X141796Y-47625D01*
X147128Y-47625D01*
G37*
G54D38*
G36*
X16669Y-129314D02*
X29169Y-129314D01*
X29169Y-134647D01*
X16669Y-134647D01*
X16669Y-129314D01*
G37*
G36*
X19336Y-131981D02*
X19336Y-144481D01*
X14003Y-144481D01*
X14003Y-131981D01*
X19336Y-131981D01*
G37*
G36*
X16669Y-134647D02*
X4169Y-134647D01*
X4169Y-129314D01*
X16669Y-129314D01*
X16669Y-134647D01*
G37*
G36*
X14003Y-131981D02*
X14003Y-119481D01*
X19336Y-119481D01*
X19336Y-131981D01*
X14003Y-131981D01*
G37*
G54D42*
G36*
X490441Y-239190D02*
X517941Y-239190D01*
X517941Y-246857D01*
X490441Y-246857D01*
X490441Y-239190D01*
G37*
G36*
X494274Y-243023D02*
X494274Y-259023D01*
X486607Y-259023D01*
X486607Y-243023D01*
X494274Y-243023D01*
G37*
G36*
X490441Y-246857D02*
X462941Y-246857D01*
X462941Y-239190D01*
X490441Y-239190D01*
X490441Y-246857D01*
G37*
G54D42*
G36*
X490441Y-124096D02*
X517941Y-124096D01*
X517941Y-131763D01*
X490441Y-131763D01*
X490441Y-124096D01*
G37*
G36*
X494274Y-127930D02*
X494274Y-143930D01*
X486607Y-143930D01*
X486607Y-127930D01*
X494274Y-127930D01*
G37*
G36*
X490441Y-131763D02*
X462941Y-131763D01*
X462941Y-124096D01*
X490441Y-124096D01*
X490441Y-131763D01*
G37*
G54D40*
G36*
X431799Y-216248D02*
X446299Y-216248D01*
X446299Y-222915D01*
X431799Y-222915D01*
X431799Y-216248D01*
G37*
G36*
X435132Y-219581D02*
X435132Y-234081D01*
X428466Y-234081D01*
X428466Y-219581D01*
X435132Y-219581D01*
G37*
G36*
X431799Y-222915D02*
X417299Y-222915D01*
X417299Y-216248D01*
X431799Y-216248D01*
X431799Y-222915D01*
G37*
G36*
X428466Y-219581D02*
X428466Y-205081D01*
X435132Y-205081D01*
X435132Y-219581D01*
X428466Y-219581D01*
G37*
G54D36*
G36*
X488347Y-157967D02*
X488347Y-145467D01*
X492680Y-145467D01*
X492680Y-157967D01*
X488347Y-157967D01*
G37*
G36*
X490514Y-155801D02*
X501514Y-155801D01*
X501513Y-160134D01*
X490513Y-160134D01*
X490514Y-155801D01*
G37*
G36*
X492680Y-157967D02*
X492680Y-170467D01*
X488347Y-170467D01*
X488347Y-157967D01*
X492680Y-157967D01*
G37*
G54D40*
G36*
X564198Y-58738D02*
X564198Y-44238D01*
X570865Y-44238D01*
X570865Y-58738D01*
X564198Y-58738D01*
G37*
G36*
X567531Y-55404D02*
X582031Y-55404D01*
X582031Y-62071D01*
X567531Y-62071D01*
X567531Y-55404D01*
G37*
G36*
X570865Y-58738D02*
X570865Y-73238D01*
X564198Y-73238D01*
X564198Y-58738D01*
X570865Y-58738D01*
G37*
G54D40*
G36*
X574398Y-58738D02*
X574398Y-44238D01*
X581064Y-44238D01*
X581064Y-58738D01*
X574398Y-58738D01*
G37*
G36*
X577731Y-55404D02*
X592231Y-55404D01*
X592231Y-62071D01*
X577731Y-62071D01*
X577731Y-55404D01*
G37*
G36*
X581064Y-58738D02*
X581064Y-73238D01*
X574398Y-73238D01*
X574398Y-58738D01*
X581064Y-58738D01*
G37*
G36*
X577731Y-62071D02*
X563231Y-62071D01*
X563231Y-55404D01*
X577731Y-55404D01*
X577731Y-62071D01*
G37*
G54D40*
G36*
X589298Y-58738D02*
X589298Y-44238D01*
X595964Y-44238D01*
X595964Y-58738D01*
X589298Y-58738D01*
G37*
G36*
X592631Y-55404D02*
X607131Y-55404D01*
X607131Y-62071D01*
X592631Y-62071D01*
X592631Y-55404D01*
G37*
G36*
X595964Y-58738D02*
X595964Y-73238D01*
X589298Y-73238D01*
X589298Y-58738D01*
X595964Y-58738D01*
G37*
G36*
X592631Y-62071D02*
X578131Y-62071D01*
X578131Y-55404D01*
X592631Y-55404D01*
X592631Y-62071D01*
G37*
G54D38*
G36*
X758031Y-229327D02*
X770531Y-229327D01*
X770531Y-234660D01*
X758031Y-234660D01*
X758031Y-229327D01*
G37*
G36*
X760698Y-231993D02*
X760698Y-244493D01*
X755365Y-244493D01*
X755365Y-231993D01*
X760698Y-231993D01*
G37*
G36*
X758031Y-234660D02*
X745531Y-234660D01*
X745531Y-229327D01*
X758031Y-229327D01*
X758031Y-234660D01*
G37*
G36*
X755365Y-231993D02*
X755364Y-219493D01*
X760698Y-219493D01*
X760698Y-231993D01*
X755365Y-231993D01*
G37*
X106362Y-142875D02*
G54D43*
D03*
X116563Y-165775D02*
G54D43*
D03*
X96163Y-165775D02*
G54D43*
D03*
X129382Y-114300D02*
G54D44*
D03*
X106481Y-124500D02*
G54D44*
D03*
X106481Y-104100D02*
G54D44*
D03*
X80962Y-117475D02*
G54D45*
D03*
X80962Y-136475D02*
G54D45*
D03*
X115888Y-192088D02*
G54D46*
D03*
X96888Y-192088D02*
G54D46*
D03*
X115888Y-217488D02*
G54D47*
D03*
X96888Y-217488D02*
G54D47*
D03*
X115888Y-242888D02*
G54D47*
D03*
X96888Y-242888D02*
G54D47*
D03*
G54D41*
X61119Y-113506D02*
X80962Y-117475D01*
G54D41*
X80962Y-117475D02*
X94456Y-103981D01*
X106362Y-103981D01*
G54D41*
X150019Y-193675D02*
X177800Y-165894D01*
X177800Y-96044D01*
X144462Y-75624D01*
G54D41*
X96163Y-165775D02*
X71017Y-160114D01*
G54D41*
X116563Y-165775D02*
X116563Y-242212D01*
X115888Y-242888D01*
G54D41*
X106481Y-124500D02*
X106362Y-142875D01*
X71017Y-179114D02*
G54D48*
D03*
X71017Y-160114D02*
G54D48*
D03*
X70910Y-221400D02*
G54D48*
D03*
X70910Y-202400D02*
G54D48*
D03*
G54D41*
X71017Y-179114D02*
X70910Y-202400D01*
G54D41*
X71017Y-160114D02*
X80962Y-136475D01*
G54D41*
X129382Y-114300D02*
X140494Y-114300D01*
X150019Y-123825D01*
X150019Y-142875D01*
X61119Y-138112D02*
G54D46*
D03*
X42119Y-138112D02*
G54D46*
D03*
X150027Y-212743D02*
G54D48*
D03*
X150027Y-231743D02*
G54D48*
D03*
G36*
X30994Y-214322D02*
X30994Y-236322D01*
X8994Y-236322D01*
X8994Y-214322D01*
X30994Y-214322D01*
G37*
X45394Y-225322D02*
G54D49*
D03*
G54D41*
X45394Y-225322D02*
X70644Y-221456D01*
X169069Y-19844D02*
G54D50*
D03*
X169069Y-47844D02*
G54D50*
D03*
G54D51*
X88900Y-29369D02*
X110331Y-16669D01*
X198438Y-16669D01*
X307826Y-215750D02*
G54D44*
D03*
X284926Y-225950D02*
G54D44*
D03*
X284926Y-205550D02*
G54D44*
D03*
X220160Y-203169D02*
G54D46*
D03*
X239160Y-203169D02*
G54D46*
D03*
X220954Y-137288D02*
G54D46*
D03*
X239954Y-137288D02*
G54D46*
D03*
G54D41*
X239160Y-203169D02*
X260350Y-204738D01*
X284926Y-205550D01*
X284956Y-205581D01*
X260350Y-185738D02*
G54D45*
D03*
X260350Y-204738D02*
G54D45*
D03*
X309182Y-146844D02*
G54D44*
D03*
X286282Y-157043D02*
G54D44*
D03*
X286282Y-136644D02*
G54D44*
D03*
G36*
X219959Y-164006D02*
X232959Y-164006D01*
X232959Y-178006D01*
X219959Y-178006D01*
X219959Y-164006D01*
G37*
G36*
X238959Y-164006D02*
X251959Y-164006D01*
X251959Y-178006D01*
X238959Y-178006D01*
X238959Y-164006D01*
G37*
X260350Y-137319D02*
G54D45*
D03*
X260350Y-156319D02*
G54D45*
D03*
X272282Y-179398D02*
G54D46*
D03*
X291282Y-179398D02*
G54D46*
D03*
G54D41*
X225450Y-173806D02*
X216694Y-168275D01*
X181769Y-168275D01*
X177800Y-165894D01*
X259968Y-171687D02*
G54D52*
D03*
X205167Y-226488D02*
G54D52*
D03*
G54D41*
X239954Y-137288D02*
X260319Y-137288D01*
X260350Y-137319D01*
G54D41*
X286014Y-136674D02*
X287338Y-137319D01*
X260350Y-137319D01*
X401121Y-146976D02*
G54D53*
D03*
X350321Y-197776D02*
G54D53*
D03*
X401121Y-197776D02*
G54D53*
D03*
X350321Y-146976D02*
G54D53*
D03*
G54D26*
X309331Y-146993D02*
X347662Y-146844D01*
G54D26*
X307975Y-215900D02*
X315912Y-223838D01*
X375444Y-223838D01*
X401638Y-197644D01*
G54D51*
X350837Y-197644D02*
X401638Y-146844D01*
X336550Y-189706D02*
G54D46*
D03*
X317550Y-189706D02*
G54D46*
D03*
X31750Y-54769D02*
G54D54*
D03*
X88900Y-54769D02*
G54D55*
D03*
X88900Y-29369D02*
G54D55*
D03*
X88900Y-80169D02*
G54D55*
D03*
G36*
X99616Y-59531D02*
X74216Y-59531D01*
X74216Y-97234D01*
X8731Y-97234D01*
X8731Y-12303D01*
X74216Y-12303D01*
X74216Y-50006D01*
X99616Y-50006D01*
X99616Y-59531D01*
G37*
G54D56*
X99616Y-59531D02*
X74216Y-59531D01*
X74216Y-97234D01*
X8731Y-97234D01*
X8731Y-12303D01*
X74216Y-12303D01*
X74216Y-50006D01*
X99616Y-50006D01*
X99616Y-59531D01*
X47158Y-184642D02*
G54D47*
D03*
X28158Y-184642D02*
G54D47*
D03*
G54D41*
X70910Y-202400D02*
X46831Y-185763D01*
X61119Y-113506D02*
G54D47*
D03*
X42119Y-113506D02*
G54D47*
D03*
G54D41*
X61119Y-138112D02*
X61119Y-113506D01*
G54D41*
X42069Y-113506D02*
X42069Y-92869D01*
X144462Y-75624D02*
G54D50*
D03*
X144462Y-47625D02*
G54D50*
D03*
G54D51*
X88900Y-54769D02*
X107156Y-54769D01*
X144462Y-75624D01*
G54D51*
X346075Y-115094D02*
X361156Y-115094D01*
X401638Y-146844D01*
X323057Y-165894D02*
G54D27*
D03*
X114301Y-81756D02*
G54D27*
D03*
X24607Y-159544D02*
G54D27*
D03*
G54D57*
X379826Y-91445D02*
X401826Y-91445D01*
G54D57*
X379826Y-40645D02*
X401826Y-40645D01*
G54D57*
X379826Y-66045D02*
X401826Y-66045D01*
G36*
X340026Y-116845D02*
X187626Y-116845D01*
X187626Y-15245D01*
X340026Y-15245D01*
X340026Y-116845D01*
G37*
G54D41*
X340026Y-116845D02*
X187626Y-116845D01*
X187626Y-15245D01*
X340026Y-15245D01*
X340026Y-116845D01*
G54D57*
X390826Y-66045D02*
X340026Y-66045D01*
X264223Y-65251D02*
G54D58*
D03*
X120651Y-37306D02*
G54D27*
D03*
X16669Y-103981D02*
G54D50*
D03*
X16669Y-131981D02*
G54D50*
D03*
X150019Y-142875D02*
G54D53*
D03*
X200819Y-193675D02*
G54D53*
D03*
X200819Y-142875D02*
G54D53*
D03*
X150018Y-193675D02*
G54D53*
D03*
G54D51*
X390525Y-40481D02*
X414338Y-16669D01*
X639762Y-16669D01*
G54D59*
X501941Y-192223D02*
X478941Y-192223D01*
G54D59*
X501941Y-243023D02*
X478941Y-243023D01*
G54D59*
X501941Y-217623D02*
X478941Y-217623D01*
X655441Y-218423D02*
G54D60*
D03*
X655441Y-217423D02*
G54D61*
D03*
G54D59*
X501941Y-77130D02*
X478941Y-77130D01*
G54D59*
X501941Y-127930D02*
X478941Y-127930D01*
G54D59*
X501941Y-102530D02*
X478941Y-102530D01*
X655441Y-103330D02*
G54D60*
D03*
X655441Y-102330D02*
G54D61*
D03*
X432885Y-188882D02*
G54D46*
D03*
X451885Y-188882D02*
G54D46*
D03*
G54D26*
X401121Y-197776D02*
X432885Y-188882D01*
X462881Y-77130D02*
G54D46*
D03*
X443881Y-77130D02*
G54D46*
D03*
G54D41*
X487266Y-77130D02*
X462881Y-77130D01*
X447700Y-161900D02*
G54D45*
D03*
X447700Y-142900D02*
G54D45*
D03*
X431799Y-142081D02*
G54D52*
D03*
X431799Y-219581D02*
G54D52*
D03*
X471514Y-157967D02*
G54D46*
D03*
X490514Y-157967D02*
G54D46*
D03*
X447675Y-127794D02*
G54D45*
D03*
X447675Y-108794D02*
G54D45*
D03*
G54D41*
X476270Y-188882D02*
X451885Y-188882D01*
X425505Y-125935D02*
G54D47*
D03*
X406505Y-125935D02*
G54D47*
D03*
G54D41*
X425505Y-125935D02*
X445565Y-129904D01*
X447675Y-127794D01*
X447675Y-142875D01*
X447700Y-142900D01*
G54D41*
X451885Y-188882D02*
X451885Y-166085D01*
X447700Y-161900D01*
G54D41*
X462881Y-77130D02*
X447675Y-108794D01*
G54D41*
X471514Y-157967D02*
X471514Y-154014D01*
X447700Y-142900D01*
X431799Y-142081D01*
X593725Y-133350D02*
G54D53*
D03*
X542925Y-184150D02*
G54D53*
D03*
X593725Y-184150D02*
G54D53*
D03*
X542925Y-133350D02*
G54D53*
D03*
X431007Y-83344D02*
G54D27*
D03*
G54D51*
X490441Y-102530D02*
X563049Y-102530D01*
X593725Y-133350D01*
G54D51*
X490441Y-217623D02*
X513830Y-217623D01*
X542925Y-184150D01*
X513557Y-18256D02*
G54D27*
D03*
X567531Y-58738D02*
G54D52*
D03*
X577731Y-58738D02*
G54D52*
D03*
X592631Y-58738D02*
G54D52*
D03*
X542631Y-58738D02*
G54D52*
D03*
X757898Y-185221D02*
G54D53*
D03*
X707098Y-134421D02*
G54D53*
D03*
X707098Y-185221D02*
G54D53*
D03*
X757899Y-134421D02*
G54D53*
D03*
G54D51*
X593725Y-133350D02*
X621506Y-133350D01*
X629444Y-141288D01*
X700232Y-141288D01*
X707098Y-134421D01*
G54D51*
X542925Y-184150D02*
X570706Y-159544D01*
X612775Y-159544D01*
X629444Y-176212D01*
X700232Y-176212D01*
X707098Y-183079D01*
X731838Y-39687D02*
G54D17*
D03*
G54D51*
X639762Y-16669D02*
X708819Y-16669D01*
X731838Y-39687D01*
X758031Y-203993D02*
G54D50*
D03*
X758031Y-231993D02*
G54D50*
D03*
X799019Y-116393D02*
G54D50*
D03*
X771019Y-116393D02*
G54D50*
D03*
X812006Y-134937D02*
G54D17*
D03*
%LNAUGENFREISTANZEN*%
%LPC*%
X19994Y-225322D02*
G54D26*
D03*
X45394Y-225322D02*
G54D26*
D03*
X259968Y-171687D02*
G54D26*
D03*
X205167Y-226488D02*
G54D26*
D03*
X401121Y-146976D02*
G54D62*
D03*
X350321Y-197776D02*
G54D62*
D03*
X401121Y-197776D02*
G54D62*
D03*
X350321Y-146976D02*
G54D62*
D03*
X323057Y-165894D02*
G54D62*
D03*
X114301Y-81756D02*
G54D62*
D03*
X24607Y-159544D02*
G54D62*
D03*
X390826Y-91445D02*
G54D51*
D03*
X390826Y-40645D02*
G54D51*
D03*
X390826Y-66045D02*
G54D51*
D03*
X120651Y-37306D02*
G54D62*
D03*
X150019Y-142875D02*
G54D62*
D03*
X200819Y-193675D02*
G54D62*
D03*
X200819Y-142875D02*
G54D62*
D03*
X150018Y-193675D02*
G54D62*
D03*
X490441Y-192223D02*
G54D63*
D03*
X490441Y-243023D02*
G54D63*
D03*
X490441Y-217623D02*
G54D63*
D03*
X655441Y-218423D02*
G54D64*
D03*
X655441Y-217423D02*
G54D64*
D03*
X655841Y-218623D02*
G54D65*
D03*
X655841Y-103530D02*
G54D65*
D03*
X490441Y-77130D02*
G54D63*
D03*
X490441Y-127930D02*
G54D63*
D03*
X490441Y-102530D02*
G54D63*
D03*
X655441Y-103330D02*
G54D64*
D03*
X655441Y-102330D02*
G54D64*
D03*
X431799Y-142081D02*
G54D26*
D03*
X431799Y-219581D02*
G54D26*
D03*
X593725Y-133350D02*
G54D62*
D03*
X542925Y-184150D02*
G54D62*
D03*
X593725Y-184150D02*
G54D62*
D03*
X542925Y-133350D02*
G54D62*
D03*
X431007Y-83344D02*
G54D62*
D03*
X513557Y-18256D02*
G54D62*
D03*
X567531Y-58738D02*
G54D26*
D03*
X577731Y-58738D02*
G54D26*
D03*
X592631Y-58738D02*
G54D26*
D03*
X542631Y-58738D02*
G54D26*
D03*
X757898Y-185221D02*
G54D62*
D03*
X707098Y-134421D02*
G54D62*
D03*
X707098Y-185221D02*
G54D62*
D03*
X757899Y-134421D02*
G54D62*
D03*
X731838Y-39687D02*
G54D26*
D03*
X812006Y-134937D02*
G54D26*
D03*
M02*
