%FSLAX34Y34*%
%MOMM*%
%LNCOPPER_BOTTOM*%
G71*
G01*
%ADD10C, 2.600*%
%ADD11C, 2.800*%
%ADD12C, 2.400*%
%ADD13R, 1.000X1.500*%
%ADD14C, 1.000*%
%ADD15C, 0.900*%
%ADD16R, 1.800X1.700*%
%ADD17C, 1.900*%
%ADD18C, 0.500*%
%ADD19R, 1.700X1.800*%
%ADD20C, 2.800*%
%ADD21C, 0.500*%
%ADD22R, 2.400X2.800*%
%ADD23C, 1.300*%
%ADD24R, 1.700X2.000*%
%ADD25R, 2.800X2.400*%
%ADD26R, 2.000X1.700*%
%ADD27C, 2.200*%
%ADD28C, 2.100*%
%ADD29C, 2.100*%
%ADD30C, 1.100*%
%ADD31C, 1.488*%
%ADD32C, 0.600*%
%ADD33C, 0.433*%
%ADD34C, 0.667*%
%ADD35C, 0.533*%
%ADD36C, 0.467*%
%ADD37C, 1.500*%
%ADD38C, 0.795*%
%ADD39C, 1.800*%
%ADD40C, 2.000*%
%ADD41R, 0.600X1.100*%
%ADD42R, 1.400X1.300*%
%ADD43C, 1.500*%
%ADD44R, 1.300X1.400*%
%ADD45C, 2.000*%
%ADD46R, 1.600X2.000*%
%ADD47R, 1.300X1.600*%
%ADD48R, 2.000X1.600*%
%ADD49R, 1.600X1.300*%
%ADD50C, 1.400*%
%ADD51C, 0.800*%
%LPD*%
G36*
X0Y0D02*
X-600000Y0D01*
X-600000Y-400000D01*
X0Y-400000D01*
X0Y0D01*
G37*
%LPC*%
X-350479Y-48409D02*
G54D10*
D03*
X-372304Y-95234D02*
G54D10*
D03*
X-350479Y-95234D02*
G54D10*
D03*
X-394129Y-95234D02*
G54D10*
D03*
X-394129Y-48409D02*
G54D10*
D03*
X-261579Y-48409D02*
G54D10*
D03*
X-283404Y-95234D02*
G54D10*
D03*
X-261579Y-95234D02*
G54D10*
D03*
X-305229Y-95234D02*
G54D10*
D03*
X-305229Y-48409D02*
G54D10*
D03*
X-172679Y-48409D02*
G54D10*
D03*
X-194504Y-95234D02*
G54D10*
D03*
X-172679Y-95234D02*
G54D10*
D03*
X-216329Y-95234D02*
G54D10*
D03*
X-216329Y-48409D02*
G54D10*
D03*
G54D11*
X-216329Y-48409D02*
X-261579Y-48409D01*
G54D11*
X-305229Y-48409D02*
X-350479Y-48409D01*
X-439379Y-48409D02*
G54D12*
D03*
X-439379Y-95234D02*
G54D12*
D03*
X-483029Y-95234D02*
G54D12*
D03*
X-483029Y-48409D02*
G54D12*
D03*
G54D11*
X-394129Y-48409D02*
X-439379Y-48409D01*
X-500889Y-153184D02*
G54D13*
D03*
X-500889Y-126184D02*
G54D13*
D03*
X-491889Y-153184D02*
G54D13*
D03*
X-491889Y-126184D02*
G54D13*
D03*
X-482889Y-153184D02*
G54D13*
D03*
X-482889Y-126184D02*
G54D13*
D03*
X-506842Y-153184D02*
G54D13*
D03*
X-457629Y-153184D02*
G54D13*
D03*
X-457629Y-126184D02*
G54D13*
D03*
X-448629Y-153184D02*
G54D13*
D03*
X-448629Y-126184D02*
G54D13*
D03*
X-439629Y-153184D02*
G54D13*
D03*
X-439629Y-126184D02*
G54D13*
D03*
X-463582Y-153184D02*
G54D13*
D03*
G54D14*
X-483029Y-95240D02*
X-483084Y-126286D01*
G54D14*
X-439373Y-95240D02*
X-439428Y-126286D01*
G54D15*
X-457629Y-125006D02*
X-457629Y-132150D01*
X-462392Y-136912D01*
X-539386Y-137309D01*
G54D15*
X-500889Y-126184D02*
X-500889Y-136515D01*
X-461599Y-96381D02*
G54D16*
D03*
X-461598Y-77381D02*
G54D16*
D03*
X-438549Y-235330D02*
G54D12*
D03*
X-460374Y-188506D02*
G54D12*
D03*
X-438549Y-188506D02*
G54D12*
D03*
X-482199Y-188506D02*
G54D12*
D03*
X-482199Y-235330D02*
G54D12*
D03*
G54D14*
X-463582Y-153184D02*
X-482889Y-153184D01*
G54D15*
X-439373Y-153581D02*
X-439373Y-188506D01*
X-438945Y-188456D01*
X-505254Y-160328D02*
G54D17*
D03*
G54D15*
X-463582Y-153184D02*
X-482889Y-188371D01*
X-483023Y-188506D01*
X-448501Y-166677D02*
G54D18*
D03*
X-461201Y-108337D02*
G54D17*
D03*
X-489776Y-165090D02*
G54D18*
D03*
X-512001Y-108734D02*
G54D17*
D03*
G54D14*
X-491889Y-126184D02*
X-491889Y-116940D01*
X-512001Y-108734D01*
G54D14*
X-448629Y-126184D02*
X-448629Y-116146D01*
X-461201Y-108337D01*
X-511605Y-97572D02*
G54D16*
D03*
X-511605Y-78572D02*
G54D16*
D03*
X-511207Y-61902D02*
G54D18*
D03*
X-461598Y-61902D02*
G54D18*
D03*
X-461203Y-201603D02*
G54D16*
D03*
X-461203Y-220604D02*
G54D16*
D03*
X-437761Y-211102D02*
G54D19*
D03*
X-418760Y-211102D02*
G54D19*
D03*
X-542070Y-138346D02*
G54D16*
D03*
X-542070Y-157346D02*
G54D16*
D03*
G36*
X-553841Y-196373D02*
X-553841Y-168373D01*
X-581841Y-168373D01*
X-581841Y-196373D01*
X-553841Y-196373D01*
G37*
X-542442Y-182373D02*
G54D20*
D03*
G54D21*
X-461198Y-188506D02*
X-461203Y-201603D01*
G54D21*
X-461203Y-201603D02*
X-447259Y-201603D01*
X-437761Y-211102D01*
G54D15*
X-542070Y-157346D02*
X-542380Y-182435D01*
X-542442Y-182373D01*
G36*
X-245556Y-204027D02*
X-273556Y-204027D01*
X-273556Y-232027D01*
X-245556Y-232027D01*
X-245556Y-204027D01*
G37*
X-259556Y-192628D02*
G54D20*
D03*
X-381007Y-48384D02*
G54D19*
D03*
X-362007Y-48384D02*
G54D19*
D03*
X-292504Y-48384D02*
G54D19*
D03*
X-273504Y-48384D02*
G54D19*
D03*
X-203207Y-47987D02*
G54D19*
D03*
X-184207Y-47987D02*
G54D19*
D03*
G36*
X-72122Y-59565D02*
X-100122Y-59565D01*
X-100122Y-87565D01*
X-72122Y-87565D01*
X-72122Y-59565D01*
G37*
X-86122Y-48165D02*
G54D20*
D03*
X-132564Y-48384D02*
G54D19*
D03*
X-113564Y-48384D02*
G54D19*
D03*
G54D11*
X-138120Y-48384D02*
X-172679Y-48409D01*
G54D11*
X-86129Y-47987D02*
X-109973Y-48409D01*
X-521021Y-291010D02*
G54D22*
D03*
X-549021Y-291010D02*
G54D22*
D03*
X-473926Y-292065D02*
G54D19*
D03*
X-492926Y-292065D02*
G54D19*
D03*
G54D23*
X-482199Y-235330D02*
X-472686Y-266268D01*
X-453686Y-266268D02*
G54D24*
D03*
X-472686Y-266268D02*
G54D24*
D03*
X-400082Y-271850D02*
G54D25*
D03*
X-400082Y-299850D02*
G54D25*
D03*
G54D15*
X-453686Y-266268D02*
X-399288Y-273040D01*
G54D15*
X-365984Y-290144D02*
X-400660Y-272428D01*
X-400082Y-271850D01*
G54D15*
X-472686Y-266268D02*
X-473926Y-292065D01*
X-429451Y-269072D02*
G54D26*
D03*
X-429451Y-288072D02*
G54D26*
D03*
G54D15*
X-521021Y-291010D02*
X-492926Y-292065D01*
G54D15*
X-353247Y-276285D02*
X-338170Y-276612D01*
X-363603Y-290144D02*
G54D27*
D03*
X-350903Y-276144D02*
G54D27*
D03*
X-363604Y-262143D02*
G54D27*
D03*
X-319120Y-248831D02*
G54D25*
D03*
X-319120Y-276831D02*
G54D25*
D03*
X-290148Y-252800D02*
G54D16*
D03*
X-290148Y-271800D02*
G54D16*
D03*
G54D15*
X-337773Y-276612D02*
X-294514Y-276612D01*
X-290148Y-272246D01*
X-319914Y-222588D02*
G54D16*
D03*
X-319914Y-203587D02*
G54D16*
D03*
X-365927Y-232931D02*
G54D19*
D03*
X-346927Y-232931D02*
G54D19*
D03*
X-379445Y-205174D02*
G54D17*
D03*
G54D15*
X-379445Y-205174D02*
X-379445Y-218271D01*
X-365554Y-232162D01*
G54D15*
X-319914Y-223431D02*
X-337773Y-223431D01*
X-346901Y-232559D01*
G54D15*
X-319914Y-224224D02*
X-319914Y-248434D01*
X-294514Y-248434D01*
X-290148Y-252800D01*
G54D28*
X-307574Y-330113D02*
X-307574Y-315113D01*
G54D28*
X-288524Y-330113D02*
X-288524Y-315113D01*
G54D28*
X-269474Y-330113D02*
X-269474Y-315113D01*
G54D15*
X-320311Y-275024D02*
X-320311Y-290900D01*
X-307611Y-322650D01*
X-543354Y-128578D02*
G54D17*
D03*
X-277448Y-144452D02*
G54D18*
D03*
X-306023Y-115877D02*
G54D18*
D03*
X-255545Y-278135D02*
G54D29*
D03*
X-230145Y-278135D02*
G54D29*
D03*
X-204745Y-278135D02*
G54D29*
D03*
X-179345Y-278135D02*
G54D29*
D03*
X-153945Y-278134D02*
G54D29*
D03*
X-128545Y-278135D02*
G54D29*
D03*
X-103145Y-278135D02*
G54D29*
D03*
X-77745Y-278135D02*
G54D29*
D03*
X-52345Y-278135D02*
G54D29*
D03*
G54D30*
X-269474Y-322613D02*
X-256774Y-279364D01*
X-255545Y-278135D01*
X-229748Y-266229D02*
G54D16*
D03*
X-229748Y-247228D02*
G54D16*
D03*
X-230220Y-289708D02*
G54D16*
D03*
X-230220Y-308709D02*
G54D16*
D03*
G54D30*
X-229748Y-266229D02*
X-230220Y-289708D01*
X-182223Y-249202D02*
G54D24*
D03*
X-201223Y-249202D02*
G54D24*
D03*
G54D30*
X-204745Y-278135D02*
X-204745Y-251533D01*
X-201223Y-249202D01*
G54D30*
X-179345Y-278135D02*
X-179345Y-251533D01*
X-180485Y-249202D01*
X-200851Y-197237D02*
G54D16*
D03*
X-200851Y-216237D02*
G54D16*
D03*
X-186358Y-327602D02*
G54D20*
D03*
X-35958Y-327602D02*
G54D20*
D03*
G54D30*
X-186049Y-371031D02*
X-186358Y-327602D01*
X-161158Y-327602D01*
X-128545Y-294990D01*
X-128545Y-278135D01*
X-173468Y-197635D02*
G54D16*
D03*
X-173468Y-216636D02*
G54D16*
D03*
G54D30*
X-201223Y-249202D02*
X-201223Y-216609D01*
X-200851Y-216237D01*
X-226624Y-167447D02*
G54D19*
D03*
X-207624Y-167447D02*
G54D19*
D03*
G54D30*
X-200851Y-197237D02*
X-207624Y-167447D01*
G54D30*
X-226624Y-167447D02*
X-349704Y-167447D01*
X-380239Y-136912D01*
X-380239Y-136912D02*
G54D17*
D03*
G36*
X-143323Y-246896D02*
X-143323Y-218896D01*
X-171323Y-218896D01*
X-171323Y-246896D01*
X-143323Y-246896D01*
G37*
X-131924Y-232896D02*
G54D20*
D03*
X-107164Y-244441D02*
G54D19*
D03*
X-88164Y-244440D02*
G54D19*
D03*
X-107164Y-218642D02*
G54D19*
D03*
X-88163Y-218643D02*
G54D19*
D03*
G54D30*
X-131924Y-232896D02*
X-107164Y-218642D01*
G54D30*
X-107164Y-244441D02*
X-107164Y-218642D01*
G54D30*
X-88164Y-244440D02*
X-77745Y-278135D01*
G54D30*
X-200851Y-197237D02*
X-77820Y-197237D01*
X-52345Y-222712D01*
X-52345Y-278135D01*
G36*
X-44342Y-318785D02*
X-61342Y-318785D01*
X-61343Y-336785D01*
X-44343Y-336785D01*
X-44342Y-318785D01*
G37*
X-71843Y-327785D02*
G54D19*
D03*
X-148439Y-327785D02*
G54D19*
D03*
X-129438Y-327785D02*
G54D19*
D03*
G36*
X-174649Y-357031D02*
X-174649Y-385031D01*
X-146649Y-385031D01*
X-146649Y-357031D01*
X-174649Y-357031D01*
G37*
X-186049Y-371031D02*
G54D20*
D03*
X-35354Y-290503D02*
G54D16*
D03*
X-35354Y-309503D02*
G54D16*
D03*
G54D30*
X-35354Y-290503D02*
X-39977Y-290503D01*
X-52345Y-278135D01*
X-50000Y-50000D02*
G54D18*
D03*
X-101633Y-327014D02*
G54D18*
D03*
X-550000Y-50000D02*
G54D18*
D03*
%LPD*%
G54D31*
G36*
X-364864Y-95234D02*
X-364864Y-81734D01*
X-379744Y-81734D01*
X-379744Y-95234D01*
X-364864Y-95234D01*
G37*
G36*
X-379744Y-95234D02*
X-379744Y-108734D01*
X-364864Y-108734D01*
X-364864Y-95234D01*
X-379744Y-95234D01*
G37*
G54D31*
G36*
X-275964Y-95234D02*
X-275964Y-81734D01*
X-290844Y-81734D01*
X-290844Y-95234D01*
X-275964Y-95234D01*
G37*
G36*
X-290844Y-95234D02*
X-290844Y-108734D01*
X-275964Y-108734D01*
X-275964Y-95234D01*
X-290844Y-95234D01*
G37*
G54D31*
G36*
X-187064Y-95234D02*
X-187064Y-81734D01*
X-201944Y-81734D01*
X-201944Y-95234D01*
X-187064Y-95234D01*
G37*
G36*
X-201944Y-95234D02*
X-201944Y-108734D01*
X-187064Y-108734D01*
X-187064Y-95234D01*
X-201944Y-95234D01*
G37*
G54D32*
G36*
X-480029Y-48409D02*
X-480029Y-35909D01*
X-486029Y-35909D01*
X-486029Y-48409D01*
X-480029Y-48409D01*
G37*
G36*
X-483029Y-45409D02*
X-495529Y-45409D01*
X-495529Y-51409D01*
X-483029Y-51409D01*
X-483029Y-45409D01*
G37*
G36*
X-486029Y-48409D02*
X-486029Y-60909D01*
X-480029Y-60909D01*
X-480029Y-48409D01*
X-486029Y-48409D01*
G37*
G36*
X-483029Y-51409D02*
X-470529Y-51409D01*
X-470529Y-45409D01*
X-483029Y-45409D01*
X-483029Y-51409D01*
G37*
G54D32*
G36*
X-494889Y-153184D02*
X-494889Y-161184D01*
X-488889Y-161184D01*
X-488889Y-153184D01*
X-494889Y-153184D01*
G37*
G36*
X-488889Y-153184D02*
X-488889Y-145184D01*
X-494889Y-145184D01*
X-494889Y-153184D01*
X-488889Y-153184D01*
G37*
G54D32*
G36*
X-451629Y-153184D02*
X-451629Y-161184D01*
X-445629Y-161184D01*
X-445629Y-153184D01*
X-451629Y-153184D01*
G37*
G36*
X-445629Y-153184D02*
X-445629Y-145184D01*
X-451629Y-145184D01*
X-451629Y-153184D01*
X-445629Y-153184D01*
G37*
G54D33*
G36*
X-461598Y-79547D02*
X-452098Y-79547D01*
X-452098Y-75214D01*
X-461598Y-75214D01*
X-461598Y-79547D01*
G37*
G36*
X-459432Y-77381D02*
X-459432Y-68381D01*
X-463765Y-68381D01*
X-463765Y-77381D01*
X-459432Y-77381D01*
G37*
G36*
X-461598Y-75214D02*
X-471098Y-75214D01*
X-471098Y-79547D01*
X-461598Y-79547D01*
X-461598Y-75214D01*
G37*
G54D32*
G36*
X-435549Y-235330D02*
X-435549Y-222830D01*
X-441549Y-222830D01*
X-441549Y-235330D01*
X-435549Y-235330D01*
G37*
G36*
X-438549Y-232330D02*
X-451049Y-232330D01*
X-451049Y-238330D01*
X-438549Y-238330D01*
X-438549Y-232330D01*
G37*
G36*
X-441549Y-235330D02*
X-441549Y-247830D01*
X-435549Y-247830D01*
X-435549Y-235330D01*
X-441549Y-235330D01*
G37*
G36*
X-438549Y-238330D02*
X-426049Y-238330D01*
X-426049Y-232330D01*
X-438549Y-232330D01*
X-438549Y-238330D01*
G37*
G54D33*
G36*
X-511605Y-80738D02*
X-502105Y-80738D01*
X-502105Y-76405D01*
X-511605Y-76405D01*
X-511605Y-80738D01*
G37*
G36*
X-509438Y-78572D02*
X-509438Y-69572D01*
X-513771Y-69572D01*
X-513771Y-78572D01*
X-509438Y-78572D01*
G37*
G36*
X-511605Y-76405D02*
X-521105Y-76405D01*
X-521105Y-80738D01*
X-511605Y-80738D01*
X-511605Y-76405D01*
G37*
G54D33*
G36*
X-461203Y-218437D02*
X-470703Y-218437D01*
X-470703Y-222770D01*
X-461203Y-222770D01*
X-461203Y-218437D01*
G37*
G36*
X-463370Y-220604D02*
X-463370Y-229604D01*
X-459037Y-229604D01*
X-459037Y-220604D01*
X-463370Y-220604D01*
G37*
G36*
X-461203Y-222770D02*
X-451703Y-222770D01*
X-451703Y-218437D01*
X-461203Y-218437D01*
X-461203Y-222770D01*
G37*
G54D33*
G36*
X-420927Y-211102D02*
X-420927Y-220602D01*
X-416594Y-220602D01*
X-416594Y-211102D01*
X-420927Y-211102D01*
G37*
G36*
X-418760Y-213269D02*
X-409760Y-213269D01*
X-409760Y-208936D01*
X-418760Y-208936D01*
X-418760Y-213269D01*
G37*
G36*
X-416594Y-211102D02*
X-416594Y-201602D01*
X-420927Y-201602D01*
X-420927Y-211102D01*
X-416594Y-211102D01*
G37*
G54D34*
G36*
X-564508Y-182373D02*
X-564508Y-167873D01*
X-571174Y-167873D01*
X-571174Y-182373D01*
X-564508Y-182373D01*
G37*
G36*
X-567841Y-179040D02*
X-582341Y-179040D01*
X-582341Y-185706D01*
X-567841Y-185706D01*
X-567841Y-179040D01*
G37*
G36*
X-571174Y-182373D02*
X-571174Y-196873D01*
X-564508Y-196873D01*
X-564508Y-182373D01*
X-571174Y-182373D01*
G37*
G54D34*
G36*
X-259556Y-214694D02*
X-274056Y-214694D01*
X-274056Y-221360D01*
X-259556Y-221360D01*
X-259556Y-214694D01*
G37*
G36*
X-262889Y-218027D02*
X-262889Y-232527D01*
X-256223Y-232527D01*
X-256223Y-218027D01*
X-262889Y-218027D01*
G37*
G36*
X-259556Y-221360D02*
X-245056Y-221360D01*
X-245056Y-214694D01*
X-259556Y-214694D01*
X-259556Y-221360D01*
G37*
G54D34*
G36*
X-86122Y-70231D02*
X-100622Y-70231D01*
X-100622Y-76898D01*
X-86122Y-76898D01*
X-86122Y-70231D01*
G37*
G36*
X-89455Y-73565D02*
X-89455Y-88065D01*
X-82788Y-88065D01*
X-82788Y-73565D01*
X-89455Y-73565D01*
G37*
G36*
X-86122Y-76898D02*
X-71622Y-76898D01*
X-71622Y-70231D01*
X-86122Y-70231D01*
X-86122Y-76898D01*
G37*
G54D35*
G36*
X-546354Y-291010D02*
X-546354Y-276510D01*
X-551688Y-276510D01*
X-551688Y-291010D01*
X-546354Y-291010D01*
G37*
G36*
X-549021Y-288343D02*
X-561521Y-288343D01*
X-561521Y-293676D01*
X-549021Y-293676D01*
X-549021Y-288343D01*
G37*
G36*
X-551688Y-291010D02*
X-551688Y-305510D01*
X-546354Y-305510D01*
X-546354Y-291010D01*
X-551688Y-291010D01*
G37*
G36*
X-549021Y-293676D02*
X-536521Y-293676D01*
X-536521Y-288343D01*
X-549021Y-288343D01*
X-549021Y-293676D01*
G37*
G54D35*
G36*
X-400082Y-297184D02*
X-414582Y-297184D01*
X-414582Y-302517D01*
X-400082Y-302517D01*
X-400082Y-297184D01*
G37*
G36*
X-402749Y-299850D02*
X-402749Y-312350D01*
X-397416Y-312350D01*
X-397416Y-299850D01*
X-402749Y-299850D01*
G37*
G36*
X-400082Y-302517D02*
X-385582Y-302517D01*
X-385582Y-297184D01*
X-400082Y-297184D01*
X-400082Y-302517D01*
G37*
G36*
X-397416Y-299850D02*
X-397416Y-287350D01*
X-402748Y-287350D01*
X-402749Y-299850D01*
X-397416Y-299850D01*
G37*
G54D33*
G36*
X-429451Y-285906D02*
X-439951Y-285906D01*
X-439951Y-290239D01*
X-429451Y-290239D01*
X-429451Y-285906D01*
G37*
G36*
X-431618Y-288072D02*
X-431618Y-297072D01*
X-427284Y-297072D01*
X-427285Y-288072D01*
X-431618Y-288072D01*
G37*
G36*
X-429451Y-290239D02*
X-418951Y-290238D01*
X-418951Y-285905D01*
X-429451Y-285906D01*
X-429451Y-290239D01*
G37*
G36*
X-427285Y-288072D02*
X-427285Y-279072D01*
X-431618Y-279072D01*
X-431618Y-288072D01*
X-427285Y-288072D01*
G37*
G54D36*
G36*
X-363604Y-264476D02*
X-352104Y-264476D01*
X-352104Y-259810D01*
X-363604Y-259810D01*
X-363604Y-264476D01*
G37*
G36*
X-361270Y-262143D02*
X-361270Y-250643D01*
X-365937Y-250643D01*
X-365937Y-262143D01*
X-361270Y-262143D01*
G37*
G36*
X-363604Y-259810D02*
X-375104Y-259810D01*
X-375104Y-264476D01*
X-363604Y-264476D01*
X-363604Y-259810D01*
G37*
G54D33*
G36*
X-319914Y-205754D02*
X-310414Y-205754D01*
X-310414Y-201421D01*
X-319914Y-201421D01*
X-319914Y-205754D01*
G37*
G36*
X-317748Y-203587D02*
X-317748Y-194587D01*
X-322081Y-194587D01*
X-322081Y-203587D01*
X-317748Y-203587D01*
G37*
G36*
X-319914Y-201421D02*
X-329414Y-201421D01*
X-329414Y-205754D01*
X-319914Y-205754D01*
X-319914Y-201421D01*
G37*
G54D37*
G36*
X-296024Y-322613D02*
X-296024Y-341113D01*
X-281024Y-341113D01*
X-281024Y-322613D01*
X-296024Y-322613D01*
G37*
G36*
X-281024Y-322613D02*
X-281024Y-304113D01*
X-296024Y-304113D01*
X-296024Y-322613D01*
X-281024Y-322613D01*
G37*
G54D38*
G36*
X-156755Y-280945D02*
X-148977Y-288723D01*
X-143356Y-283102D01*
X-151134Y-275324D01*
X-156755Y-280945D01*
G37*
G36*
X-151134Y-280945D02*
X-143356Y-273167D01*
X-148977Y-267546D01*
X-156755Y-275324D01*
X-151134Y-280945D01*
G37*
G36*
X-151134Y-275324D02*
X-158912Y-267546D01*
X-164534Y-273167D01*
X-156755Y-280945D01*
X-151134Y-275324D01*
G37*
G36*
X-156755Y-275324D02*
X-164534Y-283102D01*
X-158912Y-288723D01*
X-151134Y-280945D01*
X-156755Y-275324D01*
G37*
G54D33*
G36*
X-229748Y-249395D02*
X-220248Y-249395D01*
X-220248Y-245062D01*
X-229748Y-245062D01*
X-229748Y-249395D01*
G37*
G36*
X-227581Y-247228D02*
X-227581Y-238228D01*
X-231914Y-238228D01*
X-231914Y-247228D01*
X-227581Y-247228D01*
G37*
G36*
X-229748Y-245062D02*
X-239248Y-245062D01*
X-239248Y-249395D01*
X-229748Y-249395D01*
X-229748Y-245062D01*
G37*
G54D33*
G36*
X-230220Y-306542D02*
X-239720Y-306542D01*
X-239720Y-310875D01*
X-230220Y-310875D01*
X-230220Y-306542D01*
G37*
G36*
X-232387Y-308709D02*
X-232387Y-317709D01*
X-228054Y-317709D01*
X-228054Y-308709D01*
X-232387Y-308709D01*
G37*
G36*
X-230220Y-310875D02*
X-220720Y-310875D01*
X-220720Y-306542D01*
X-230220Y-306542D01*
X-230220Y-310875D01*
G37*
G54D33*
G36*
X-173468Y-214469D02*
X-182968Y-214469D01*
X-182968Y-218802D01*
X-173468Y-218802D01*
X-173468Y-214469D01*
G37*
G36*
X-175635Y-216636D02*
X-175635Y-225636D01*
X-171302Y-225636D01*
X-171302Y-216636D01*
X-175635Y-216636D01*
G37*
G36*
X-173468Y-218802D02*
X-163968Y-218802D01*
X-163968Y-214469D01*
X-173468Y-214469D01*
X-173468Y-218802D01*
G37*
G54D34*
G36*
X-153990Y-232896D02*
X-153990Y-218396D01*
X-160657Y-218396D01*
X-160657Y-232896D01*
X-153990Y-232896D01*
G37*
G36*
X-157323Y-229563D02*
X-171823Y-229563D01*
X-171823Y-236229D01*
X-157323Y-236229D01*
X-157323Y-229563D01*
G37*
G36*
X-160657Y-232896D02*
X-160657Y-247396D01*
X-153990Y-247396D01*
X-153990Y-232896D01*
X-160657Y-232896D01*
G37*
G54D33*
G36*
X-90330Y-218643D02*
X-90330Y-228143D01*
X-85997Y-228143D01*
X-85997Y-218643D01*
X-90330Y-218643D01*
G37*
G36*
X-88163Y-220809D02*
X-79163Y-220809D01*
X-79163Y-216476D01*
X-88163Y-216476D01*
X-88163Y-220809D01*
G37*
G36*
X-85997Y-218643D02*
X-85997Y-209143D01*
X-90330Y-209143D01*
X-90330Y-218643D01*
X-85997Y-218643D01*
G37*
G54D33*
G36*
X-69676Y-327785D02*
X-69677Y-318285D01*
X-74010Y-318285D01*
X-74009Y-327785D01*
X-69676Y-327785D01*
G37*
G36*
X-71843Y-325618D02*
X-80843Y-325618D01*
X-80843Y-329951D01*
X-71843Y-329951D01*
X-71843Y-325618D01*
G37*
G36*
X-74009Y-327785D02*
X-74009Y-337285D01*
X-69676Y-337285D01*
X-69676Y-327785D01*
X-74009Y-327785D01*
G37*
G54D33*
G36*
X-131605Y-327785D02*
X-131605Y-337285D01*
X-127272Y-337285D01*
X-127272Y-327785D01*
X-131605Y-327785D01*
G37*
G36*
X-129438Y-329952D02*
X-120438Y-329952D01*
X-120438Y-325619D01*
X-129438Y-325619D01*
X-129438Y-329952D01*
G37*
G36*
X-127272Y-327785D02*
X-127272Y-318285D01*
X-131605Y-318285D01*
X-131605Y-327785D01*
X-127272Y-327785D01*
G37*
G54D34*
G36*
X-163982Y-371031D02*
X-163982Y-385531D01*
X-157316Y-385531D01*
X-157316Y-371031D01*
X-163982Y-371031D01*
G37*
G36*
X-160649Y-374364D02*
X-146149Y-374364D01*
X-146149Y-367697D01*
X-160649Y-367697D01*
X-160649Y-374364D01*
G37*
G36*
X-157316Y-371031D02*
X-157316Y-356531D01*
X-163982Y-356531D01*
X-163982Y-371031D01*
X-157316Y-371031D01*
G37*
X-350479Y-48409D02*
G54D39*
D03*
X-372304Y-95234D02*
G54D39*
D03*
X-350479Y-95234D02*
G54D39*
D03*
X-394129Y-95234D02*
G54D39*
D03*
X-394129Y-48409D02*
G54D39*
D03*
X-261579Y-48409D02*
G54D39*
D03*
X-283404Y-95234D02*
G54D39*
D03*
X-261579Y-95234D02*
G54D39*
D03*
X-305229Y-95234D02*
G54D39*
D03*
X-305229Y-48409D02*
G54D39*
D03*
X-172679Y-48409D02*
G54D39*
D03*
X-194504Y-95234D02*
G54D39*
D03*
X-172679Y-95234D02*
G54D39*
D03*
X-216329Y-95234D02*
G54D39*
D03*
X-216329Y-48409D02*
G54D39*
D03*
G54D40*
X-216329Y-48409D02*
X-261579Y-48409D01*
G54D40*
X-305229Y-48409D02*
X-350479Y-48409D01*
X-439379Y-48409D02*
G54D39*
D03*
X-439379Y-95234D02*
G54D39*
D03*
X-483029Y-95234D02*
G54D39*
D03*
X-483029Y-48409D02*
G54D39*
D03*
G54D40*
X-394129Y-48409D02*
X-439379Y-48409D01*
X-500889Y-153184D02*
G54D41*
D03*
X-500889Y-126184D02*
G54D41*
D03*
X-491889Y-153184D02*
G54D41*
D03*
X-491889Y-126184D02*
G54D41*
D03*
X-482889Y-153184D02*
G54D41*
D03*
X-482889Y-126184D02*
G54D41*
D03*
X-506842Y-153184D02*
G54D41*
D03*
X-457629Y-153184D02*
G54D41*
D03*
X-457629Y-126184D02*
G54D41*
D03*
X-448629Y-153184D02*
G54D41*
D03*
X-448629Y-126184D02*
G54D41*
D03*
X-439629Y-153184D02*
G54D41*
D03*
X-439629Y-126184D02*
G54D41*
D03*
X-463582Y-153184D02*
G54D41*
D03*
G54D32*
X-483029Y-95240D02*
X-483084Y-126286D01*
G54D32*
X-439373Y-95240D02*
X-439428Y-126286D01*
G54D21*
X-457629Y-125006D02*
X-457629Y-132150D01*
X-462392Y-136912D01*
X-539386Y-137309D01*
G54D21*
X-500889Y-126184D02*
X-500889Y-136515D01*
X-461599Y-96381D02*
G54D42*
D03*
X-461598Y-77381D02*
G54D42*
D03*
X-438549Y-235330D02*
G54D39*
D03*
X-460374Y-188506D02*
G54D39*
D03*
X-438549Y-188506D02*
G54D39*
D03*
X-482199Y-188506D02*
G54D39*
D03*
X-482199Y-235330D02*
G54D39*
D03*
G54D32*
X-463582Y-153184D02*
X-482889Y-153184D01*
G54D21*
X-439373Y-153581D02*
X-439373Y-188506D01*
X-438945Y-188456D01*
X-505254Y-160328D02*
G54D43*
D03*
G54D21*
X-463582Y-153184D02*
X-482889Y-188371D01*
X-483023Y-188506D01*
X-461201Y-108337D02*
G54D43*
D03*
X-512001Y-108734D02*
G54D43*
D03*
G54D32*
X-491889Y-126184D02*
X-491889Y-116940D01*
X-512001Y-108734D01*
G54D32*
X-448629Y-126184D02*
X-448629Y-116146D01*
X-461201Y-108337D01*
X-511605Y-97572D02*
G54D42*
D03*
X-511605Y-78572D02*
G54D42*
D03*
X-461203Y-201603D02*
G54D42*
D03*
X-461203Y-220604D02*
G54D42*
D03*
X-437761Y-211102D02*
G54D44*
D03*
X-418760Y-211102D02*
G54D44*
D03*
X-542070Y-138346D02*
G54D42*
D03*
X-542070Y-157346D02*
G54D42*
D03*
G36*
X-557841Y-192373D02*
X-557841Y-172373D01*
X-577841Y-172373D01*
X-577841Y-192373D01*
X-557841Y-192373D01*
G37*
X-542442Y-182373D02*
G54D45*
D03*
G54D21*
X-461198Y-188506D02*
X-461203Y-201603D01*
G54D21*
X-461203Y-201603D02*
X-447259Y-201603D01*
X-437761Y-211102D01*
G54D21*
X-542070Y-157346D02*
X-542380Y-182435D01*
X-542442Y-182373D01*
G36*
X-249556Y-208027D02*
X-269556Y-208027D01*
X-269556Y-228027D01*
X-249556Y-228027D01*
X-249556Y-208027D01*
G37*
X-259556Y-192628D02*
G54D45*
D03*
X-381007Y-48384D02*
G54D44*
D03*
X-362007Y-48384D02*
G54D44*
D03*
X-292504Y-48384D02*
G54D44*
D03*
X-273504Y-48384D02*
G54D44*
D03*
X-203207Y-47987D02*
G54D44*
D03*
X-184207Y-47987D02*
G54D44*
D03*
G36*
X-76122Y-63565D02*
X-96122Y-63565D01*
X-96122Y-83565D01*
X-76122Y-83565D01*
X-76122Y-63565D01*
G37*
X-86122Y-48165D02*
G54D45*
D03*
X-132564Y-48384D02*
G54D44*
D03*
X-113564Y-48384D02*
G54D44*
D03*
G54D40*
X-138120Y-48384D02*
X-172679Y-48409D01*
G54D40*
X-86129Y-47987D02*
X-109973Y-48409D01*
X-521021Y-291010D02*
G54D46*
D03*
X-549021Y-291010D02*
G54D46*
D03*
X-473926Y-292065D02*
G54D44*
D03*
X-492926Y-292065D02*
G54D44*
D03*
G54D21*
X-482199Y-235330D02*
X-472686Y-266268D01*
X-453686Y-266268D02*
G54D47*
D03*
X-472686Y-266268D02*
G54D47*
D03*
X-400082Y-271850D02*
G54D48*
D03*
X-400082Y-299850D02*
G54D48*
D03*
G54D21*
X-453686Y-266268D02*
X-399288Y-273040D01*
G54D21*
X-365984Y-290144D02*
X-400660Y-272428D01*
X-400082Y-271850D01*
G54D21*
X-472686Y-266268D02*
X-473926Y-292065D01*
X-429451Y-269072D02*
G54D49*
D03*
X-429451Y-288072D02*
G54D49*
D03*
G54D21*
X-521021Y-291010D02*
X-492926Y-292065D01*
G54D21*
X-353247Y-276285D02*
X-338170Y-276612D01*
X-363603Y-290144D02*
G54D50*
D03*
X-350903Y-276144D02*
G54D50*
D03*
X-363604Y-262143D02*
G54D50*
D03*
X-319120Y-248831D02*
G54D48*
D03*
X-319120Y-276831D02*
G54D48*
D03*
X-290148Y-252800D02*
G54D42*
D03*
X-290148Y-271800D02*
G54D42*
D03*
G54D21*
X-337773Y-276612D02*
X-294514Y-276612D01*
X-290148Y-272246D01*
X-319914Y-222588D02*
G54D42*
D03*
X-319914Y-203587D02*
G54D42*
D03*
X-365927Y-232931D02*
G54D44*
D03*
X-346927Y-232931D02*
G54D44*
D03*
X-379445Y-205174D02*
G54D43*
D03*
G54D21*
X-379445Y-205174D02*
X-379445Y-218271D01*
X-365554Y-232162D01*
G54D21*
X-319914Y-223431D02*
X-337773Y-223431D01*
X-346901Y-232559D01*
G54D21*
X-319914Y-224224D02*
X-319914Y-248434D01*
X-294514Y-248434D01*
X-290148Y-252800D01*
G54D37*
X-307574Y-330113D02*
X-307574Y-315113D01*
G54D37*
X-288524Y-330113D02*
X-288524Y-315113D01*
G54D37*
X-269474Y-330113D02*
X-269474Y-315113D01*
G54D21*
X-320311Y-275024D02*
X-320311Y-290900D01*
X-307611Y-322650D01*
X-543354Y-128578D02*
G54D43*
D03*
X-255545Y-278135D02*
G54D43*
D03*
X-230145Y-278135D02*
G54D43*
D03*
X-204745Y-278135D02*
G54D43*
D03*
X-179345Y-278135D02*
G54D43*
D03*
X-153945Y-278134D02*
G54D43*
D03*
X-128545Y-278135D02*
G54D43*
D03*
X-103145Y-278135D02*
G54D43*
D03*
X-77745Y-278135D02*
G54D43*
D03*
X-52345Y-278135D02*
G54D43*
D03*
G54D21*
X-269474Y-322613D02*
X-256774Y-279364D01*
X-255545Y-278135D01*
X-229748Y-266229D02*
G54D42*
D03*
X-229748Y-247228D02*
G54D42*
D03*
X-230220Y-289708D02*
G54D42*
D03*
X-230220Y-308709D02*
G54D42*
D03*
G54D21*
X-229748Y-266229D02*
X-230220Y-289708D01*
X-182223Y-249202D02*
G54D47*
D03*
X-201223Y-249202D02*
G54D47*
D03*
G54D21*
X-204745Y-278135D02*
X-204745Y-251533D01*
X-201223Y-249202D01*
G54D21*
X-179345Y-278135D02*
X-179345Y-251533D01*
X-180485Y-249202D01*
X-200851Y-197237D02*
G54D42*
D03*
X-200851Y-216237D02*
G54D42*
D03*
X-186358Y-327602D02*
G54D45*
D03*
X-35958Y-327602D02*
G54D45*
D03*
G54D21*
X-186049Y-371031D02*
X-186358Y-327602D01*
X-161158Y-327602D01*
X-128545Y-294990D01*
X-128545Y-278135D01*
X-173468Y-197635D02*
G54D42*
D03*
X-173468Y-216636D02*
G54D42*
D03*
G54D21*
X-201223Y-249202D02*
X-201223Y-216609D01*
X-200851Y-216237D01*
X-226624Y-167447D02*
G54D44*
D03*
X-207624Y-167447D02*
G54D44*
D03*
G54D21*
X-200851Y-197237D02*
X-207624Y-167447D01*
G54D21*
X-226624Y-167447D02*
X-349704Y-167447D01*
X-380239Y-136912D01*
X-380239Y-136912D02*
G54D43*
D03*
G36*
X-147323Y-242896D02*
X-147323Y-222896D01*
X-167323Y-222896D01*
X-167323Y-242896D01*
X-147323Y-242896D01*
G37*
X-131924Y-232896D02*
G54D45*
D03*
X-107164Y-244441D02*
G54D44*
D03*
X-88164Y-244440D02*
G54D44*
D03*
X-107164Y-218642D02*
G54D44*
D03*
X-88163Y-218643D02*
G54D44*
D03*
G54D21*
X-131924Y-232896D02*
X-107164Y-218642D01*
G54D21*
X-107164Y-244441D02*
X-107164Y-218642D01*
G54D21*
X-88164Y-244440D02*
X-77745Y-278135D01*
G54D21*
X-200851Y-197237D02*
X-77820Y-197237D01*
X-52345Y-222712D01*
X-52345Y-278135D01*
G36*
X-46342Y-320785D02*
X-59342Y-320785D01*
X-59343Y-334785D01*
X-46343Y-334785D01*
X-46342Y-320785D01*
G37*
X-71843Y-327785D02*
G54D44*
D03*
X-148439Y-327785D02*
G54D44*
D03*
X-129438Y-327785D02*
G54D44*
D03*
G36*
X-170649Y-361031D02*
X-170649Y-381031D01*
X-150649Y-381031D01*
X-150649Y-361031D01*
X-170649Y-361031D01*
G37*
X-186049Y-371031D02*
G54D45*
D03*
X-35354Y-290503D02*
G54D42*
D03*
X-35354Y-309503D02*
G54D42*
D03*
G54D21*
X-35354Y-290503D02*
X-39977Y-290503D01*
X-52345Y-278135D01*
%LNAUGENFREISTANZEN*%
%LPC*%
X-350479Y-48409D02*
G54D21*
D03*
X-372304Y-95234D02*
G54D21*
D03*
X-350479Y-95234D02*
G54D21*
D03*
X-394129Y-95234D02*
G54D21*
D03*
X-394129Y-48409D02*
G54D21*
D03*
X-261579Y-48409D02*
G54D21*
D03*
X-283404Y-95234D02*
G54D21*
D03*
X-261579Y-95234D02*
G54D21*
D03*
X-305229Y-95234D02*
G54D21*
D03*
X-305229Y-48409D02*
G54D21*
D03*
X-172679Y-48409D02*
G54D21*
D03*
X-194504Y-95234D02*
G54D21*
D03*
X-172679Y-95234D02*
G54D21*
D03*
X-216329Y-95234D02*
G54D21*
D03*
X-216329Y-48409D02*
G54D21*
D03*
X-439379Y-48409D02*
G54D21*
D03*
X-439379Y-95234D02*
G54D21*
D03*
X-483029Y-95234D02*
G54D21*
D03*
X-483029Y-48409D02*
G54D21*
D03*
X-438549Y-235330D02*
G54D21*
D03*
X-460374Y-188506D02*
G54D21*
D03*
X-438549Y-188506D02*
G54D21*
D03*
X-482199Y-188506D02*
G54D21*
D03*
X-482199Y-235330D02*
G54D21*
D03*
X-505254Y-160328D02*
G54D21*
D03*
X-448501Y-166677D02*
G54D21*
D03*
X-461201Y-108337D02*
G54D21*
D03*
X-489776Y-165090D02*
G54D21*
D03*
X-512001Y-108734D02*
G54D21*
D03*
X-511207Y-61902D02*
G54D21*
D03*
X-461598Y-61902D02*
G54D21*
D03*
X-567841Y-182373D02*
G54D51*
D03*
X-542442Y-182373D02*
G54D51*
D03*
X-259556Y-218027D02*
G54D51*
D03*
X-259556Y-192628D02*
G54D51*
D03*
X-86122Y-73565D02*
G54D51*
D03*
X-86122Y-48165D02*
G54D51*
D03*
X-363603Y-290144D02*
G54D21*
D03*
X-350903Y-276144D02*
G54D21*
D03*
X-363604Y-262143D02*
G54D21*
D03*
X-379445Y-205174D02*
G54D21*
D03*
X-307574Y-322613D02*
G54D21*
D03*
X-288524Y-322613D02*
G54D21*
D03*
X-269474Y-322613D02*
G54D21*
D03*
X-543354Y-128578D02*
G54D21*
D03*
X-277448Y-144452D02*
G54D21*
D03*
X-306023Y-115877D02*
G54D21*
D03*
X-255545Y-278135D02*
G54D21*
D03*
X-230145Y-278135D02*
G54D21*
D03*
X-204745Y-278135D02*
G54D21*
D03*
X-179345Y-278135D02*
G54D21*
D03*
X-153945Y-278134D02*
G54D21*
D03*
X-128545Y-278135D02*
G54D21*
D03*
X-103145Y-278135D02*
G54D21*
D03*
X-77745Y-278135D02*
G54D21*
D03*
X-52345Y-278135D02*
G54D21*
D03*
X-186358Y-327602D02*
G54D51*
D03*
X-35958Y-327602D02*
G54D51*
D03*
X-380239Y-136912D02*
G54D21*
D03*
X-157323Y-232896D02*
G54D51*
D03*
X-131924Y-232896D02*
G54D51*
D03*
X-160649Y-371031D02*
G54D51*
D03*
X-186049Y-371031D02*
G54D51*
D03*
X-50000Y-50000D02*
G54D21*
D03*
X-101633Y-327014D02*
G54D21*
D03*
X-550000Y-50000D02*
G54D21*
D03*
M02*
