M48
M71
T01C0.5
T02C0.8
%
G05
T01
X-010160Y-032700
X-010310Y-027810
X-012850Y-027810
X-015390Y-027810
X-017930Y-027810
X-020470Y-027810
X-023010Y-027810
X-025550Y-027810
X-026950Y-032260
X-028850Y-032260
X-030760Y-032260
X-035090Y-027610
X-036360Y-029010
X-036360Y-026210
X-037940Y-020520
X-043850Y-018850
X-046040Y-018850
X-048220Y-018850
X-048980Y-016510
X-050530Y-016030
X-054340Y-012860
X-051200Y-010870
X-048300Y-009520
X-046120Y-010830
X-043940Y-009520
X-046160Y-006190
X-048300Y-004840
X-051120Y-006190
X-055000Y-005000
X-043940Y-004840
X-039410Y-004840
X-035050Y-004840
X-030520Y-004840
X-026160Y-004840
X-021630Y-004840
X-017270Y-004840
X-017270Y-009520
X-019450Y-009520
X-021630Y-009520
X-026160Y-009520
X-028340Y-009520
X-030520Y-009520
X-030600Y-011590
X-027740Y-014450
X-035050Y-009520
X-037230Y-009520
X-039410Y-009520
X-038020Y-013690
X-044850Y-016670
X-043850Y-023530
X-048220Y-023530
X-007770Y-027810
X-005230Y-027810
X-005000Y-005000
T02
X-003600Y-032760
X-016060Y-037100
X-018600Y-037100
X-018640Y-032760
X-015730Y-023290
X-013190Y-023290
X-025960Y-021800
X-025960Y-019260
X-008610Y-007360
X-008610Y-004820
X-054240Y-018240
X-056780Y-018240
M30
