%FSLAX34Y34*%
%MOMM*%
%LNCOPPER_TOP*%
G71*
G01*
%ADD10C, 2.600*%
%ADD11C, 2.400*%
%ADD12C, 1.900*%
%ADD13C, 0.900*%
%ADD14C, 0.500*%
%ADD15C, 1.000*%
%ADD16R, 1.800X1.700*%
%ADD17C, 2.800*%
%ADD18R, 1.700X1.800*%
%ADD19C, 0.286*%
%ADD20R, 3.000X4.100*%
%ADD21R, 3.000X1.800*%
%ADD22C, 0.800*%
%ADD23C, 1.400*%
%ADD24C, 1.300*%
%ADD25C, 1.800*%
%ADD26C, 2.200*%
%ADD27C, 2.100*%
%ADD28C, 2.100*%
%ADD29C, 1.100*%
%ADD30C, 1.488*%
%ADD31C, 0.600*%
%ADD32C, 0.667*%
%ADD33C, 0.500*%
%ADD34C, 0.433*%
%ADD35C, 0.467*%
%ADD36C, 1.500*%
%ADD37C, 0.795*%
%ADD38C, 1.800*%
%ADD39C, 1.500*%
%ADD40R, 1.400X1.300*%
%ADD41C, 2.000*%
%ADD42R, 1.300X1.400*%
%ADD43R, 2.200X3.300*%
%ADD44R, 2.200X1.000*%
%ADD45C, 0.000*%
%ADD46C, 1.400*%
%LPD*%
G36*
X0Y0D02*
X600000Y0D01*
X600000Y-400000D01*
X0Y-400000D01*
X0Y0D01*
G37*
%LPC*%
X350479Y-48409D02*
G54D10*
D03*
X372304Y-95234D02*
G54D10*
D03*
X350479Y-95234D02*
G54D10*
D03*
X394129Y-95234D02*
G54D10*
D03*
X394129Y-48409D02*
G54D10*
D03*
X261579Y-48409D02*
G54D10*
D03*
X283404Y-95234D02*
G54D10*
D03*
X261579Y-95234D02*
G54D10*
D03*
X305229Y-95234D02*
G54D10*
D03*
X305229Y-48409D02*
G54D10*
D03*
X172679Y-48409D02*
G54D10*
D03*
X194504Y-95234D02*
G54D10*
D03*
X172679Y-95234D02*
G54D10*
D03*
X216329Y-95234D02*
G54D10*
D03*
X216329Y-48409D02*
G54D10*
D03*
X439379Y-48409D02*
G54D11*
D03*
X439379Y-95234D02*
G54D11*
D03*
X483029Y-95234D02*
G54D11*
D03*
X483029Y-48409D02*
G54D11*
D03*
X438549Y-235330D02*
G54D11*
D03*
X460374Y-188506D02*
G54D11*
D03*
X438549Y-188506D02*
G54D11*
D03*
X482199Y-188506D02*
G54D11*
D03*
X482199Y-235330D02*
G54D11*
D03*
X505254Y-160328D02*
G54D12*
D03*
G54D13*
X505254Y-160328D02*
X498111Y-174615D01*
X453264Y-174615D01*
X439373Y-188506D01*
X448501Y-166677D02*
G54D14*
D03*
X461201Y-108337D02*
G54D12*
D03*
X489776Y-165090D02*
G54D14*
D03*
X512001Y-108734D02*
G54D12*
D03*
G54D15*
X512001Y-108734D02*
X490570Y-117465D01*
X470329Y-117465D01*
X461201Y-108337D01*
X511207Y-61902D02*
G54D14*
D03*
X461598Y-61902D02*
G54D14*
D03*
X524304Y-109528D02*
G54D16*
D03*
X524304Y-128528D02*
G54D16*
D03*
G54D13*
X512001Y-108734D02*
X508429Y-108337D01*
X523907Y-109131D01*
G54D13*
X524304Y-128181D02*
X524304Y-180965D01*
X496920Y-208350D01*
X469139Y-208350D01*
X460804Y-200015D01*
X460804Y-188903D01*
X461201Y-188506D01*
G36*
X553841Y-196373D02*
X553841Y-168373D01*
X581841Y-168373D01*
X581841Y-196373D01*
X553841Y-196373D01*
G37*
X542442Y-182373D02*
G54D17*
D03*
X542932Y-149190D02*
G54D18*
D03*
X523932Y-149190D02*
G54D18*
D03*
G54D13*
X543354Y-128578D02*
X542131Y-149991D01*
G54D19*
X522977Y-209039D02*
X528977Y-225040D01*
X534977Y-209040D01*
G54D19*
X540577Y-225040D02*
X540577Y-209040D01*
X548977Y-209040D01*
G54D19*
X540577Y-217040D02*
X548977Y-217040D01*
G54D19*
X564177Y-212040D02*
X564177Y-222040D01*
X562977Y-224040D01*
X560577Y-225040D01*
X558177Y-225040D01*
X555777Y-224040D01*
X554577Y-222040D01*
X554577Y-212040D01*
X555777Y-210040D01*
X558177Y-209040D01*
X560577Y-209040D01*
X562977Y-210040D01*
X564177Y-212040D01*
X365157Y-171043D02*
G54D20*
D03*
X308007Y-171043D02*
G54D21*
D03*
X308007Y-196443D02*
G54D21*
D03*
X308007Y-145642D02*
G54D21*
D03*
G36*
X297292Y-166281D02*
X322692Y-166281D01*
X322692Y-128578D01*
X388176Y-128578D01*
X388176Y-213509D01*
X322692Y-213509D01*
X322692Y-175806D01*
X297292Y-175806D01*
X297292Y-166281D01*
G37*
G54D22*
X297292Y-166281D02*
X322692Y-166281D01*
X322692Y-128578D01*
X388176Y-128578D01*
X388176Y-213509D01*
X322692Y-213509D01*
X322692Y-175806D01*
X297292Y-175806D01*
X297292Y-166281D01*
G36*
X245556Y-204027D02*
X273556Y-204027D01*
X273556Y-232027D01*
X245556Y-232027D01*
X245556Y-204027D01*
G37*
X259556Y-192628D02*
G54D17*
D03*
G54D23*
X417917Y-130934D02*
X438579Y-130959D01*
X448104Y-116671D01*
X461201Y-108337D01*
X417917Y-130934D02*
G54D18*
D03*
X398917Y-130934D02*
G54D18*
D03*
G54D24*
X398917Y-130934D02*
X386217Y-130934D01*
X380239Y-136912D01*
X286182Y-197238D02*
G54D16*
D03*
X286182Y-216238D02*
G54D16*
D03*
G54D25*
X259556Y-192628D02*
X281571Y-192628D01*
X286182Y-197238D01*
X307212Y-197238D01*
G54D19*
X233917Y-178965D02*
X217917Y-184965D01*
X233917Y-190965D01*
G54D19*
X220917Y-206165D02*
X218917Y-204965D01*
X217917Y-202565D01*
X217917Y-200165D01*
X218917Y-197765D01*
X220917Y-196565D01*
X230917Y-196565D01*
X232917Y-197765D01*
X233917Y-200165D01*
X233917Y-202565D01*
X232917Y-204965D01*
X230917Y-206165D01*
G54D19*
X220917Y-221365D02*
X218917Y-220165D01*
X217917Y-217765D01*
X217917Y-215365D01*
X218917Y-212965D01*
X220917Y-211765D01*
X230917Y-211765D01*
X232917Y-212965D01*
X233917Y-215365D01*
X233917Y-217765D01*
X232917Y-220165D01*
X230917Y-221365D01*
G36*
X72122Y-59565D02*
X100122Y-59565D01*
X100122Y-87565D01*
X72122Y-87565D01*
X72122Y-59565D01*
G37*
X86122Y-48165D02*
G54D17*
D03*
X363603Y-290144D02*
G54D26*
D03*
X350903Y-276144D02*
G54D26*
D03*
X363604Y-262143D02*
G54D26*
D03*
X379445Y-205174D02*
G54D12*
D03*
G54D27*
X307574Y-330113D02*
X307574Y-315113D01*
G54D27*
X288524Y-330113D02*
X288524Y-315113D01*
G54D27*
X269474Y-330113D02*
X269474Y-315113D01*
X383439Y-168637D02*
G54D18*
D03*
X402440Y-168637D02*
G54D18*
D03*
X543354Y-128578D02*
G54D12*
D03*
X277448Y-144452D02*
G54D14*
D03*
X306023Y-115877D02*
G54D14*
D03*
X255545Y-278135D02*
G54D28*
D03*
X230145Y-278135D02*
G54D28*
D03*
X204745Y-278135D02*
G54D28*
D03*
X179345Y-278135D02*
G54D28*
D03*
X153945Y-278134D02*
G54D28*
D03*
X128545Y-278135D02*
G54D28*
D03*
X103145Y-278135D02*
G54D28*
D03*
X77745Y-278135D02*
G54D28*
D03*
X52345Y-278135D02*
G54D28*
D03*
G54D29*
X269474Y-322613D02*
X256774Y-279364D01*
X255545Y-278135D01*
X186358Y-327602D02*
G54D17*
D03*
X35958Y-327602D02*
G54D17*
D03*
G54D29*
X128545Y-278135D02*
X128545Y-294990D01*
X161158Y-327602D01*
X186358Y-327602D01*
X186049Y-371031D01*
X380239Y-136912D02*
G54D12*
D03*
G36*
X143323Y-246896D02*
X143323Y-218896D01*
X171323Y-218896D01*
X171323Y-246896D01*
X143323Y-246896D01*
G37*
X131924Y-232896D02*
G54D17*
D03*
G54D19*
X123477Y-179297D02*
X113877Y-179297D01*
X113877Y-178297D01*
X115077Y-176297D01*
X122277Y-170297D01*
X123477Y-168297D01*
X123477Y-166297D01*
X122277Y-164297D01*
X119877Y-163297D01*
X117477Y-163297D01*
X115077Y-164297D01*
X113877Y-166297D01*
G54D19*
X138677Y-179297D02*
X129077Y-179297D01*
X129077Y-178297D01*
X130277Y-176297D01*
X137477Y-170297D01*
X138677Y-168297D01*
X138677Y-166297D01*
X137477Y-164297D01*
X135077Y-163297D01*
X132677Y-163297D01*
X130277Y-164297D01*
X129077Y-166297D01*
G54D19*
X145237Y-179297D02*
X144277Y-179297D01*
X144277Y-178497D01*
X145237Y-178497D01*
X145237Y-179297D01*
X144277Y-179297D01*
G54D19*
X160437Y-179297D02*
X150837Y-179297D01*
X150837Y-178297D01*
X152037Y-176297D01*
X159237Y-170297D01*
X160437Y-168297D01*
X160437Y-166297D01*
X159237Y-164297D01*
X156837Y-163297D01*
X154437Y-163297D01*
X152037Y-164297D01*
X150837Y-166297D01*
G54D19*
X117449Y-202316D02*
X117449Y-186316D01*
X123449Y-196316D01*
X129449Y-186316D01*
X129449Y-202316D01*
G54D19*
X135049Y-202316D02*
X135049Y-186316D01*
G54D19*
X144649Y-202316D02*
X144649Y-186316D01*
G54D19*
X135049Y-194316D02*
X144649Y-194316D01*
G54D19*
X150249Y-193316D02*
X157449Y-193316D01*
X150249Y-202316D01*
X157449Y-202316D01*
G36*
X174649Y-357031D02*
X174649Y-385031D01*
X146649Y-385031D01*
X146649Y-357031D01*
X174649Y-357031D01*
G37*
X186049Y-371031D02*
G54D17*
D03*
G54D19*
X216558Y-341036D02*
X206958Y-341036D01*
X206958Y-348036D01*
X208158Y-348036D01*
X210558Y-347036D01*
X212958Y-347036D01*
X215358Y-348036D01*
X216558Y-350036D01*
X216558Y-354036D01*
X215358Y-356036D01*
X212958Y-357036D01*
X210558Y-357036D01*
X208158Y-356036D01*
X206958Y-354036D01*
G54D19*
X231758Y-344036D02*
X231758Y-354036D01*
X230558Y-356036D01*
X228158Y-357036D01*
X225758Y-357036D01*
X223358Y-356036D01*
X222158Y-354036D01*
X222158Y-344036D01*
X223358Y-342036D01*
X225758Y-341036D01*
X228158Y-341036D01*
X230558Y-342036D01*
X231758Y-344036D01*
G54D19*
X246958Y-344036D02*
X246958Y-354036D01*
X245758Y-356036D01*
X243358Y-357036D01*
X240958Y-357036D01*
X238558Y-356036D01*
X237358Y-354036D01*
X237358Y-344036D01*
X238558Y-342036D01*
X240958Y-341036D01*
X243358Y-341036D01*
X245758Y-342036D01*
X246958Y-344036D01*
G54D19*
X210530Y-380055D02*
X210530Y-364055D01*
G54D19*
X214130Y-374055D02*
X217730Y-380055D01*
G54D19*
X210530Y-376055D02*
X217730Y-371055D01*
G54D19*
X223330Y-380055D02*
X223330Y-364055D01*
G54D19*
X232930Y-380055D02*
X232930Y-364055D01*
G54D19*
X223330Y-372055D02*
X232930Y-372055D01*
G54D19*
X238530Y-371055D02*
X245729Y-371055D01*
X238529Y-380055D01*
X245730Y-380055D01*
X50000Y-50000D02*
G54D14*
D03*
X101633Y-327014D02*
G54D14*
D03*
X550000Y-50000D02*
G54D14*
D03*
G54D19*
X37599Y-115105D02*
X43599Y-99105D01*
X49599Y-115105D01*
G54D19*
X39999Y-109105D02*
X47199Y-109105D01*
G54D19*
X55199Y-115105D02*
X55199Y-99105D01*
X64799Y-115105D01*
X64799Y-99105D01*
G54D19*
X75199Y-115105D02*
X75199Y-99105D01*
G54D19*
X70399Y-99105D02*
X79999Y-99105D01*
G54D19*
X45614Y-149531D02*
X45614Y-133531D01*
G54D19*
X45614Y-144531D02*
X55214Y-133531D01*
G54D19*
X49214Y-141531D02*
X55214Y-149531D01*
G54D19*
X60814Y-141531D02*
X63214Y-140531D01*
X66094Y-140531D01*
X68014Y-142531D01*
X68014Y-149531D01*
G54D19*
X68014Y-146531D02*
X66814Y-144531D01*
X64414Y-144131D01*
X62014Y-144531D01*
X60814Y-146531D01*
X61294Y-148531D01*
X63214Y-149531D01*
X64414Y-149531D01*
X64894Y-149531D01*
X66814Y-148531D01*
X68014Y-146531D01*
G54D19*
X73614Y-149531D02*
X73614Y-140531D01*
G54D19*
X73614Y-142531D02*
X76014Y-140531D01*
X78414Y-140531D01*
G54D19*
X84014Y-141531D02*
X86414Y-140531D01*
X89294Y-140531D01*
X91214Y-142531D01*
X91214Y-149531D01*
G54D19*
X91214Y-146531D02*
X90014Y-144531D01*
X87614Y-144131D01*
X85214Y-144531D01*
X84014Y-146531D01*
X84494Y-148531D01*
X86414Y-149531D01*
X87614Y-149531D01*
X88094Y-149531D01*
X90014Y-148531D01*
X91214Y-146531D01*
G54D19*
X99214Y-133531D02*
X99214Y-148531D01*
X100414Y-149531D01*
X101614Y-149131D01*
G54D19*
X96814Y-140531D02*
X101614Y-140531D01*
G54D19*
X107214Y-142531D02*
X116814Y-142531D01*
G54D19*
X122414Y-136531D02*
X123614Y-134531D01*
X126014Y-133531D01*
X128414Y-133531D01*
X130814Y-134531D01*
X132014Y-136531D01*
X132014Y-138531D01*
X130814Y-140531D01*
X128414Y-141531D01*
X130814Y-142531D01*
X132014Y-144531D01*
X132014Y-146531D01*
X130814Y-148531D01*
X128414Y-149531D01*
X126014Y-149531D01*
X123614Y-148531D01*
X122414Y-146531D01*
G54D19*
X137614Y-142531D02*
X147214Y-142531D01*
G54D19*
X152814Y-149531D02*
X152814Y-133531D01*
X161214Y-133531D01*
G54D19*
X152814Y-141531D02*
X161214Y-141531D01*
G54D19*
X166814Y-149531D02*
X166814Y-133531D01*
X172814Y-143531D01*
X178814Y-133531D01*
X178814Y-149531D01*
%LPD*%
G54D30*
G36*
X364864Y-95234D02*
X364864Y-81734D01*
X379744Y-81734D01*
X379744Y-95234D01*
X364864Y-95234D01*
G37*
G36*
X379744Y-95234D02*
X379744Y-108734D01*
X364864Y-108734D01*
X364864Y-95234D01*
X379744Y-95234D01*
G37*
G54D30*
G36*
X275964Y-95234D02*
X275964Y-81734D01*
X290844Y-81734D01*
X290844Y-95234D01*
X275964Y-95234D01*
G37*
G36*
X290844Y-95234D02*
X290844Y-108734D01*
X275964Y-108734D01*
X275964Y-95234D01*
X290844Y-95234D01*
G37*
G54D30*
G36*
X187064Y-95234D02*
X187064Y-81734D01*
X201944Y-81734D01*
X201944Y-95234D01*
X187064Y-95234D01*
G37*
G36*
X201944Y-95234D02*
X201944Y-108734D01*
X187064Y-108734D01*
X187064Y-95234D01*
X201944Y-95234D01*
G37*
G54D31*
G36*
X480029Y-48409D02*
X480029Y-35909D01*
X486029Y-35909D01*
X486029Y-48409D01*
X480029Y-48409D01*
G37*
G36*
X483029Y-45409D02*
X495529Y-45409D01*
X495529Y-51409D01*
X483029Y-51409D01*
X483029Y-45409D01*
G37*
G36*
X486029Y-48409D02*
X486029Y-60909D01*
X480029Y-60909D01*
X480029Y-48409D01*
X486029Y-48409D01*
G37*
G36*
X483029Y-51409D02*
X470529Y-51409D01*
X470529Y-45409D01*
X483029Y-45409D01*
X483029Y-51409D01*
G37*
G54D31*
G36*
X435549Y-235330D02*
X435549Y-222830D01*
X441549Y-222830D01*
X441549Y-235330D01*
X435549Y-235330D01*
G37*
G36*
X438549Y-232330D02*
X451049Y-232330D01*
X451049Y-238330D01*
X438549Y-238330D01*
X438549Y-232330D01*
G37*
G36*
X441549Y-235330D02*
X441549Y-247830D01*
X435549Y-247830D01*
X435549Y-235330D01*
X441549Y-235330D01*
G37*
G36*
X438549Y-238330D02*
X426049Y-238330D01*
X426049Y-232330D01*
X438549Y-232330D01*
X438549Y-238330D01*
G37*
G54D32*
G36*
X564508Y-182373D02*
X564508Y-167873D01*
X571174Y-167873D01*
X571174Y-182373D01*
X564508Y-182373D01*
G37*
G36*
X567841Y-179040D02*
X582341Y-179040D01*
X582341Y-185706D01*
X567841Y-185706D01*
X567841Y-179040D01*
G37*
G36*
X571174Y-182373D02*
X571174Y-196873D01*
X564508Y-196873D01*
X564508Y-182373D01*
X571174Y-182373D01*
G37*
G54D33*
G36*
X308007Y-143142D02*
X323507Y-143142D01*
X323507Y-148142D01*
X308007Y-148142D01*
X308007Y-143142D01*
G37*
G36*
X310507Y-145642D02*
X310507Y-155142D01*
X305507Y-155142D01*
X305507Y-145642D01*
X310507Y-145642D01*
G37*
G36*
X308007Y-148142D02*
X292507Y-148142D01*
X292507Y-143142D01*
X308007Y-143142D01*
X308007Y-148142D01*
G37*
G36*
X305507Y-145642D02*
X305507Y-136142D01*
X310507Y-136142D01*
X310507Y-145642D01*
X305507Y-145642D01*
G37*
G54D32*
G36*
X259556Y-214694D02*
X274056Y-214694D01*
X274056Y-221360D01*
X259556Y-221360D01*
X259556Y-214694D01*
G37*
G36*
X262889Y-218027D02*
X262889Y-232527D01*
X256223Y-232527D01*
X256223Y-218027D01*
X262889Y-218027D01*
G37*
G36*
X259556Y-221360D02*
X245056Y-221360D01*
X245056Y-214694D01*
X259556Y-214694D01*
X259556Y-221360D01*
G37*
G54D34*
G36*
X286182Y-214072D02*
X295682Y-214072D01*
X295682Y-218405D01*
X286182Y-218405D01*
X286182Y-214072D01*
G37*
G36*
X288348Y-216238D02*
X288348Y-225238D01*
X284015Y-225238D01*
X284015Y-216238D01*
X288348Y-216238D01*
G37*
G36*
X286182Y-218405D02*
X276682Y-218405D01*
X276682Y-214072D01*
X286182Y-214072D01*
X286182Y-218405D01*
G37*
G54D32*
G36*
X86122Y-70231D02*
X100622Y-70231D01*
X100622Y-76898D01*
X86122Y-76898D01*
X86122Y-70231D01*
G37*
G36*
X89455Y-73565D02*
X89455Y-88065D01*
X82788Y-88065D01*
X82788Y-73565D01*
X89455Y-73565D01*
G37*
G36*
X86122Y-76898D02*
X71622Y-76898D01*
X71622Y-70231D01*
X86122Y-70231D01*
X86122Y-76898D01*
G37*
G54D35*
G36*
X363604Y-264476D02*
X352104Y-264476D01*
X352104Y-259810D01*
X363604Y-259810D01*
X363604Y-264476D01*
G37*
G36*
X361270Y-262143D02*
X361270Y-250643D01*
X365937Y-250643D01*
X365937Y-262143D01*
X361270Y-262143D01*
G37*
G36*
X363604Y-259810D02*
X375104Y-259810D01*
X375104Y-264476D01*
X363604Y-264476D01*
X363604Y-259810D01*
G37*
G54D36*
G36*
X296024Y-322613D02*
X296024Y-341113D01*
X281024Y-341113D01*
X281024Y-322613D01*
X296024Y-322613D01*
G37*
G36*
X281024Y-322613D02*
X281024Y-304113D01*
X296024Y-304113D01*
X296024Y-322613D01*
X281024Y-322613D01*
G37*
G54D34*
G36*
X400273Y-168637D02*
X400274Y-159137D01*
X404607Y-159137D01*
X404606Y-168637D01*
X400273Y-168637D01*
G37*
G36*
X402440Y-166470D02*
X411440Y-166471D01*
X411440Y-170804D01*
X402440Y-170804D01*
X402440Y-166470D01*
G37*
G36*
X404606Y-168637D02*
X404606Y-178137D01*
X400273Y-178137D01*
X400273Y-168637D01*
X404606Y-168637D01*
G37*
G54D37*
G36*
X156755Y-280945D02*
X148977Y-288723D01*
X143356Y-283102D01*
X151134Y-275324D01*
X156755Y-280945D01*
G37*
G36*
X151134Y-280945D02*
X143356Y-273167D01*
X148977Y-267546D01*
X156755Y-275324D01*
X151134Y-280945D01*
G37*
G36*
X151134Y-275324D02*
X158912Y-267546D01*
X164534Y-273167D01*
X156755Y-280945D01*
X151134Y-275324D01*
G37*
G36*
X156755Y-275324D02*
X164534Y-283102D01*
X158912Y-288723D01*
X151134Y-280945D01*
X156755Y-275324D01*
G37*
G54D32*
G36*
X153990Y-232896D02*
X153990Y-218396D01*
X160657Y-218396D01*
X160657Y-232896D01*
X153990Y-232896D01*
G37*
G36*
X157323Y-229563D02*
X171823Y-229563D01*
X171823Y-236229D01*
X157323Y-236229D01*
X157323Y-229563D01*
G37*
G36*
X160657Y-232896D02*
X160657Y-247396D01*
X153990Y-247396D01*
X153990Y-232896D01*
X160657Y-232896D01*
G37*
G54D32*
G36*
X163982Y-371031D02*
X163982Y-385531D01*
X157316Y-385531D01*
X157316Y-371031D01*
X163982Y-371031D01*
G37*
G36*
X160649Y-374364D02*
X146149Y-374364D01*
X146149Y-367697D01*
X160649Y-367697D01*
X160649Y-374364D01*
G37*
G36*
X157316Y-371031D02*
X157316Y-356531D01*
X163982Y-356531D01*
X163982Y-371031D01*
X157316Y-371031D01*
G37*
X350479Y-48409D02*
G54D38*
D03*
X372304Y-95234D02*
G54D38*
D03*
X350479Y-95234D02*
G54D38*
D03*
X394129Y-95234D02*
G54D38*
D03*
X394129Y-48409D02*
G54D38*
D03*
X261579Y-48409D02*
G54D38*
D03*
X283404Y-95234D02*
G54D38*
D03*
X261579Y-95234D02*
G54D38*
D03*
X305229Y-95234D02*
G54D38*
D03*
X305229Y-48409D02*
G54D38*
D03*
X172679Y-48409D02*
G54D38*
D03*
X194504Y-95234D02*
G54D38*
D03*
X172679Y-95234D02*
G54D38*
D03*
X216329Y-95234D02*
G54D38*
D03*
X216329Y-48409D02*
G54D38*
D03*
X439379Y-48409D02*
G54D38*
D03*
X439379Y-95234D02*
G54D38*
D03*
X483029Y-95234D02*
G54D38*
D03*
X483029Y-48409D02*
G54D38*
D03*
X438549Y-235330D02*
G54D38*
D03*
X460374Y-188506D02*
G54D38*
D03*
X438549Y-188506D02*
G54D38*
D03*
X482199Y-188506D02*
G54D38*
D03*
X482199Y-235330D02*
G54D38*
D03*
X505254Y-160328D02*
G54D39*
D03*
G54D33*
X505254Y-160328D02*
X498111Y-174615D01*
X453264Y-174615D01*
X439373Y-188506D01*
X461201Y-108337D02*
G54D39*
D03*
X512001Y-108734D02*
G54D39*
D03*
G54D31*
X512001Y-108734D02*
X490570Y-117465D01*
X470329Y-117465D01*
X461201Y-108337D01*
X524304Y-109528D02*
G54D40*
D03*
X524304Y-128528D02*
G54D40*
D03*
G54D33*
X512001Y-108734D02*
X508429Y-108337D01*
X523907Y-109131D01*
G54D33*
X524304Y-128181D02*
X524304Y-180965D01*
X496920Y-208350D01*
X469139Y-208350D01*
X460804Y-200015D01*
X460804Y-188903D01*
X461201Y-188506D01*
G36*
X557841Y-192373D02*
X557841Y-172373D01*
X577841Y-172373D01*
X577841Y-192373D01*
X557841Y-192373D01*
G37*
X542442Y-182373D02*
G54D41*
D03*
X542932Y-149190D02*
G54D42*
D03*
X523932Y-149190D02*
G54D42*
D03*
G54D33*
X543354Y-128578D02*
X542131Y-149991D01*
X365157Y-171043D02*
G54D43*
D03*
X308007Y-171043D02*
G54D44*
D03*
X308007Y-196443D02*
G54D44*
D03*
X308007Y-145642D02*
G54D44*
D03*
G36*
X297292Y-166281D02*
X322692Y-166281D01*
X322692Y-128578D01*
X388176Y-128578D01*
X388176Y-213509D01*
X322692Y-213509D01*
X322692Y-175806D01*
X297292Y-175806D01*
X297292Y-166281D01*
G37*
G54D45*
X297292Y-166281D02*
X322692Y-166281D01*
X322692Y-128578D01*
X388176Y-128578D01*
X388176Y-213509D01*
X322692Y-213509D01*
X322692Y-175806D01*
X297292Y-175806D01*
X297292Y-166281D01*
G36*
X249556Y-208027D02*
X269556Y-208027D01*
X269556Y-228027D01*
X249556Y-228027D01*
X249556Y-208027D01*
G37*
X259556Y-192628D02*
G54D41*
D03*
G54D31*
X417917Y-130934D02*
X438579Y-130959D01*
X448104Y-116671D01*
X461201Y-108337D01*
X417917Y-130934D02*
G54D42*
D03*
X398917Y-130934D02*
G54D42*
D03*
G54D33*
X398917Y-130934D02*
X386217Y-130934D01*
X380239Y-136912D01*
X286182Y-197238D02*
G54D40*
D03*
X286182Y-216238D02*
G54D40*
D03*
G54D15*
X259556Y-192628D02*
X281571Y-192628D01*
X286182Y-197238D01*
X307212Y-197238D01*
G36*
X76122Y-63565D02*
X96122Y-63565D01*
X96122Y-83565D01*
X76122Y-83565D01*
X76122Y-63565D01*
G37*
X86122Y-48165D02*
G54D41*
D03*
X363603Y-290144D02*
G54D46*
D03*
X350903Y-276144D02*
G54D46*
D03*
X363604Y-262143D02*
G54D46*
D03*
X379445Y-205174D02*
G54D39*
D03*
G54D36*
X307574Y-330113D02*
X307574Y-315113D01*
G54D36*
X288524Y-330113D02*
X288524Y-315113D01*
G54D36*
X269474Y-330113D02*
X269474Y-315113D01*
X383439Y-168637D02*
G54D42*
D03*
X402440Y-168637D02*
G54D42*
D03*
X543354Y-128578D02*
G54D39*
D03*
X255545Y-278135D02*
G54D39*
D03*
X230145Y-278135D02*
G54D39*
D03*
X204745Y-278135D02*
G54D39*
D03*
X179345Y-278135D02*
G54D39*
D03*
X153945Y-278134D02*
G54D39*
D03*
X128545Y-278135D02*
G54D39*
D03*
X103145Y-278135D02*
G54D39*
D03*
X77745Y-278135D02*
G54D39*
D03*
X52345Y-278135D02*
G54D39*
D03*
G54D33*
X269474Y-322613D02*
X256774Y-279364D01*
X255545Y-278135D01*
X186358Y-327602D02*
G54D41*
D03*
X35958Y-327602D02*
G54D41*
D03*
G54D33*
X128545Y-278135D02*
X128545Y-294990D01*
X161158Y-327602D01*
X186358Y-327602D01*
X186049Y-371031D01*
X380239Y-136912D02*
G54D39*
D03*
G36*
X147323Y-242896D02*
X147323Y-222896D01*
X167323Y-222896D01*
X167323Y-242896D01*
X147323Y-242896D01*
G37*
X131924Y-232896D02*
G54D41*
D03*
G36*
X170649Y-361031D02*
X170649Y-381031D01*
X150649Y-381031D01*
X150649Y-361031D01*
X170649Y-361031D01*
G37*
X186049Y-371031D02*
G54D41*
D03*
%LNAUGENFREISTANZEN*%
%LPC*%
X350479Y-48409D02*
G54D33*
D03*
X372304Y-95234D02*
G54D33*
D03*
X350479Y-95234D02*
G54D33*
D03*
X394129Y-95234D02*
G54D33*
D03*
X394129Y-48409D02*
G54D33*
D03*
X261579Y-48409D02*
G54D33*
D03*
X283404Y-95234D02*
G54D33*
D03*
X261579Y-95234D02*
G54D33*
D03*
X305229Y-95234D02*
G54D33*
D03*
X305229Y-48409D02*
G54D33*
D03*
X172679Y-48409D02*
G54D33*
D03*
X194504Y-95234D02*
G54D33*
D03*
X172679Y-95234D02*
G54D33*
D03*
X216329Y-95234D02*
G54D33*
D03*
X216329Y-48409D02*
G54D33*
D03*
X439379Y-48409D02*
G54D33*
D03*
X439379Y-95234D02*
G54D33*
D03*
X483029Y-95234D02*
G54D33*
D03*
X483029Y-48409D02*
G54D33*
D03*
X438549Y-235330D02*
G54D33*
D03*
X460374Y-188506D02*
G54D33*
D03*
X438549Y-188506D02*
G54D33*
D03*
X482199Y-188506D02*
G54D33*
D03*
X482199Y-235330D02*
G54D33*
D03*
X505254Y-160328D02*
G54D33*
D03*
X448501Y-166677D02*
G54D33*
D03*
X461201Y-108337D02*
G54D33*
D03*
X489776Y-165090D02*
G54D33*
D03*
X512001Y-108734D02*
G54D33*
D03*
X511207Y-61902D02*
G54D33*
D03*
X461598Y-61902D02*
G54D33*
D03*
X567841Y-182373D02*
G54D22*
D03*
X542442Y-182373D02*
G54D22*
D03*
X259556Y-218027D02*
G54D22*
D03*
X259556Y-192628D02*
G54D22*
D03*
X86122Y-73565D02*
G54D22*
D03*
X86122Y-48165D02*
G54D22*
D03*
X363603Y-290144D02*
G54D33*
D03*
X350903Y-276144D02*
G54D33*
D03*
X363604Y-262143D02*
G54D33*
D03*
X379445Y-205174D02*
G54D33*
D03*
X307574Y-322613D02*
G54D33*
D03*
X288524Y-322613D02*
G54D33*
D03*
X269474Y-322613D02*
G54D33*
D03*
X543354Y-128578D02*
G54D33*
D03*
X277448Y-144452D02*
G54D33*
D03*
X306023Y-115877D02*
G54D33*
D03*
X255545Y-278135D02*
G54D33*
D03*
X230145Y-278135D02*
G54D33*
D03*
X204745Y-278135D02*
G54D33*
D03*
X179345Y-278135D02*
G54D33*
D03*
X153945Y-278134D02*
G54D33*
D03*
X128545Y-278135D02*
G54D33*
D03*
X103145Y-278135D02*
G54D33*
D03*
X77745Y-278135D02*
G54D33*
D03*
X52345Y-278135D02*
G54D33*
D03*
X186358Y-327602D02*
G54D22*
D03*
X35958Y-327602D02*
G54D22*
D03*
X380239Y-136912D02*
G54D33*
D03*
X157323Y-232896D02*
G54D22*
D03*
X131924Y-232896D02*
G54D22*
D03*
X160649Y-371031D02*
G54D22*
D03*
X186049Y-371031D02*
G54D22*
D03*
X50000Y-50000D02*
G54D33*
D03*
X101633Y-327014D02*
G54D33*
D03*
X550000Y-50000D02*
G54D33*
D03*
M02*
