M48
M71
T01C0.5
T02C0.8
%
G05
T01
X010160Y-032700
X010310Y-027810
X012850Y-027810
X015390Y-027810
X017930Y-027810
X020470Y-027810
X023010Y-027810
X025550Y-027810
X026950Y-032260
X028850Y-032260
X030760Y-032260
X035090Y-027610
X036360Y-029010
X036360Y-026210
X037940Y-020520
X043850Y-018850
X046040Y-018850
X048220Y-018850
X048980Y-016510
X050530Y-016030
X054340Y-012860
X051200Y-010870
X048300Y-009520
X046120Y-010830
X043940Y-009520
X046160Y-006190
X048300Y-004840
X051120Y-006190
X055000Y-005000
X043940Y-004840
X039410Y-004840
X035050Y-004840
X030520Y-004840
X026160Y-004840
X021630Y-004840
X017270Y-004840
X017270Y-009520
X019450Y-009520
X021630Y-009520
X026160Y-009520
X028340Y-009520
X030520Y-009520
X030600Y-011590
X027740Y-014450
X035050Y-009520
X037230Y-009520
X039410Y-009520
X038020Y-013690
X044850Y-016670
X043850Y-023530
X048220Y-023530
X007770Y-027810
X005230Y-027810
X005000Y-005000
T02
X003600Y-032760
X016060Y-037100
X018600Y-037100
X018640Y-032760
X015730Y-023290
X013190Y-023290
X025960Y-021800
X025960Y-019260
X008610Y-007360
X008610Y-004820
X054240Y-018240
X056780Y-018240
M30
